<svg width="36" height="36" viewBox="0 0 36 36" fill="none" xmlns="http://www.w3.org/2000/svg">
<path fill-rule="evenodd" clip-rule="evenodd" d="M19.2857 0.72C19.2857 0.322355 18.9634 0 18.5657 0H17.4343C17.0366 0 16.7143 0.322355 16.7143 0.72V7.68148C16.7143 8.47285 15.6232 8.68495 15.3267 7.95119L12.7189 1.49662C12.5699 1.12793 12.1503 0.949804 11.7816 1.09877L10.7326 1.52261C10.3639 1.67157 10.1858 2.0912 10.3347 2.4599L13.1149 9.34108C13.4087 10.0683 12.4928 10.6745 11.9382 10.1199L6.69033 4.87206C6.40915 4.59088 5.95327 4.59088 5.67209 4.87206L4.87206 5.67209C4.59088 5.95327 4.59088 6.40915 4.87206 6.69033L9.58462 11.4029C10.1472 11.9655 9.51629 12.8903 8.78724 12.5718L2.68011 9.90353C2.31572 9.74432 1.89128 9.91066 1.73207 10.275L1.27909 11.3118C1.11988 11.6762 1.28622 12.1007 1.6506 12.2599L8.68786 15.3345C9.40277 15.6469 9.17977 16.7143 8.39959 16.7143H0.72C0.322355 16.7143 0 17.0366 0 17.4343V18.5657C0 18.9634 0.322355 19.2857 0.72 19.2857H8.39956C9.17973 19.2857 9.40273 20.3531 8.68783 20.6654L1.65061 23.7402C1.28623 23.8993 1.11989 24.3238 1.2791 24.6881L1.73208 25.7249C1.89128 26.0894 2.31574 26.2557 2.68011 26.0964L8.78724 23.4283C9.51629 23.1097 10.1472 24.0345 9.58462 24.5972L4.87206 29.3096C4.59088 29.5909 4.59088 30.0467 4.87206 30.3278L5.67211 31.1279C5.95327 31.4091 6.40915 31.4091 6.69033 31.1279L11.9382 25.88C12.4928 25.3255 13.4087 25.9317 13.1149 26.6589L10.3347 33.5401C10.1858 33.9088 10.3639 34.3283 10.7326 34.4774L11.7816 34.9013C12.1503 35.0501 12.5699 34.8721 12.7189 34.5033L15.3267 28.0489C15.6232 27.315 16.7143 27.5272 16.7143 28.3185V35.28C16.7143 35.6776 17.0366 36 17.4343 36H18.5657C18.9634 36 19.2857 35.6776 19.2857 35.28V28.3185C19.2857 27.5272 20.3769 27.315 20.6734 28.0489L23.281 34.5033C23.4301 34.8721 23.8496 35.0501 24.2185 34.9013L25.2675 34.4774C25.6361 34.3283 25.8143 33.9088 25.6653 33.5401L22.8852 26.6589C22.5913 25.9317 23.5071 25.3255 24.0619 25.88L29.3096 31.1279C29.5909 31.4091 30.0467 31.4091 30.3278 31.1279L31.1279 30.3278C31.4091 30.0467 31.4091 29.5909 31.1279 29.3096L26.4154 24.5972C25.8529 24.0345 26.4838 23.1097 27.2128 23.4283L33.3198 26.0964C33.6843 26.2557 34.1087 26.0894 34.2679 25.7249L34.7209 24.6881C34.88 24.3238 34.7137 23.8993 34.3494 23.7402L27.3121 20.6654C26.5973 20.3531 26.8202 19.2857 27.6005 19.2857H35.28C35.6776 19.2857 36 18.9634 36 18.5657V17.4343C36 17.0366 35.6776 16.7143 35.28 16.7143H27.6005C26.8202 16.7143 26.5972 15.6469 27.3121 15.3345L34.3494 12.2599C34.7137 12.1007 34.88 11.6762 34.7209 11.3118L34.2679 10.275C34.1087 9.91066 33.6843 9.74432 33.3198 9.90353L27.2128 12.5718C26.4838 12.8903 25.8529 11.9655 26.4154 11.4029L31.1279 6.69031C31.4091 6.40913 31.4091 5.95327 31.1279 5.67209L30.3278 4.87204C30.0467 4.59086 29.5909 4.59086 29.3096 4.87204L24.0619 10.1199C23.5071 10.6745 22.5913 10.0683 22.8852 9.34106L25.6653 2.4599C25.8143 2.0912 25.6361 1.67157 25.2675 1.52261L24.2185 1.09877C23.8496 0.949804 23.4301 1.12793 23.281 1.49662L20.6734 7.95119C20.3769 8.68495 19.2857 8.47285 19.2857 7.68148V0.72Z" fill="#FFF8EE"/>
</svg>
