<svg width="35" height="35" viewBox="0 0 35 35" fill="none" xmlns="http://www.w3.org/2000/svg">
<g clip-path="url(#clip0_375_919)">
<path d="M17.5444 35C16.9925 35 16.5259 34.6003 16.3922 34.0648C15.9662 32.358 15.1505 30.5429 13.9453 28.6199C12.5174 26.3107 10.4818 24.1689 7.83855 22.194C5.53961 20.4564 3.24067 19.2715 0.941741 18.6394C0.397259 18.4898 0 18.007 0 17.4423C0 16.8887 0.381978 16.4114 0.914328 16.2594C3.16829 15.6159 5.33963 14.571 7.42838 13.125C9.82856 11.454 11.8338 9.44877 13.444 7.10937C14.8685 5.02539 15.8464 2.96429 16.3776 0.926112C16.5168 0.392166 16.9868 0 17.5387 0C18.0966 0 18.5699 0.400851 18.7057 0.942077C19.0123 2.16394 19.4915 3.4146 20.1432 4.69401C20.9636 6.27387 22.0117 7.79296 23.2878 9.25131C24.5941 10.6793 26.0526 11.9705 27.6628 13.125C29.767 14.6165 31.906 15.6644 34.0802 16.2687C34.6136 16.4169 35 16.8918 35 17.4453C35 18.0071 34.6019 18.4859 34.0601 18.6345C32.6819 19.0123 31.2634 19.6217 29.8048 20.4622C28.0425 21.4952 26.4019 22.7257 24.8827 24.1537C23.3637 25.5512 22.1181 27.0247 21.1458 28.5742C19.9383 30.5013 19.1217 32.3304 18.6965 34.0618C18.5645 34.5989 18.0973 35 17.5444 35Z" fill="#FFF8EE"/>
</g>
<defs>
<clipPath id="clip0_375_919">
<rect width="35" height="35" fill="white"/>
</clipPath>
</defs>
</svg>
