<svg width="32" height="32" viewBox="0 0 32 32" fill="none" xmlns="http://www.w3.org/2000/svg">
<mask id="path-1-outside-1_320_22" maskUnits="userSpaceOnUse" x="0" y="7" width="32" height="18" fill="black">
<rect fill="white" y="7" width="32" height="18"/>
<path d="M6.04704 10.0973L13.0892 18.0197V9.94418H13.2805V20.2777H13.0892V18.3067L5.85568 10.193C5.84292 10.1802 5.82379 10.1674 5.79827 10.1547C5.78552 10.1419 5.77276 10.1355 5.76 10.1355C5.74724 10.1355 5.73449 10.1419 5.72173 10.1547C5.72173 10.1674 5.72173 10.1802 5.72173 10.193V20.2777H5.53037V10.1547C5.53037 10.0781 5.55588 10.0207 5.60691 9.98246C5.65794 9.94418 5.70897 9.92505 5.76 9.92505C5.81103 9.92505 5.85568 9.93781 5.89395 9.96332C5.93223 9.98884 5.98326 10.0335 6.04704 10.0973ZM7.0804 22C7.32279 22 7.49502 21.949 7.59708 21.8469C7.71189 21.7321 7.7693 21.5535 7.7693 21.3111V14.9961L11.0416 18.9573V21.3111C11.0416 21.5535 11.0926 21.7321 11.1947 21.8469C11.3095 21.949 11.4881 22 11.7305 22H14.6009C14.8433 22 15.0155 21.949 15.1176 21.8469C15.2324 21.7321 15.2898 21.5535 15.2898 21.3111V8.91083C15.2898 8.66844 15.2324 8.49621 15.1176 8.39415C15.0155 8.27933 14.8433 8.22193 14.6009 8.22193H11.7305C11.4881 8.22193 11.3095 8.27933 11.1947 8.39415C11.0926 8.49621 11.0416 8.66844 11.0416 8.91083V12.9868L7.32917 8.7386C7.16332 8.54724 6.9911 8.41329 6.81249 8.33674C6.64665 8.2602 6.44253 8.22193 6.20013 8.22193H4.20997C3.96758 8.22193 3.78897 8.27933 3.67415 8.39415C3.57209 8.49621 3.52106 8.66844 3.52106 8.91083V21.3111C3.52106 21.5535 3.57209 21.7321 3.67415 21.8469C3.78897 21.949 3.96758 22 4.20997 22H7.0804ZM7.69276 22.0191L5.20505 24.0858C5.15402 24.1369 5.0711 24.1815 4.95628 24.2198C4.85422 24.2581 4.7394 24.2772 4.61183 24.2772H1.7414C1.43522 24.2772 1.21196 24.207 1.07163 24.0667C0.931296 23.9264 0.86113 23.7031 0.86113 23.3969V10.9967C0.86113 10.8308 0.880266 10.6905 0.918538 10.5757C0.969568 10.4609 1.03973 10.3652 1.12904 10.2886L3.59761 8.20279C3.6614 8.15176 3.74432 8.11349 3.84638 8.08797C3.9612 8.0497 4.08239 8.03056 4.20997 8.03056H6.20013C6.4808 8.03056 6.71681 8.07521 6.90817 8.16452C7.09954 8.25382 7.2909 8.40053 7.48226 8.60465L8.80266 10.1355L11.1181 8.20279C11.1819 8.15176 11.2649 8.11349 11.3669 8.08797C11.4817 8.0497 11.6029 8.03056 11.7305 8.03056H14.6009C14.9071 8.03056 15.1304 8.10073 15.2707 8.24106C15.411 8.38139 15.4812 8.60465 15.4812 8.91083V21.3111C15.4812 21.4769 15.4557 21.6173 15.4047 21.7321C15.3664 21.8469 15.3026 21.9426 15.2133 22.0191L12.7256 24.0858C12.6746 24.1369 12.5916 24.1815 12.4768 24.2198C12.3748 24.2581 12.2599 24.2772 12.1324 24.2772H9.26193C8.95575 24.2772 8.73249 24.207 8.59216 24.0667C8.45183 23.9264 8.38166 23.7031 8.38166 23.3969V21.1197L7.96066 20.6031V21.3111C7.96066 21.4769 7.93515 21.6173 7.88412 21.7321C7.84585 21.8469 7.78206 21.9426 7.69276 22.0191ZM27.8918 24.2772H21.8639C20.1926 24.2772 18.9552 23.8435 18.1514 22.9759C17.3605 22.1084 16.965 20.9858 16.965 19.608V14.2116C16.965 13.5099 17.0671 12.9039 17.2712 12.3936C17.4753 11.8833 17.7751 11.4559 18.1706 11.1115L20.6392 9.02565C21.0346 8.69395 21.5386 8.44518 22.1509 8.27933C22.776 8.11349 23.5032 8.03056 24.3324 8.03056H29.1165C29.4227 8.03056 29.6459 8.10073 29.7863 8.24106C29.9266 8.38139 29.9968 8.60465 29.9968 8.91083V11.2263C29.9968 11.3922 29.9712 11.5325 29.9202 11.6473C29.8819 11.7621 29.8182 11.8578 29.7289 11.9344L27.2411 14.0011C27.1901 14.0521 27.1072 14.0967 26.9924 14.135C26.8903 14.1733 26.7755 14.1924 26.6479 14.1924H24.1602V16.948C24.173 16.9225 24.1921 16.897 24.2176 16.8715C24.2559 16.8332 24.2878 16.8013 24.3133 16.7758L26.7819 14.69C26.8457 14.6389 26.9286 14.6007 27.0306 14.5751C27.1455 14.5369 27.2667 14.5177 27.3942 14.5177H30.3604C30.6665 14.5177 30.8898 14.5879 31.0301 14.7282C31.1705 14.8686 31.2406 15.0918 31.2406 15.398V21.3111C31.2406 21.4769 31.2151 21.6173 31.1641 21.7321C31.1258 21.8469 31.062 21.9426 30.9727 22.0191L28.485 24.0858C28.434 24.1369 28.351 24.1815 28.2362 24.2198C28.1342 24.2581 28.0194 24.2772 27.8918 24.2772ZM30.3604 22C30.6027 22 30.775 21.949 30.877 21.8469C30.9918 21.7321 31.0493 21.5535 31.0493 21.3111V15.398C31.0493 15.1556 30.9918 14.9834 30.877 14.8813C30.775 14.7665 30.6027 14.7091 30.3604 14.7091H27.3942C27.1518 14.7091 26.9732 14.7665 26.8584 14.8813C26.7564 14.9834 26.7053 15.1556 26.7053 15.398V18.3833H24.8491C24.5557 18.3833 24.3324 18.3067 24.1794 18.1536C24.039 18.0005 23.9689 17.7645 23.9689 17.4456V12.872C23.9689 12.5531 24.0645 12.3171 24.2559 12.164C24.4473 11.9981 24.7407 11.9152 25.1362 11.9152H29.1165C29.3589 11.9152 29.5311 11.8642 29.6332 11.7621C29.748 11.6473 29.8054 11.4687 29.8054 11.2263V8.91083C29.8054 8.66844 29.748 8.49621 29.6332 8.39415C29.5311 8.27933 29.3589 8.22193 29.1165 8.22193H24.3324C22.7378 8.22193 21.5513 8.54086 20.7731 9.17874C20.0077 9.81661 19.6249 10.7989 19.6249 12.1257V18.0962C19.6249 19.423 20.0077 20.4053 20.7731 21.0432C21.5513 21.6811 22.7378 22 24.3324 22H30.3604ZM25.1553 20.2777C24.4536 20.2777 23.8796 20.2331 23.433 20.1438C22.9865 20.0545 22.6357 19.9142 22.3805 19.7228C22.1254 19.5187 21.9468 19.2635 21.8447 18.9573C21.7554 18.6384 21.7108 18.2557 21.7108 17.8092V12.451C21.7108 11.5452 21.9149 10.901 22.3231 10.5183C22.7314 10.1355 23.5479 9.94418 24.7726 9.94418H28.0831V10.1355H24.7726C23.6499 10.1355 22.8908 10.3142 22.4954 10.6714C22.0999 11.0158 21.9021 11.609 21.9021 12.451V17.8092C21.9021 18.6384 22.119 19.2252 22.5528 19.5697C22.9993 19.9142 23.8668 20.0864 25.1553 20.0864H28.772V16.4314H28.9634V20.2777H25.1553Z"/>
</mask>
<path d="M6.04704 10.0973L13.0892 18.0197V9.94418H13.2805V20.2777H13.0892V18.3067L5.85568 10.193C5.84292 10.1802 5.82379 10.1674 5.79827 10.1547C5.78552 10.1419 5.77276 10.1355 5.76 10.1355C5.74724 10.1355 5.73449 10.1419 5.72173 10.1547C5.72173 10.1674 5.72173 10.1802 5.72173 10.193V20.2777H5.53037V10.1547C5.53037 10.0781 5.55588 10.0207 5.60691 9.98246C5.65794 9.94418 5.70897 9.92505 5.76 9.92505C5.81103 9.92505 5.85568 9.93781 5.89395 9.96332C5.93223 9.98884 5.98326 10.0335 6.04704 10.0973ZM7.0804 22C7.32279 22 7.49502 21.949 7.59708 21.8469C7.71189 21.7321 7.7693 21.5535 7.7693 21.3111V14.9961L11.0416 18.9573V21.3111C11.0416 21.5535 11.0926 21.7321 11.1947 21.8469C11.3095 21.949 11.4881 22 11.7305 22H14.6009C14.8433 22 15.0155 21.949 15.1176 21.8469C15.2324 21.7321 15.2898 21.5535 15.2898 21.3111V8.91083C15.2898 8.66844 15.2324 8.49621 15.1176 8.39415C15.0155 8.27933 14.8433 8.22193 14.6009 8.22193H11.7305C11.4881 8.22193 11.3095 8.27933 11.1947 8.39415C11.0926 8.49621 11.0416 8.66844 11.0416 8.91083V12.9868L7.32917 8.7386C7.16332 8.54724 6.9911 8.41329 6.81249 8.33674C6.64665 8.2602 6.44253 8.22193 6.20013 8.22193H4.20997C3.96758 8.22193 3.78897 8.27933 3.67415 8.39415C3.57209 8.49621 3.52106 8.66844 3.52106 8.91083V21.3111C3.52106 21.5535 3.57209 21.7321 3.67415 21.8469C3.78897 21.949 3.96758 22 4.20997 22H7.0804ZM7.69276 22.0191L5.20505 24.0858C5.15402 24.1369 5.0711 24.1815 4.95628 24.2198C4.85422 24.2581 4.7394 24.2772 4.61183 24.2772H1.7414C1.43522 24.2772 1.21196 24.207 1.07163 24.0667C0.931296 23.9264 0.86113 23.7031 0.86113 23.3969V10.9967C0.86113 10.8308 0.880266 10.6905 0.918538 10.5757C0.969568 10.4609 1.03973 10.3652 1.12904 10.2886L3.59761 8.20279C3.6614 8.15176 3.74432 8.11349 3.84638 8.08797C3.9612 8.0497 4.08239 8.03056 4.20997 8.03056H6.20013C6.4808 8.03056 6.71681 8.07521 6.90817 8.16452C7.09954 8.25382 7.2909 8.40053 7.48226 8.60465L8.80266 10.1355L11.1181 8.20279C11.1819 8.15176 11.2649 8.11349 11.3669 8.08797C11.4817 8.0497 11.6029 8.03056 11.7305 8.03056H14.6009C14.9071 8.03056 15.1304 8.10073 15.2707 8.24106C15.411 8.38139 15.4812 8.60465 15.4812 8.91083V21.3111C15.4812 21.4769 15.4557 21.6173 15.4047 21.7321C15.3664 21.8469 15.3026 21.9426 15.2133 22.0191L12.7256 24.0858C12.6746 24.1369 12.5916 24.1815 12.4768 24.2198C12.3748 24.2581 12.2599 24.2772 12.1324 24.2772H9.26193C8.95575 24.2772 8.73249 24.207 8.59216 24.0667C8.45183 23.9264 8.38166 23.7031 8.38166 23.3969V21.1197L7.96066 20.6031V21.3111C7.96066 21.4769 7.93515 21.6173 7.88412 21.7321C7.84585 21.8469 7.78206 21.9426 7.69276 22.0191ZM27.8918 24.2772H21.8639C20.1926 24.2772 18.9552 23.8435 18.1514 22.9759C17.3605 22.1084 16.965 20.9858 16.965 19.608V14.2116C16.965 13.5099 17.0671 12.9039 17.2712 12.3936C17.4753 11.8833 17.7751 11.4559 18.1706 11.1115L20.6392 9.02565C21.0346 8.69395 21.5386 8.44518 22.1509 8.27933C22.776 8.11349 23.5032 8.03056 24.3324 8.03056H29.1165C29.4227 8.03056 29.6459 8.10073 29.7863 8.24106C29.9266 8.38139 29.9968 8.60465 29.9968 8.91083V11.2263C29.9968 11.3922 29.9712 11.5325 29.9202 11.6473C29.8819 11.7621 29.8182 11.8578 29.7289 11.9344L27.2411 14.0011C27.1901 14.0521 27.1072 14.0967 26.9924 14.135C26.8903 14.1733 26.7755 14.1924 26.6479 14.1924H24.1602V16.948C24.173 16.9225 24.1921 16.897 24.2176 16.8715C24.2559 16.8332 24.2878 16.8013 24.3133 16.7758L26.7819 14.69C26.8457 14.6389 26.9286 14.6007 27.0306 14.5751C27.1455 14.5369 27.2667 14.5177 27.3942 14.5177H30.3604C30.6665 14.5177 30.8898 14.5879 31.0301 14.7282C31.1705 14.8686 31.2406 15.0918 31.2406 15.398V21.3111C31.2406 21.4769 31.2151 21.6173 31.1641 21.7321C31.1258 21.8469 31.062 21.9426 30.9727 22.0191L28.485 24.0858C28.434 24.1369 28.351 24.1815 28.2362 24.2198C28.1342 24.2581 28.0194 24.2772 27.8918 24.2772ZM30.3604 22C30.6027 22 30.775 21.949 30.877 21.8469C30.9918 21.7321 31.0493 21.5535 31.0493 21.3111V15.398C31.0493 15.1556 30.9918 14.9834 30.877 14.8813C30.775 14.7665 30.6027 14.7091 30.3604 14.7091H27.3942C27.1518 14.7091 26.9732 14.7665 26.8584 14.8813C26.7564 14.9834 26.7053 15.1556 26.7053 15.398V18.3833H24.8491C24.5557 18.3833 24.3324 18.3067 24.1794 18.1536C24.039 18.0005 23.9689 17.7645 23.9689 17.4456V12.872C23.9689 12.5531 24.0645 12.3171 24.2559 12.164C24.4473 11.9981 24.7407 11.9152 25.1362 11.9152H29.1165C29.3589 11.9152 29.5311 11.8642 29.6332 11.7621C29.748 11.6473 29.8054 11.4687 29.8054 11.2263V8.91083C29.8054 8.66844 29.748 8.49621 29.6332 8.39415C29.5311 8.27933 29.3589 8.22193 29.1165 8.22193H24.3324C22.7378 8.22193 21.5513 8.54086 20.7731 9.17874C20.0077 9.81661 19.6249 10.7989 19.6249 12.1257V18.0962C19.6249 19.423 20.0077 20.4053 20.7731 21.0432C21.5513 21.6811 22.7378 22 24.3324 22H30.3604ZM25.1553 20.2777C24.4536 20.2777 23.8796 20.2331 23.433 20.1438C22.9865 20.0545 22.6357 19.9142 22.3805 19.7228C22.1254 19.5187 21.9468 19.2635 21.8447 18.9573C21.7554 18.6384 21.7108 18.2557 21.7108 17.8092V12.451C21.7108 11.5452 21.9149 10.901 22.3231 10.5183C22.7314 10.1355 23.5479 9.94418 24.7726 9.94418H28.0831V10.1355H24.7726C23.6499 10.1355 22.8908 10.3142 22.4954 10.6714C22.0999 11.0158 21.9021 11.609 21.9021 12.451V17.8092C21.9021 18.6384 22.119 19.2252 22.5528 19.5697C22.9993 19.9142 23.8668 20.0864 25.1553 20.0864H28.772V16.4314H28.9634V20.2777H25.1553Z" fill="black"/>
<path d="M6.04704 10.0973L6.44434 9.74412L6.43396 9.73245L6.42291 9.7214L6.04704 10.0973ZM13.0892 18.0197L12.6919 18.3728L13.6207 19.4178V18.0197H13.0892ZM13.0892 9.94418V9.41262H12.5576V9.94418H13.0892ZM13.2805 9.94418H13.8121V9.41262H13.2805V9.94418ZM13.2805 20.2777V20.8093H13.8121V20.2777H13.2805ZM13.0892 20.2777H12.5576V20.8093H13.0892V20.2777ZM13.0892 18.3067H13.6207V18.1042L13.4859 17.953L13.0892 18.3067ZM5.85568 10.193L6.25246 9.83922L6.24232 9.82785L6.23155 9.81708L5.85568 10.193ZM5.79827 10.1547L5.4224 10.5306L5.4834 10.5916L5.56055 10.6301L5.79827 10.1547ZM5.72173 10.1547L5.34586 9.77881L5.19017 9.9345V10.1547H5.72173ZM5.72173 20.2777V20.8093H6.25329V20.2777H5.72173ZM5.53037 20.2777H4.9988V20.8093H5.53037V20.2777ZM5.89395 9.96332L5.59909 10.4056L5.5991 10.4056L5.89395 9.96332ZM7.59708 21.8469L7.22121 21.471L7.22121 21.471L7.59708 21.8469ZM7.7693 14.9961L8.17912 14.6576L7.23774 13.518V14.9961H7.7693ZM11.0416 18.9573H11.5732V18.7662L11.4514 18.6188L11.0416 18.9573ZM11.1947 21.8469L10.7974 22.2001L10.8182 22.2234L10.8415 22.2442L11.1947 21.8469ZM15.1176 21.8469L14.7417 21.471L14.7417 21.471L15.1176 21.8469ZM15.1176 8.39415L14.7203 8.7473L14.7411 8.77067L14.7645 8.79145L15.1176 8.39415ZM11.0416 12.9868L10.6413 13.3366L11.5732 14.4029V12.9868H11.0416ZM7.32917 8.7386L6.92747 9.08674L6.92891 9.08838L7.32917 8.7386ZM6.81249 8.33674L6.58974 8.81938L6.59638 8.82244L6.6031 8.82532L6.81249 8.33674ZM3.67415 8.39415L3.29828 8.01828L3.29828 8.01828L3.67415 8.39415ZM3.67415 21.8469L3.27686 22.2001L3.29763 22.2234L3.321 22.2442L3.67415 21.8469ZM7.69276 22.0191L8.03248 22.4281L8.03869 22.4227L7.69276 22.0191ZM5.20505 24.0858L4.86537 23.677L4.84651 23.6926L4.82918 23.71L5.20505 24.0858ZM4.95628 24.2198L4.78818 23.7155L4.77885 23.7186L4.76964 23.7221L4.95628 24.2198ZM0.918538 10.5757L0.432791 10.3598L0.422369 10.3832L0.414255 10.4076L0.918538 10.5757ZM1.12904 10.2886L0.785952 9.8826L0.7831 9.88505L1.12904 10.2886ZM3.59761 8.20279L3.26554 7.78771L3.25998 7.79216L3.25453 7.79676L3.59761 8.20279ZM3.84638 8.08797L3.9753 8.60366L3.99511 8.59871L4.01447 8.59226L3.84638 8.08797ZM6.90817 8.16452L7.13296 7.68283L7.13296 7.68282L6.90817 8.16452ZM7.48226 8.60465L7.88478 8.25747L7.87759 8.24913L7.87005 8.24109L7.48226 8.60465ZM8.80266 10.1355L8.40013 10.4827L8.74175 10.8788L9.14329 10.5436L8.80266 10.1355ZM11.1181 8.20279L10.786 7.78762L10.7775 7.79471L11.1181 8.20279ZM11.3669 8.08797L11.4958 8.60366L11.5156 8.59871L11.535 8.59226L11.3669 8.08797ZM15.2707 8.24106L15.6466 7.86519L15.6466 7.86519L15.2707 8.24106ZM15.4047 21.7321L14.9189 21.5162L14.9085 21.5397L14.9004 21.564L15.4047 21.7321ZM15.2133 22.0191L15.553 22.4281L15.5592 22.4227L15.2133 22.0191ZM12.7256 24.0858L12.3859 23.677L12.367 23.6926L12.3497 23.71L12.7256 24.0858ZM12.4768 24.2198L12.3087 23.7155L12.2994 23.7186L12.2902 23.7221L12.4768 24.2198ZM8.59216 24.0667L8.96803 23.6908L8.96803 23.6908L8.59216 24.0667ZM8.38166 21.1197H8.91322V20.9306L8.79375 20.784L8.38166 21.1197ZM7.96066 20.6031L8.37275 20.2673L7.4291 19.1092V20.6031H7.96066ZM7.88412 21.7321L7.39837 21.5162L7.38795 21.5397L7.37984 21.564L7.88412 21.7321ZM5.64975 10.4504L12.6919 18.3728L13.4865 17.6665L6.44434 9.74412L5.64975 10.4504ZM13.6207 18.0197V9.94418H12.5576V18.0197H13.6207ZM13.0892 10.4757H13.2805V9.41262H13.0892V10.4757ZM12.749 9.94418V20.2777H13.8121V9.94418H12.749ZM13.2805 19.7462H13.0892V20.8093H13.2805V19.7462ZM13.6207 20.2777V18.3067H12.5576V20.2777H13.6207ZM13.4859 17.953L6.25246 9.83922L5.4589 10.5467L12.6924 18.6604L13.4859 17.953ZM6.23155 9.81708C6.16194 9.74747 6.08652 9.7045 6.03599 9.67924L5.56055 10.6301C5.55807 10.6289 5.54941 10.6244 5.53691 10.6161C5.52487 10.6081 5.50385 10.5929 5.47982 10.5688L6.23155 9.81708ZM6.17414 9.77881C6.10345 9.70812 5.96346 9.60399 5.76 9.60399V10.6671C5.58206 10.6671 5.46758 10.5757 5.4224 10.5306L6.17414 9.77881ZM5.76 9.60399C5.55655 9.60399 5.41656 9.70811 5.34586 9.77881L6.0976 10.5306C6.05241 10.5757 5.93794 10.6671 5.76 10.6671V9.60399ZM5.19017 10.1547C5.19017 10.1547 5.19017 10.1547 5.19017 10.1548C5.19017 10.1548 5.19017 10.1548 5.19017 10.1548C5.19017 10.1549 5.19017 10.1549 5.19017 10.1549C5.19017 10.1549 5.19017 10.155 5.19017 10.155C5.19017 10.155 5.19017 10.155 5.19017 10.1551C5.19017 10.1551 5.19017 10.1551 5.19017 10.1551C5.19017 10.1552 5.19017 10.1552 5.19017 10.1552C5.19017 10.1552 5.19017 10.1553 5.19017 10.1553C5.19017 10.1553 5.19017 10.1553 5.19017 10.1554C5.19017 10.1554 5.19017 10.1554 5.19017 10.1554C5.19017 10.1555 5.19017 10.1555 5.19017 10.1555C5.19017 10.1555 5.19017 10.1556 5.19017 10.1556C5.19017 10.1556 5.19017 10.1556 5.19017 10.1557C5.19017 10.1557 5.19017 10.1557 5.19017 10.1557C5.19017 10.1558 5.19017 10.1558 5.19017 10.1558C5.19017 10.1558 5.19017 10.1559 5.19017 10.1559C5.19017 10.1559 5.19017 10.1559 5.19017 10.156C5.19017 10.156 5.19017 10.156 5.19017 10.156C5.19017 10.1561 5.19017 10.1561 5.19017 10.1561C5.19017 10.1561 5.19017 10.1562 5.19017 10.1562C5.19017 10.1562 5.19017 10.1562 5.19017 10.1563C5.19017 10.1563 5.19017 10.1563 5.19017 10.1563C5.19017 10.1564 5.19017 10.1564 5.19017 10.1564C5.19017 10.1564 5.19017 10.1565 5.19017 10.1565C5.19017 10.1565 5.19017 10.1565 5.19017 10.1566C5.19017 10.1566 5.19017 10.1566 5.19017 10.1566C5.19017 10.1567 5.19017 10.1567 5.19017 10.1567C5.19017 10.1567 5.19017 10.1568 5.19017 10.1568C5.19017 10.1568 5.19017 10.1568 5.19017 10.1569C5.19017 10.1569 5.19017 10.1569 5.19017 10.1569C5.19017 10.157 5.19017 10.157 5.19017 10.157C5.19017 10.157 5.19017 10.1571 5.19017 10.1571C5.19017 10.1571 5.19017 10.1571 5.19017 10.1572C5.19017 10.1572 5.19017 10.1572 5.19017 10.1572C5.19017 10.1573 5.19017 10.1573 5.19017 10.1573C5.19017 10.1573 5.19017 10.1573 5.19017 10.1574C5.19017 10.1574 5.19017 10.1574 5.19017 10.1574C5.19017 10.1575 5.19017 10.1575 5.19017 10.1575C5.19017 10.1575 5.19017 10.1576 5.19017 10.1576C5.19017 10.1576 5.19017 10.1576 5.19017 10.1577C5.19017 10.1577 5.19017 10.1577 5.19017 10.1577C5.19017 10.1578 5.19017 10.1578 5.19017 10.1578C5.19017 10.1578 5.19017 10.1579 5.19017 10.1579C5.19017 10.1579 5.19017 10.1579 5.19017 10.158C5.19017 10.158 5.19017 10.158 5.19017 10.158C5.19017 10.1581 5.19017 10.1581 5.19017 10.1581C5.19017 10.1581 5.19017 10.1582 5.19017 10.1582C5.19017 10.1582 5.19017 10.1582 5.19017 10.1583C5.19017 10.1583 5.19017 10.1583 5.19017 10.1583C5.19017 10.1584 5.19017 10.1584 5.19017 10.1584C5.19017 10.1584 5.19017 10.1585 5.19017 10.1585C5.19017 10.1585 5.19017 10.1585 5.19017 10.1586C5.19017 10.1586 5.19017 10.1586 5.19017 10.1586C5.19017 10.1587 5.19017 10.1587 5.19017 10.1587C5.19017 10.1587 5.19017 10.1588 5.19017 10.1588C5.19017 10.1588 5.19017 10.1588 5.19017 10.1589C5.19017 10.1589 5.19017 10.1589 5.19017 10.1589C5.19017 10.159 5.19017 10.159 5.19017 10.159C5.19017 10.159 5.19017 10.1591 5.19017 10.1591C5.19017 10.1591 5.19017 10.1591 5.19017 10.1592C5.19017 10.1592 5.19017 10.1592 5.19017 10.1592C5.19017 10.1593 5.19017 10.1593 5.19017 10.1593C5.19017 10.1593 5.19017 10.1594 5.19017 10.1594C5.19017 10.1594 5.19017 10.1594 5.19017 10.1595C5.19017 10.1595 5.19017 10.1595 5.19017 10.1595C5.19017 10.1596 5.19017 10.1596 5.19017 10.1596C5.19017 10.1596 5.19017 10.1597 5.19017 10.1597C5.19017 10.1597 5.19017 10.1597 5.19017 10.1598C5.19017 10.1598 5.19017 10.1598 5.19017 10.1598C5.19017 10.1599 5.19017 10.1599 5.19017 10.1599C5.19017 10.1599 5.19017 10.16 5.19017 10.16C5.19017 10.16 5.19017 10.16 5.19017 10.1601C5.19017 10.1601 5.19017 10.1601 5.19017 10.1601C5.19017 10.1602 5.19017 10.1602 5.19017 10.1602C5.19017 10.1602 5.19017 10.1603 5.19017 10.1603C5.19017 10.1603 5.19017 10.1603 5.19017 10.1604C5.19017 10.1604 5.19017 10.1604 5.19017 10.1604C5.19017 10.1605 5.19017 10.1605 5.19017 10.1605C5.19017 10.1605 5.19017 10.1606 5.19017 10.1606C5.19017 10.1606 5.19017 10.1606 5.19017 10.1607C5.19017 10.1607 5.19017 10.1607 5.19017 10.1607C5.19017 10.1608 5.19017 10.1608 5.19017 10.1608C5.19017 10.1608 5.19017 10.1609 5.19017 10.1609C5.19017 10.1609 5.19017 10.1609 5.19017 10.161C5.19017 10.161 5.19017 10.161 5.19017 10.161C5.19017 10.1611 5.19017 10.1611 5.19017 10.1611C5.19017 10.1611 5.19017 10.1612 5.19017 10.1612C5.19017 10.1612 5.19017 10.1612 5.19017 10.1613C5.19017 10.1613 5.19017 10.1613 5.19017 10.1613C5.19017 10.1614 5.19017 10.1614 5.19017 10.1614C5.19017 10.1614 5.19017 10.1615 5.19017 10.1615C5.19017 10.1615 5.19017 10.1615 5.19017 10.1616C5.19017 10.1616 5.19017 10.1616 5.19017 10.1616C5.19017 10.1617 5.19017 10.1617 5.19017 10.1617C5.19017 10.1617 5.19017 10.1618 5.19017 10.1618C5.19017 10.1618 5.19017 10.1618 5.19017 10.1619C5.19017 10.1619 5.19017 10.1619 5.19017 10.1619C5.19017 10.162 5.19017 10.162 5.19017 10.162C5.19017 10.162 5.19017 10.1621 5.19017 10.1621C5.19017 10.1621 5.19017 10.1621 5.19017 10.1622C5.19017 10.1622 5.19017 10.1622 5.19017 10.1622C5.19017 10.1623 5.19017 10.1623 5.19017 10.1623C5.19017 10.1623 5.19017 10.1624 5.19017 10.1624C5.19017 10.1624 5.19017 10.1624 5.19017 10.1625C5.19017 10.1625 5.19017 10.1625 5.19017 10.1625C5.19017 10.1626 5.19017 10.1626 5.19017 10.1626C5.19017 10.1626 5.19017 10.1627 5.19017 10.1627C5.19017 10.1627 5.19017 10.1627 5.19017 10.1628C5.19017 10.1628 5.19017 10.1628 5.19017 10.1628C5.19017 10.1629 5.19017 10.1629 5.19017 10.1629C5.19017 10.1629 5.19017 10.163 5.19017 10.163C5.19017 10.163 5.19017 10.163 5.19017 10.1631C5.19017 10.1631 5.19017 10.1631 5.19017 10.1631C5.19017 10.1632 5.19017 10.1632 5.19017 10.1632C5.19017 10.1632 5.19017 10.1633 5.19017 10.1633C5.19017 10.1633 5.19017 10.1633 5.19017 10.1634C5.19017 10.1634 5.19017 10.1634 5.19017 10.1634C5.19017 10.1635 5.19017 10.1635 5.19017 10.1635C5.19017 10.1635 5.19017 10.1636 5.19017 10.1636C5.19017 10.1636 5.19017 10.1636 5.19017 10.1637C5.19017 10.1637 5.19017 10.1637 5.19017 10.1637C5.19017 10.1638 5.19017 10.1638 5.19017 10.1638C5.19017 10.1638 5.19017 10.1639 5.19017 10.1639C5.19017 10.1639 5.19017 10.1639 5.19017 10.164C5.19017 10.164 5.19017 10.164 5.19017 10.164C5.19017 10.1641 5.19017 10.1641 5.19017 10.1641C5.19017 10.1641 5.19017 10.1642 5.19017 10.1642C5.19017 10.1642 5.19017 10.1642 5.19017 10.1643C5.19017 10.1643 5.19017 10.1643 5.19017 10.1643C5.19017 10.1644 5.19017 10.1644 5.19017 10.1644C5.19017 10.1644 5.19017 10.1645 5.19017 10.1645C5.19017 10.1645 5.19017 10.1645 5.19017 10.1646C5.19017 10.1646 5.19017 10.1646 5.19017 10.1646C5.19017 10.1647 5.19017 10.1647 5.19017 10.1647C5.19017 10.1647 5.19017 10.1647 5.19017 10.1648C5.19017 10.1648 5.19017 10.1648 5.19017 10.1648C5.19017 10.1649 5.19017 10.1649 5.19017 10.1649C5.19017 10.1649 5.19017 10.165 5.19017 10.165C5.19017 10.165 5.19017 10.165 5.19017 10.1651C5.19017 10.1651 5.19017 10.1651 5.19017 10.1651C5.19017 10.1652 5.19017 10.1652 5.19017 10.1652C5.19017 10.1652 5.19017 10.1653 5.19017 10.1653C5.19017 10.1653 5.19017 10.1653 5.19017 10.1654C5.19017 10.1654 5.19017 10.1654 5.19017 10.1654C5.19017 10.1655 5.19017 10.1655 5.19017 10.1655C5.19017 10.1655 5.19017 10.1656 5.19017 10.1656C5.19017 10.1656 5.19017 10.1656 5.19017 10.1657C5.19017 10.1657 5.19017 10.1657 5.19017 10.1657C5.19017 10.1658 5.19017 10.1658 5.19017 10.1658C5.19017 10.1658 5.19017 10.1659 5.19017 10.1659C5.19017 10.1659 5.19017 10.1659 5.19017 10.166C5.19017 10.166 5.19017 10.166 5.19017 10.166C5.19017 10.1661 5.19017 10.1661 5.19017 10.1661C5.19017 10.1661 5.19017 10.1662 5.19017 10.1662C5.19017 10.1662 5.19017 10.1662 5.19017 10.1663C5.19017 10.1663 5.19017 10.1663 5.19017 10.1663C5.19017 10.1664 5.19017 10.1664 5.19017 10.1664C5.19017 10.1664 5.19017 10.1665 5.19017 10.1665C5.19017 10.1665 5.19017 10.1665 5.19017 10.1666C5.19017 10.1666 5.19017 10.1666 5.19017 10.1666C5.19017 10.1667 5.19017 10.1667 5.19017 10.1667C5.19017 10.1667 5.19017 10.1668 5.19017 10.1668C5.19017 10.1668 5.19017 10.1668 5.19017 10.1669C5.19017 10.1669 5.19017 10.1669 5.19017 10.1669C5.19017 10.167 5.19017 10.167 5.19017 10.167C5.19017 10.167 5.19017 10.1671 5.19017 10.1671C5.19017 10.1671 5.19017 10.1671 5.19017 10.1672C5.19017 10.1672 5.19017 10.1672 5.19017 10.1672C5.19017 10.1673 5.19017 10.1673 5.19017 10.1673C5.19017 10.1673 5.19017 10.1674 5.19017 10.1674C5.19017 10.1674 5.19017 10.1674 5.19017 10.1675C5.19017 10.1675 5.19017 10.1675 5.19017 10.1675C5.19017 10.1676 5.19017 10.1676 5.19017 10.1676C5.19017 10.1676 5.19017 10.1677 5.19017 10.1677C5.19017 10.1677 5.19017 10.1677 5.19017 10.1678C5.19017 10.1678 5.19017 10.1678 5.19017 10.1678C5.19017 10.1679 5.19017 10.1679 5.19017 10.1679C5.19017 10.1679 5.19017 10.168 5.19017 10.168C5.19017 10.168 5.19017 10.168 5.19017 10.1681C5.19017 10.1681 5.19017 10.1681 5.19017 10.1681C5.19017 10.1682 5.19017 10.1682 5.19017 10.1682C5.19017 10.1682 5.19017 10.1683 5.19017 10.1683C5.19017 10.1683 5.19017 10.1683 5.19017 10.1684C5.19017 10.1684 5.19017 10.1684 5.19017 10.1684C5.19017 10.1685 5.19017 10.1685 5.19017 10.1685C5.19017 10.1685 5.19017 10.1686 5.19017 10.1686C5.19017 10.1686 5.19017 10.1686 5.19017 10.1687C5.19017 10.1687 5.19017 10.1687 5.19017 10.1687C5.19017 10.1688 5.19017 10.1688 5.19017 10.1688C5.19017 10.1688 5.19017 10.1689 5.19017 10.1689C5.19017 10.1689 5.19017 10.1689 5.19017 10.169C5.19017 10.169 5.19017 10.169 5.19017 10.169C5.19017 10.1691 5.19017 10.1691 5.19017 10.1691C5.19017 10.1691 5.19017 10.1692 5.19017 10.1692C5.19017 10.1692 5.19017 10.1692 5.19017 10.1693C5.19017 10.1693 5.19017 10.1693 5.19017 10.1693C5.19017 10.1694 5.19017 10.1694 5.19017 10.1694C5.19017 10.1694 5.19017 10.1695 5.19017 10.1695C5.19017 10.1695 5.19017 10.1695 5.19017 10.1696C5.19017 10.1696 5.19017 10.1696 5.19017 10.1696C5.19017 10.1697 5.19017 10.1697 5.19017 10.1697C5.19017 10.1697 5.19017 10.1698 5.19017 10.1698C5.19017 10.1698 5.19017 10.1698 5.19017 10.1699C5.19017 10.1699 5.19017 10.1699 5.19017 10.1699C5.19017 10.17 5.19017 10.17 5.19017 10.17C5.19017 10.17 5.19017 10.1701 5.19017 10.1701C5.19017 10.1701 5.19017 10.1701 5.19017 10.1702C5.19017 10.1702 5.19017 10.1702 5.19017 10.1702C5.19017 10.1703 5.19017 10.1703 5.19017 10.1703C5.19017 10.1703 5.19017 10.1704 5.19017 10.1704C5.19017 10.1704 5.19017 10.1704 5.19017 10.1705C5.19017 10.1705 5.19017 10.1705 5.19017 10.1705C5.19017 10.1706 5.19017 10.1706 5.19017 10.1706C5.19017 10.1706 5.19017 10.1707 5.19017 10.1707C5.19017 10.1707 5.19017 10.1707 5.19017 10.1708C5.19017 10.1708 5.19017 10.1708 5.19017 10.1708C5.19017 10.1709 5.19017 10.1709 5.19017 10.1709C5.19017 10.1709 5.19017 10.171 5.19017 10.171C5.19017 10.171 5.19017 10.171 5.19017 10.1711C5.19017 10.1711 5.19017 10.1711 5.19017 10.1711C5.19017 10.1712 5.19017 10.1712 5.19017 10.1712C5.19017 10.1712 5.19017 10.1713 5.19017 10.1713C5.19017 10.1713 5.19017 10.1713 5.19017 10.1714C5.19017 10.1714 5.19017 10.1714 5.19017 10.1714C5.19017 10.1715 5.19017 10.1715 5.19017 10.1715C5.19017 10.1715 5.19017 10.1716 5.19017 10.1716C5.19017 10.1716 5.19017 10.1716 5.19017 10.1717C5.19017 10.1717 5.19017 10.1717 5.19017 10.1717C5.19017 10.1718 5.19017 10.1718 5.19017 10.1718C5.19017 10.1718 5.19017 10.1719 5.19017 10.1719C5.19017 10.1719 5.19017 10.1719 5.19017 10.172C5.19017 10.172 5.19017 10.172 5.19017 10.172C5.19017 10.1721 5.19017 10.1721 5.19017 10.1721C5.19017 10.1721 5.19017 10.1722 5.19017 10.1722C5.19017 10.1722 5.19017 10.1722 5.19017 10.1722C5.19017 10.1723 5.19017 10.1723 5.19017 10.1723C5.19017 10.1723 5.19017 10.1724 5.19017 10.1724C5.19017 10.1724 5.19017 10.1724 5.19017 10.1725C5.19017 10.1725 5.19017 10.1725 5.19017 10.1725C5.19017 10.1726 5.19017 10.1726 5.19017 10.1726C5.19017 10.1726 5.19017 10.1727 5.19017 10.1727C5.19017 10.1727 5.19017 10.1727 5.19017 10.1728C5.19017 10.1728 5.19017 10.1728 5.19017 10.1728C5.19017 10.1729 5.19017 10.1729 5.19017 10.1729C5.19017 10.1729 5.19017 10.173 5.19017 10.173C5.19017 10.173 5.19017 10.173 5.19017 10.1731C5.19017 10.1731 5.19017 10.1731 5.19017 10.1731C5.19017 10.1732 5.19017 10.1732 5.19017 10.1732C5.19017 10.1732 5.19017 10.1733 5.19017 10.1733C5.19017 10.1733 5.19017 10.1733 5.19017 10.1734C5.19017 10.1734 5.19017 10.1734 5.19017 10.1734C5.19017 10.1735 5.19017 10.1735 5.19017 10.1735C5.19017 10.1735 5.19017 10.1736 5.19017 10.1736C5.19017 10.1736 5.19017 10.1736 5.19017 10.1737C5.19017 10.1737 5.19017 10.1737 5.19017 10.1737C5.19017 10.1738 5.19017 10.1738 5.19017 10.1738C5.19017 10.1738 5.19017 10.1739 5.19017 10.1739C5.19017 10.1739 5.19017 10.1739 5.19017 10.174C5.19017 10.174 5.19017 10.174 5.19017 10.174C5.19017 10.1741 5.19017 10.1741 5.19017 10.1741C5.19017 10.1741 5.19017 10.1742 5.19017 10.1742C5.19017 10.1742 5.19017 10.1742 5.19017 10.1743C5.19017 10.1743 5.19017 10.1743 5.19017 10.1743C5.19017 10.1744 5.19017 10.1744 5.19017 10.1744C5.19017 10.1744 5.19017 10.1745 5.19017 10.1745C5.19017 10.1745 5.19017 10.1745 5.19017 10.1746C5.19017 10.1746 5.19017 10.1746 5.19017 10.1746C5.19017 10.1747 5.19017 10.1747 5.19017 10.1747C5.19017 10.1747 5.19017 10.1748 5.19017 10.1748C5.19017 10.1748 5.19017 10.1748 5.19017 10.1749C5.19017 10.1749 5.19017 10.1749 5.19017 10.1749C5.19017 10.175 5.19017 10.175 5.19017 10.175C5.19017 10.175 5.19017 10.1751 5.19017 10.1751C5.19017 10.1751 5.19017 10.1751 5.19017 10.1752C5.19017 10.1752 5.19017 10.1752 5.19017 10.1752C5.19017 10.1753 5.19017 10.1753 5.19017 10.1753C5.19017 10.1753 5.19017 10.1754 5.19017 10.1754C5.19017 10.1754 5.19017 10.1754 5.19017 10.1755C5.19017 10.1755 5.19017 10.1755 5.19017 10.1755C5.19017 10.1756 5.19017 10.1756 5.19017 10.1756C5.19017 10.1756 5.19017 10.1757 5.19017 10.1757C5.19017 10.1757 5.19017 10.1757 5.19017 10.1758C5.19017 10.1758 5.19017 10.1758 5.19017 10.1758C5.19017 10.1759 5.19017 10.1759 5.19017 10.1759C5.19017 10.1759 5.19017 10.176 5.19017 10.176C5.19017 10.176 5.19017 10.176 5.19017 10.1761C5.19017 10.1761 5.19017 10.1761 5.19017 10.1761C5.19017 10.1762 5.19017 10.1762 5.19017 10.1762C5.19017 10.1762 5.19017 10.1763 5.19017 10.1763C5.19017 10.1763 5.19017 10.1763 5.19017 10.1764C5.19017 10.1764 5.19017 10.1764 5.19017 10.1764C5.19017 10.1765 5.19017 10.1765 5.19017 10.1765C5.19017 10.1765 5.19017 10.1766 5.19017 10.1766C5.19017 10.1766 5.19017 10.1766 5.19017 10.1767C5.19017 10.1767 5.19017 10.1767 5.19017 10.1767C5.19017 10.1768 5.19017 10.1768 5.19017 10.1768C5.19017 10.1768 5.19017 10.1769 5.19017 10.1769C5.19017 10.1769 5.19017 10.1769 5.19017 10.177C5.19017 10.177 5.19017 10.177 5.19017 10.177C5.19017 10.1771 5.19017 10.1771 5.19017 10.1771C5.19017 10.1771 5.19017 10.1772 5.19017 10.1772C5.19017 10.1772 5.19017 10.1772 5.19017 10.1773C5.19017 10.1773 5.19017 10.1773 5.19017 10.1773C5.19017 10.1774 5.19017 10.1774 5.19017 10.1774C5.19017 10.1774 5.19017 10.1775 5.19017 10.1775C5.19017 10.1775 5.19017 10.1775 5.19017 10.1776C5.19017 10.1776 5.19017 10.1776 5.19017 10.1776C5.19017 10.1777 5.19017 10.1777 5.19017 10.1777C5.19017 10.1777 5.19017 10.1778 5.19017 10.1778C5.19017 10.1778 5.19017 10.1778 5.19017 10.1779C5.19017 10.1779 5.19017 10.1779 5.19017 10.1779C5.19017 10.178 5.19017 10.178 5.19017 10.178C5.19017 10.178 5.19017 10.1781 5.19017 10.1781C5.19017 10.1781 5.19017 10.1781 5.19017 10.1782C5.19017 10.1782 5.19017 10.1782 5.19017 10.1782C5.19017 10.1783 5.19017 10.1783 5.19017 10.1783C5.19017 10.1783 5.19017 10.1784 5.19017 10.1784C5.19017 10.1784 5.19017 10.1784 5.19017 10.1785C5.19017 10.1785 5.19017 10.1785 5.19017 10.1785C5.19017 10.1786 5.19017 10.1786 5.19017 10.1786C5.19017 10.1786 5.19017 10.1787 5.19017 10.1787C5.19017 10.1787 5.19017 10.1787 5.19017 10.1788C5.19017 10.1788 5.19017 10.1788 5.19017 10.1788C5.19017 10.1789 5.19017 10.1789 5.19017 10.1789C5.19017 10.1789 5.19017 10.179 5.19017 10.179C5.19017 10.179 5.19017 10.179 5.19017 10.1791C5.19017 10.1791 5.19017 10.1791 5.19017 10.1791C5.19017 10.1792 5.19017 10.1792 5.19017 10.1792C5.19017 10.1792 5.19017 10.1793 5.19017 10.1793C5.19017 10.1793 5.19017 10.1793 5.19017 10.1794C5.19017 10.1794 5.19017 10.1794 5.19017 10.1794C5.19017 10.1795 5.19017 10.1795 5.19017 10.1795C5.19017 10.1795 5.19017 10.1796 5.19017 10.1796C5.19017 10.1796 5.19017 10.1796 5.19017 10.1797C5.19017 10.1797 5.19017 10.1797 5.19017 10.1797C5.19017 10.1797 5.19017 10.1798 5.19017 10.1798C5.19017 10.1798 5.19017 10.1798 5.19017 10.1799C5.19017 10.1799 5.19017 10.1799 5.19017 10.1799C5.19017 10.18 5.19017 10.18 5.19017 10.18C5.19017 10.18 5.19017 10.1801 5.19017 10.1801C5.19017 10.1801 5.19017 10.1801 5.19017 10.1802C5.19017 10.1802 5.19017 10.1802 5.19017 10.1802C5.19017 10.1803 5.19017 10.1803 5.19017 10.1803C5.19017 10.1803 5.19017 10.1804 5.19017 10.1804C5.19017 10.1804 5.19017 10.1804 5.19017 10.1805C5.19017 10.1805 5.19017 10.1805 5.19017 10.1805C5.19017 10.1806 5.19017 10.1806 5.19017 10.1806C5.19017 10.1806 5.19017 10.1807 5.19017 10.1807C5.19017 10.1807 5.19017 10.1807 5.19017 10.1808C5.19017 10.1808 5.19017 10.1808 5.19017 10.1808C5.19017 10.1809 5.19017 10.1809 5.19017 10.1809C5.19017 10.1809 5.19017 10.181 5.19017 10.181C5.19017 10.181 5.19017 10.181 5.19017 10.1811C5.19017 10.1811 5.19017 10.1811 5.19017 10.1811C5.19017 10.1812 5.19017 10.1812 5.19017 10.1812C5.19017 10.1812 5.19017 10.1813 5.19017 10.1813C5.19017 10.1813 5.19017 10.1813 5.19017 10.1814C5.19017 10.1814 5.19017 10.1814 5.19017 10.1814C5.19017 10.1815 5.19017 10.1815 5.19017 10.1815C5.19017 10.1815 5.19017 10.1816 5.19017 10.1816C5.19017 10.1816 5.19017 10.1816 5.19017 10.1817C5.19017 10.1817 5.19017 10.1817 5.19017 10.1817C5.19017 10.1818 5.19017 10.1818 5.19017 10.1818C5.19017 10.1818 5.19017 10.1819 5.19017 10.1819C5.19017 10.1819 5.19017 10.1819 5.19017 10.182C5.19017 10.182 5.19017 10.182 5.19017 10.182C5.19017 10.1821 5.19017 10.1821 5.19017 10.1821C5.19017 10.1821 5.19017 10.1822 5.19017 10.1822C5.19017 10.1822 5.19017 10.1822 5.19017 10.1823C5.19017 10.1823 5.19017 10.1823 5.19017 10.1823C5.19017 10.1824 5.19017 10.1824 5.19017 10.1824C5.19017 10.1824 5.19017 10.1825 5.19017 10.1825C5.19017 10.1825 5.19017 10.1825 5.19017 10.1826C5.19017 10.1826 5.19017 10.1826 5.19017 10.1826C5.19017 10.1827 5.19017 10.1827 5.19017 10.1827C5.19017 10.1827 5.19017 10.1828 5.19017 10.1828C5.19017 10.1828 5.19017 10.1828 5.19017 10.1829C5.19017 10.1829 5.19017 10.1829 5.19017 10.1829C5.19017 10.183 5.19017 10.183 5.19017 10.183C5.19017 10.183 5.19017 10.1831 5.19017 10.1831C5.19017 10.1831 5.19017 10.1831 5.19017 10.1832C5.19017 10.1832 5.19017 10.1832 5.19017 10.1832C5.19017 10.1833 5.19017 10.1833 5.19017 10.1833C5.19017 10.1833 5.19017 10.1834 5.19017 10.1834C5.19017 10.1834 5.19017 10.1834 5.19017 10.1835C5.19017 10.1835 5.19017 10.1835 5.19017 10.1835C5.19017 10.1836 5.19017 10.1836 5.19017 10.1836C5.19017 10.1836 5.19017 10.1837 5.19017 10.1837C5.19017 10.1837 5.19017 10.1837 5.19017 10.1838C5.19017 10.1838 5.19017 10.1838 5.19017 10.1838C5.19017 10.1839 5.19017 10.1839 5.19017 10.1839C5.19017 10.1839 5.19017 10.184 5.19017 10.184C5.19017 10.184 5.19017 10.184 5.19017 10.1841C5.19017 10.1841 5.19017 10.1841 5.19017 10.1841C5.19017 10.1842 5.19017 10.1842 5.19017 10.1842C5.19017 10.1842 5.19017 10.1843 5.19017 10.1843C5.19017 10.1843 5.19017 10.1843 5.19017 10.1844C5.19017 10.1844 5.19017 10.1844 5.19017 10.1844C5.19017 10.1845 5.19017 10.1845 5.19017 10.1845C5.19017 10.1845 5.19017 10.1846 5.19017 10.1846C5.19017 10.1846 5.19017 10.1846 5.19017 10.1847C5.19017 10.1847 5.19017 10.1847 5.19017 10.1847C5.19017 10.1848 5.19017 10.1848 5.19017 10.1848C5.19017 10.1848 5.19017 10.1849 5.19017 10.1849C5.19017 10.1849 5.19017 10.1849 5.19017 10.185C5.19017 10.185 5.19017 10.185 5.19017 10.185C5.19017 10.1851 5.19017 10.1851 5.19017 10.1851C5.19017 10.1851 5.19017 10.1852 5.19017 10.1852C5.19017 10.1852 5.19017 10.1852 5.19017 10.1853C5.19017 10.1853 5.19017 10.1853 5.19017 10.1853C5.19017 10.1854 5.19017 10.1854 5.19017 10.1854C5.19017 10.1854 5.19017 10.1855 5.19017 10.1855C5.19017 10.1855 5.19017 10.1855 5.19017 10.1856C5.19017 10.1856 5.19017 10.1856 5.19017 10.1856C5.19017 10.1857 5.19017 10.1857 5.19017 10.1857C5.19017 10.1857 5.19017 10.1858 5.19017 10.1858C5.19017 10.1858 5.19017 10.1858 5.19017 10.1859C5.19017 10.1859 5.19017 10.1859 5.19017 10.1859C5.19017 10.186 5.19017 10.186 5.19017 10.186C5.19017 10.186 5.19017 10.1861 5.19017 10.1861C5.19017 10.1861 5.19017 10.1861 5.19017 10.1862C5.19017 10.1862 5.19017 10.1862 5.19017 10.1862C5.19017 10.1863 5.19017 10.1863 5.19017 10.1863C5.19017 10.1863 5.19017 10.1864 5.19017 10.1864C5.19017 10.1864 5.19017 10.1864 5.19017 10.1865C5.19017 10.1865 5.19017 10.1865 5.19017 10.1865C5.19017 10.1866 5.19017 10.1866 5.19017 10.1866C5.19017 10.1866 5.19017 10.1867 5.19017 10.1867C5.19017 10.1867 5.19017 10.1867 5.19017 10.1868C5.19017 10.1868 5.19017 10.1868 5.19017 10.1868C5.19017 10.1869 5.19017 10.1869 5.19017 10.1869C5.19017 10.1869 5.19017 10.187 5.19017 10.187C5.19017 10.187 5.19017 10.187 5.19017 10.1871C5.19017 10.1871 5.19017 10.1871 5.19017 10.1871C5.19017 10.1871 5.19017 10.1872 5.19017 10.1872C5.19017 10.1872 5.19017 10.1872 5.19017 10.1873C5.19017 10.1873 5.19017 10.1873 5.19017 10.1873C5.19017 10.1874 5.19017 10.1874 5.19017 10.1874C5.19017 10.1874 5.19017 10.1875 5.19017 10.1875C5.19017 10.1875 5.19017 10.1875 5.19017 10.1876C5.19017 10.1876 5.19017 10.1876 5.19017 10.1876C5.19017 10.1877 5.19017 10.1877 5.19017 10.1877C5.19017 10.1877 5.19017 10.1878 5.19017 10.1878C5.19017 10.1878 5.19017 10.1878 5.19017 10.1879C5.19017 10.1879 5.19017 10.1879 5.19017 10.1879C5.19017 10.188 5.19017 10.188 5.19017 10.188C5.19017 10.188 5.19017 10.1881 5.19017 10.1881C5.19017 10.1881 5.19017 10.1881 5.19017 10.1882C5.19017 10.1882 5.19017 10.1882 5.19017 10.1882C5.19017 10.1883 5.19017 10.1883 5.19017 10.1883C5.19017 10.1883 5.19017 10.1884 5.19017 10.1884C5.19017 10.1884 5.19017 10.1884 5.19017 10.1885C5.19017 10.1885 5.19017 10.1885 5.19017 10.1885C5.19017 10.1886 5.19017 10.1886 5.19017 10.1886C5.19017 10.1886 5.19017 10.1887 5.19017 10.1887C5.19017 10.1887 5.19017 10.1887 5.19017 10.1888C5.19017 10.1888 5.19017 10.1888 5.19017 10.1888C5.19017 10.1889 5.19017 10.1889 5.19017 10.1889C5.19017 10.1889 5.19017 10.189 5.19017 10.189C5.19017 10.189 5.19017 10.189 5.19017 10.1891C5.19017 10.1891 5.19017 10.1891 5.19017 10.1891C5.19017 10.1892 5.19017 10.1892 5.19017 10.1892C5.19017 10.1892 5.19017 10.1893 5.19017 10.1893C5.19017 10.1893 5.19017 10.1893 5.19017 10.1894C5.19017 10.1894 5.19017 10.1894 5.19017 10.1894C5.19017 10.1895 5.19017 10.1895 5.19017 10.1895C5.19017 10.1895 5.19017 10.1896 5.19017 10.1896C5.19017 10.1896 5.19017 10.1896 5.19017 10.1897C5.19017 10.1897 5.19017 10.1897 5.19017 10.1897C5.19017 10.1898 5.19017 10.1898 5.19017 10.1898C5.19017 10.1898 5.19017 10.1899 5.19017 10.1899C5.19017 10.1899 5.19017 10.1899 5.19017 10.19C5.19017 10.19 5.19017 10.19 5.19017 10.19C5.19017 10.1901 5.19017 10.1901 5.19017 10.1901C5.19017 10.1901 5.19017 10.1902 5.19017 10.1902C5.19017 10.1902 5.19017 10.1902 5.19017 10.1903C5.19017 10.1903 5.19017 10.1903 5.19017 10.1903C5.19017 10.1904 5.19017 10.1904 5.19017 10.1904C5.19017 10.1904 5.19017 10.1905 5.19017 10.1905C5.19017 10.1905 5.19017 10.1905 5.19017 10.1906C5.19017 10.1906 5.19017 10.1906 5.19017 10.1906C5.19017 10.1907 5.19017 10.1907 5.19017 10.1907C5.19017 10.1907 5.19017 10.1908 5.19017 10.1908C5.19017 10.1908 5.19017 10.1908 5.19017 10.1909C5.19017 10.1909 5.19017 10.1909 5.19017 10.1909C5.19017 10.191 5.19017 10.191 5.19017 10.191C5.19017 10.191 5.19017 10.1911 5.19017 10.1911C5.19017 10.1911 5.19017 10.1911 5.19017 10.1912C5.19017 10.1912 5.19017 10.1912 5.19017 10.1912C5.19017 10.1913 5.19017 10.1913 5.19017 10.1913C5.19017 10.1913 5.19017 10.1914 5.19017 10.1914C5.19017 10.1914 5.19017 10.1914 5.19017 10.1915C5.19017 10.1915 5.19017 10.1915 5.19017 10.1915C5.19017 10.1916 5.19017 10.1916 5.19017 10.1916C5.19017 10.1916 5.19017 10.1917 5.19017 10.1917C5.19017 10.1917 5.19017 10.1917 5.19017 10.1918C5.19017 10.1918 5.19017 10.1918 5.19017 10.1918C5.19017 10.1919 5.19017 10.1919 5.19017 10.1919C5.19017 10.1919 5.19017 10.192 5.19017 10.192C5.19017 10.192 5.19017 10.192 5.19017 10.1921C5.19017 10.1921 5.19017 10.1921 5.19017 10.1921C5.19017 10.1922 5.19017 10.1922 5.19017 10.1922C5.19017 10.1922 5.19017 10.1923 5.19017 10.1923C5.19017 10.1923 5.19017 10.1923 5.19017 10.1924C5.19017 10.1924 5.19017 10.1924 5.19017 10.1924C5.19017 10.1925 5.19017 10.1925 5.19017 10.1925C5.19017 10.1925 5.19017 10.1926 5.19017 10.1926C5.19017 10.1926 5.19017 10.1926 5.19017 10.1927C5.19017 10.1927 5.19017 10.1927 5.19017 10.1927C5.19017 10.1928 5.19017 10.1928 5.19017 10.1928C5.19017 10.1928 5.19017 10.1929 5.19017 10.1929C5.19017 10.1929 5.19017 10.1929 5.19017 10.193H6.25329C6.25329 10.1929 6.25329 10.1929 6.25329 10.1929C6.25329 10.1929 6.25329 10.1928 6.25329 10.1928C6.25329 10.1928 6.25329 10.1928 6.25329 10.1927C6.25329 10.1927 6.25329 10.1927 6.25329 10.1927C6.25329 10.1926 6.25329 10.1926 6.25329 10.1926C6.25329 10.1926 6.25329 10.1925 6.25329 10.1925C6.25329 10.1925 6.25329 10.1925 6.25329 10.1924C6.25329 10.1924 6.25329 10.1924 6.25329 10.1924C6.25329 10.1923 6.25329 10.1923 6.25329 10.1923C6.25329 10.1923 6.25329 10.1922 6.25329 10.1922C6.25329 10.1922 6.25329 10.1922 6.25329 10.1921C6.25329 10.1921 6.25329 10.1921 6.25329 10.1921C6.25329 10.192 6.25329 10.192 6.25329 10.192C6.25329 10.192 6.25329 10.1919 6.25329 10.1919C6.25329 10.1919 6.25329 10.1919 6.25329 10.1918C6.25329 10.1918 6.25329 10.1918 6.25329 10.1918C6.25329 10.1917 6.25329 10.1917 6.25329 10.1917C6.25329 10.1917 6.25329 10.1916 6.25329 10.1916C6.25329 10.1916 6.25329 10.1916 6.25329 10.1915C6.25329 10.1915 6.25329 10.1915 6.25329 10.1915C6.25329 10.1914 6.25329 10.1914 6.25329 10.1914C6.25329 10.1914 6.25329 10.1913 6.25329 10.1913C6.25329 10.1913 6.25329 10.1913 6.25329 10.1912C6.25329 10.1912 6.25329 10.1912 6.25329 10.1912C6.25329 10.1911 6.25329 10.1911 6.25329 10.1911C6.25329 10.1911 6.25329 10.191 6.25329 10.191C6.25329 10.191 6.25329 10.191 6.25329 10.1909C6.25329 10.1909 6.25329 10.1909 6.25329 10.1909C6.25329 10.1908 6.25329 10.1908 6.25329 10.1908C6.25329 10.1908 6.25329 10.1907 6.25329 10.1907C6.25329 10.1907 6.25329 10.1907 6.25329 10.1906C6.25329 10.1906 6.25329 10.1906 6.25329 10.1906C6.25329 10.1905 6.25329 10.1905 6.25329 10.1905C6.25329 10.1905 6.25329 10.1904 6.25329 10.1904C6.25329 10.1904 6.25329 10.1904 6.25329 10.1903C6.25329 10.1903 6.25329 10.1903 6.25329 10.1903C6.25329 10.1902 6.25329 10.1902 6.25329 10.1902C6.25329 10.1902 6.25329 10.1901 6.25329 10.1901C6.25329 10.1901 6.25329 10.1901 6.25329 10.19C6.25329 10.19 6.25329 10.19 6.25329 10.19C6.25329 10.1899 6.25329 10.1899 6.25329 10.1899C6.25329 10.1899 6.25329 10.1898 6.25329 10.1898C6.25329 10.1898 6.25329 10.1898 6.25329 10.1897C6.25329 10.1897 6.25329 10.1897 6.25329 10.1897C6.25329 10.1896 6.25329 10.1896 6.25329 10.1896C6.25329 10.1896 6.25329 10.1895 6.25329 10.1895C6.25329 10.1895 6.25329 10.1895 6.25329 10.1894C6.25329 10.1894 6.25329 10.1894 6.25329 10.1894C6.25329 10.1893 6.25329 10.1893 6.25329 10.1893C6.25329 10.1893 6.25329 10.1892 6.25329 10.1892C6.25329 10.1892 6.25329 10.1892 6.25329 10.1891C6.25329 10.1891 6.25329 10.1891 6.25329 10.1891C6.25329 10.189 6.25329 10.189 6.25329 10.189C6.25329 10.189 6.25329 10.1889 6.25329 10.1889C6.25329 10.1889 6.25329 10.1889 6.25329 10.1888C6.25329 10.1888 6.25329 10.1888 6.25329 10.1888C6.25329 10.1887 6.25329 10.1887 6.25329 10.1887C6.25329 10.1887 6.25329 10.1886 6.25329 10.1886C6.25329 10.1886 6.25329 10.1886 6.25329 10.1885C6.25329 10.1885 6.25329 10.1885 6.25329 10.1885C6.25329 10.1884 6.25329 10.1884 6.25329 10.1884C6.25329 10.1884 6.25329 10.1883 6.25329 10.1883C6.25329 10.1883 6.25329 10.1883 6.25329 10.1882C6.25329 10.1882 6.25329 10.1882 6.25329 10.1882C6.25329 10.1881 6.25329 10.1881 6.25329 10.1881C6.25329 10.1881 6.25329 10.188 6.25329 10.188C6.25329 10.188 6.25329 10.188 6.25329 10.1879C6.25329 10.1879 6.25329 10.1879 6.25329 10.1879C6.25329 10.1878 6.25329 10.1878 6.25329 10.1878C6.25329 10.1878 6.25329 10.1877 6.25329 10.1877C6.25329 10.1877 6.25329 10.1877 6.25329 10.1876C6.25329 10.1876 6.25329 10.1876 6.25329 10.1876C6.25329 10.1875 6.25329 10.1875 6.25329 10.1875C6.25329 10.1875 6.25329 10.1874 6.25329 10.1874C6.25329 10.1874 6.25329 10.1874 6.25329 10.1873C6.25329 10.1873 6.25329 10.1873 6.25329 10.1873C6.25329 10.1872 6.25329 10.1872 6.25329 10.1872C6.25329 10.1872 6.25329 10.1871 6.25329 10.1871C6.25329 10.1871 6.25329 10.1871 6.25329 10.1871C6.25329 10.187 6.25329 10.187 6.25329 10.187C6.25329 10.187 6.25329 10.1869 6.25329 10.1869C6.25329 10.1869 6.25329 10.1869 6.25329 10.1868C6.25329 10.1868 6.25329 10.1868 6.25329 10.1868C6.25329 10.1867 6.25329 10.1867 6.25329 10.1867C6.25329 10.1867 6.25329 10.1866 6.25329 10.1866C6.25329 10.1866 6.25329 10.1866 6.25329 10.1865C6.25329 10.1865 6.25329 10.1865 6.25329 10.1865C6.25329 10.1864 6.25329 10.1864 6.25329 10.1864C6.25329 10.1864 6.25329 10.1863 6.25329 10.1863C6.25329 10.1863 6.25329 10.1863 6.25329 10.1862C6.25329 10.1862 6.25329 10.1862 6.25329 10.1862C6.25329 10.1861 6.25329 10.1861 6.25329 10.1861C6.25329 10.1861 6.25329 10.186 6.25329 10.186C6.25329 10.186 6.25329 10.186 6.25329 10.1859C6.25329 10.1859 6.25329 10.1859 6.25329 10.1859C6.25329 10.1858 6.25329 10.1858 6.25329 10.1858C6.25329 10.1858 6.25329 10.1857 6.25329 10.1857C6.25329 10.1857 6.25329 10.1857 6.25329 10.1856C6.25329 10.1856 6.25329 10.1856 6.25329 10.1856C6.25329 10.1855 6.25329 10.1855 6.25329 10.1855C6.25329 10.1855 6.25329 10.1854 6.25329 10.1854C6.25329 10.1854 6.25329 10.1854 6.25329 10.1853C6.25329 10.1853 6.25329 10.1853 6.25329 10.1853C6.25329 10.1852 6.25329 10.1852 6.25329 10.1852C6.25329 10.1852 6.25329 10.1851 6.25329 10.1851C6.25329 10.1851 6.25329 10.1851 6.25329 10.185C6.25329 10.185 6.25329 10.185 6.25329 10.185C6.25329 10.1849 6.25329 10.1849 6.25329 10.1849C6.25329 10.1849 6.25329 10.1848 6.25329 10.1848C6.25329 10.1848 6.25329 10.1848 6.25329 10.1847C6.25329 10.1847 6.25329 10.1847 6.25329 10.1847C6.25329 10.1846 6.25329 10.1846 6.25329 10.1846C6.25329 10.1846 6.25329 10.1845 6.25329 10.1845C6.25329 10.1845 6.25329 10.1845 6.25329 10.1844C6.25329 10.1844 6.25329 10.1844 6.25329 10.1844C6.25329 10.1843 6.25329 10.1843 6.25329 10.1843C6.25329 10.1843 6.25329 10.1842 6.25329 10.1842C6.25329 10.1842 6.25329 10.1842 6.25329 10.1841C6.25329 10.1841 6.25329 10.1841 6.25329 10.1841C6.25329 10.184 6.25329 10.184 6.25329 10.184C6.25329 10.184 6.25329 10.1839 6.25329 10.1839C6.25329 10.1839 6.25329 10.1839 6.25329 10.1838C6.25329 10.1838 6.25329 10.1838 6.25329 10.1838C6.25329 10.1837 6.25329 10.1837 6.25329 10.1837C6.25329 10.1837 6.25329 10.1836 6.25329 10.1836C6.25329 10.1836 6.25329 10.1836 6.25329 10.1835C6.25329 10.1835 6.25329 10.1835 6.25329 10.1835C6.25329 10.1834 6.25329 10.1834 6.25329 10.1834C6.25329 10.1834 6.25329 10.1833 6.25329 10.1833C6.25329 10.1833 6.25329 10.1833 6.25329 10.1832C6.25329 10.1832 6.25329 10.1832 6.25329 10.1832C6.25329 10.1831 6.25329 10.1831 6.25329 10.1831C6.25329 10.1831 6.25329 10.183 6.25329 10.183C6.25329 10.183 6.25329 10.183 6.25329 10.1829C6.25329 10.1829 6.25329 10.1829 6.25329 10.1829C6.25329 10.1828 6.25329 10.1828 6.25329 10.1828C6.25329 10.1828 6.25329 10.1827 6.25329 10.1827C6.25329 10.1827 6.25329 10.1827 6.25329 10.1826C6.25329 10.1826 6.25329 10.1826 6.25329 10.1826C6.25329 10.1825 6.25329 10.1825 6.25329 10.1825C6.25329 10.1825 6.25329 10.1824 6.25329 10.1824C6.25329 10.1824 6.25329 10.1824 6.25329 10.1823C6.25329 10.1823 6.25329 10.1823 6.25329 10.1823C6.25329 10.1822 6.25329 10.1822 6.25329 10.1822C6.25329 10.1822 6.25329 10.1821 6.25329 10.1821C6.25329 10.1821 6.25329 10.1821 6.25329 10.182C6.25329 10.182 6.25329 10.182 6.25329 10.182C6.25329 10.1819 6.25329 10.1819 6.25329 10.1819C6.25329 10.1819 6.25329 10.1818 6.25329 10.1818C6.25329 10.1818 6.25329 10.1818 6.25329 10.1817C6.25329 10.1817 6.25329 10.1817 6.25329 10.1817C6.25329 10.1816 6.25329 10.1816 6.25329 10.1816C6.25329 10.1816 6.25329 10.1815 6.25329 10.1815C6.25329 10.1815 6.25329 10.1815 6.25329 10.1814C6.25329 10.1814 6.25329 10.1814 6.25329 10.1814C6.25329 10.1813 6.25329 10.1813 6.25329 10.1813C6.25329 10.1813 6.25329 10.1812 6.25329 10.1812C6.25329 10.1812 6.25329 10.1812 6.25329 10.1811C6.25329 10.1811 6.25329 10.1811 6.25329 10.1811C6.25329 10.181 6.25329 10.181 6.25329 10.181C6.25329 10.181 6.25329 10.1809 6.25329 10.1809C6.25329 10.1809 6.25329 10.1809 6.25329 10.1808C6.25329 10.1808 6.25329 10.1808 6.25329 10.1808C6.25329 10.1807 6.25329 10.1807 6.25329 10.1807C6.25329 10.1807 6.25329 10.1806 6.25329 10.1806C6.25329 10.1806 6.25329 10.1806 6.25329 10.1805C6.25329 10.1805 6.25329 10.1805 6.25329 10.1805C6.25329 10.1804 6.25329 10.1804 6.25329 10.1804C6.25329 10.1804 6.25329 10.1803 6.25329 10.1803C6.25329 10.1803 6.25329 10.1803 6.25329 10.1802C6.25329 10.1802 6.25329 10.1802 6.25329 10.1802C6.25329 10.1801 6.25329 10.1801 6.25329 10.1801C6.25329 10.1801 6.25329 10.18 6.25329 10.18C6.25329 10.18 6.25329 10.18 6.25329 10.1799C6.25329 10.1799 6.25329 10.1799 6.25329 10.1799C6.25329 10.1798 6.25329 10.1798 6.25329 10.1798C6.25329 10.1798 6.25329 10.1797 6.25329 10.1797C6.25329 10.1797 6.25329 10.1797 6.25329 10.1797C6.25329 10.1796 6.25329 10.1796 6.25329 10.1796C6.25329 10.1796 6.25329 10.1795 6.25329 10.1795C6.25329 10.1795 6.25329 10.1795 6.25329 10.1794C6.25329 10.1794 6.25329 10.1794 6.25329 10.1794C6.25329 10.1793 6.25329 10.1793 6.25329 10.1793C6.25329 10.1793 6.25329 10.1792 6.25329 10.1792C6.25329 10.1792 6.25329 10.1792 6.25329 10.1791C6.25329 10.1791 6.25329 10.1791 6.25329 10.1791C6.25329 10.179 6.25329 10.179 6.25329 10.179C6.25329 10.179 6.25329 10.1789 6.25329 10.1789C6.25329 10.1789 6.25329 10.1789 6.25329 10.1788C6.25329 10.1788 6.25329 10.1788 6.25329 10.1788C6.25329 10.1787 6.25329 10.1787 6.25329 10.1787C6.25329 10.1787 6.25329 10.1786 6.25329 10.1786C6.25329 10.1786 6.25329 10.1786 6.25329 10.1785C6.25329 10.1785 6.25329 10.1785 6.25329 10.1785C6.25329 10.1784 6.25329 10.1784 6.25329 10.1784C6.25329 10.1784 6.25329 10.1783 6.25329 10.1783C6.25329 10.1783 6.25329 10.1783 6.25329 10.1782C6.25329 10.1782 6.25329 10.1782 6.25329 10.1782C6.25329 10.1781 6.25329 10.1781 6.25329 10.1781C6.25329 10.1781 6.25329 10.178 6.25329 10.178C6.25329 10.178 6.25329 10.178 6.25329 10.1779C6.25329 10.1779 6.25329 10.1779 6.25329 10.1779C6.25329 10.1778 6.25329 10.1778 6.25329 10.1778C6.25329 10.1778 6.25329 10.1777 6.25329 10.1777C6.25329 10.1777 6.25329 10.1777 6.25329 10.1776C6.25329 10.1776 6.25329 10.1776 6.25329 10.1776C6.25329 10.1775 6.25329 10.1775 6.25329 10.1775C6.25329 10.1775 6.25329 10.1774 6.25329 10.1774C6.25329 10.1774 6.25329 10.1774 6.25329 10.1773C6.25329 10.1773 6.25329 10.1773 6.25329 10.1773C6.25329 10.1772 6.25329 10.1772 6.25329 10.1772C6.25329 10.1772 6.25329 10.1771 6.25329 10.1771C6.25329 10.1771 6.25329 10.1771 6.25329 10.177C6.25329 10.177 6.25329 10.177 6.25329 10.177C6.25329 10.1769 6.25329 10.1769 6.25329 10.1769C6.25329 10.1769 6.25329 10.1768 6.25329 10.1768C6.25329 10.1768 6.25329 10.1768 6.25329 10.1767C6.25329 10.1767 6.25329 10.1767 6.25329 10.1767C6.25329 10.1766 6.25329 10.1766 6.25329 10.1766C6.25329 10.1766 6.25329 10.1765 6.25329 10.1765C6.25329 10.1765 6.25329 10.1765 6.25329 10.1764C6.25329 10.1764 6.25329 10.1764 6.25329 10.1764C6.25329 10.1763 6.25329 10.1763 6.25329 10.1763C6.25329 10.1763 6.25329 10.1762 6.25329 10.1762C6.25329 10.1762 6.25329 10.1762 6.25329 10.1761C6.25329 10.1761 6.25329 10.1761 6.25329 10.1761C6.25329 10.176 6.25329 10.176 6.25329 10.176C6.25329 10.176 6.25329 10.1759 6.25329 10.1759C6.25329 10.1759 6.25329 10.1759 6.25329 10.1758C6.25329 10.1758 6.25329 10.1758 6.25329 10.1758C6.25329 10.1757 6.25329 10.1757 6.25329 10.1757C6.25329 10.1757 6.25329 10.1756 6.25329 10.1756C6.25329 10.1756 6.25329 10.1756 6.25329 10.1755C6.25329 10.1755 6.25329 10.1755 6.25329 10.1755C6.25329 10.1754 6.25329 10.1754 6.25329 10.1754C6.25329 10.1754 6.25329 10.1753 6.25329 10.1753C6.25329 10.1753 6.25329 10.1753 6.25329 10.1752C6.25329 10.1752 6.25329 10.1752 6.25329 10.1752C6.25329 10.1751 6.25329 10.1751 6.25329 10.1751C6.25329 10.1751 6.25329 10.175 6.25329 10.175C6.25329 10.175 6.25329 10.175 6.25329 10.1749C6.25329 10.1749 6.25329 10.1749 6.25329 10.1749C6.25329 10.1748 6.25329 10.1748 6.25329 10.1748C6.25329 10.1748 6.25329 10.1747 6.25329 10.1747C6.25329 10.1747 6.25329 10.1747 6.25329 10.1746C6.25329 10.1746 6.25329 10.1746 6.25329 10.1746C6.25329 10.1745 6.25329 10.1745 6.25329 10.1745C6.25329 10.1745 6.25329 10.1744 6.25329 10.1744C6.25329 10.1744 6.25329 10.1744 6.25329 10.1743C6.25329 10.1743 6.25329 10.1743 6.25329 10.1743C6.25329 10.1742 6.25329 10.1742 6.25329 10.1742C6.25329 10.1742 6.25329 10.1741 6.25329 10.1741C6.25329 10.1741 6.25329 10.1741 6.25329 10.174C6.25329 10.174 6.25329 10.174 6.25329 10.174C6.25329 10.1739 6.25329 10.1739 6.25329 10.1739C6.25329 10.1739 6.25329 10.1738 6.25329 10.1738C6.25329 10.1738 6.25329 10.1738 6.25329 10.1737C6.25329 10.1737 6.25329 10.1737 6.25329 10.1737C6.25329 10.1736 6.25329 10.1736 6.25329 10.1736C6.25329 10.1736 6.25329 10.1735 6.25329 10.1735C6.25329 10.1735 6.25329 10.1735 6.25329 10.1734C6.25329 10.1734 6.25329 10.1734 6.25329 10.1734C6.25329 10.1733 6.25329 10.1733 6.25329 10.1733C6.25329 10.1733 6.25329 10.1732 6.25329 10.1732C6.25329 10.1732 6.25329 10.1732 6.25329 10.1731C6.25329 10.1731 6.25329 10.1731 6.25329 10.1731C6.25329 10.173 6.25329 10.173 6.25329 10.173C6.25329 10.173 6.25329 10.1729 6.25329 10.1729C6.25329 10.1729 6.25329 10.1729 6.25329 10.1728C6.25329 10.1728 6.25329 10.1728 6.25329 10.1728C6.25329 10.1727 6.25329 10.1727 6.25329 10.1727C6.25329 10.1727 6.25329 10.1726 6.25329 10.1726C6.25329 10.1726 6.25329 10.1726 6.25329 10.1725C6.25329 10.1725 6.25329 10.1725 6.25329 10.1725C6.25329 10.1724 6.25329 10.1724 6.25329 10.1724C6.25329 10.1724 6.25329 10.1723 6.25329 10.1723C6.25329 10.1723 6.25329 10.1723 6.25329 10.1722C6.25329 10.1722 6.25329 10.1722 6.25329 10.1722C6.25329 10.1722 6.25329 10.1721 6.25329 10.1721C6.25329 10.1721 6.25329 10.1721 6.25329 10.172C6.25329 10.172 6.25329 10.172 6.25329 10.172C6.25329 10.1719 6.25329 10.1719 6.25329 10.1719C6.25329 10.1719 6.25329 10.1718 6.25329 10.1718C6.25329 10.1718 6.25329 10.1718 6.25329 10.1717C6.25329 10.1717 6.25329 10.1717 6.25329 10.1717C6.25329 10.1716 6.25329 10.1716 6.25329 10.1716C6.25329 10.1716 6.25329 10.1715 6.25329 10.1715C6.25329 10.1715 6.25329 10.1715 6.25329 10.1714C6.25329 10.1714 6.25329 10.1714 6.25329 10.1714C6.25329 10.1713 6.25329 10.1713 6.25329 10.1713C6.25329 10.1713 6.25329 10.1712 6.25329 10.1712C6.25329 10.1712 6.25329 10.1712 6.25329 10.1711C6.25329 10.1711 6.25329 10.1711 6.25329 10.1711C6.25329 10.171 6.25329 10.171 6.25329 10.171C6.25329 10.171 6.25329 10.1709 6.25329 10.1709C6.25329 10.1709 6.25329 10.1709 6.25329 10.1708C6.25329 10.1708 6.25329 10.1708 6.25329 10.1708C6.25329 10.1707 6.25329 10.1707 6.25329 10.1707C6.25329 10.1707 6.25329 10.1706 6.25329 10.1706C6.25329 10.1706 6.25329 10.1706 6.25329 10.1705C6.25329 10.1705 6.25329 10.1705 6.25329 10.1705C6.25329 10.1704 6.25329 10.1704 6.25329 10.1704C6.25329 10.1704 6.25329 10.1703 6.25329 10.1703C6.25329 10.1703 6.25329 10.1703 6.25329 10.1702C6.25329 10.1702 6.25329 10.1702 6.25329 10.1702C6.25329 10.1701 6.25329 10.1701 6.25329 10.1701C6.25329 10.1701 6.25329 10.17 6.25329 10.17C6.25329 10.17 6.25329 10.17 6.25329 10.1699C6.25329 10.1699 6.25329 10.1699 6.25329 10.1699C6.25329 10.1698 6.25329 10.1698 6.25329 10.1698C6.25329 10.1698 6.25329 10.1697 6.25329 10.1697C6.25329 10.1697 6.25329 10.1697 6.25329 10.1696C6.25329 10.1696 6.25329 10.1696 6.25329 10.1696C6.25329 10.1695 6.25329 10.1695 6.25329 10.1695C6.25329 10.1695 6.25329 10.1694 6.25329 10.1694C6.25329 10.1694 6.25329 10.1694 6.25329 10.1693C6.25329 10.1693 6.25329 10.1693 6.25329 10.1693C6.25329 10.1692 6.25329 10.1692 6.25329 10.1692C6.25329 10.1692 6.25329 10.1691 6.25329 10.1691C6.25329 10.1691 6.25329 10.1691 6.25329 10.169C6.25329 10.169 6.25329 10.169 6.25329 10.169C6.25329 10.1689 6.25329 10.1689 6.25329 10.1689C6.25329 10.1689 6.25329 10.1688 6.25329 10.1688C6.25329 10.1688 6.25329 10.1688 6.25329 10.1687C6.25329 10.1687 6.25329 10.1687 6.25329 10.1687C6.25329 10.1686 6.25329 10.1686 6.25329 10.1686C6.25329 10.1686 6.25329 10.1685 6.25329 10.1685C6.25329 10.1685 6.25329 10.1685 6.25329 10.1684C6.25329 10.1684 6.25329 10.1684 6.25329 10.1684C6.25329 10.1683 6.25329 10.1683 6.25329 10.1683C6.25329 10.1683 6.25329 10.1682 6.25329 10.1682C6.25329 10.1682 6.25329 10.1682 6.25329 10.1681C6.25329 10.1681 6.25329 10.1681 6.25329 10.1681C6.25329 10.168 6.25329 10.168 6.25329 10.168C6.25329 10.168 6.25329 10.1679 6.25329 10.1679C6.25329 10.1679 6.25329 10.1679 6.25329 10.1678C6.25329 10.1678 6.25329 10.1678 6.25329 10.1678C6.25329 10.1677 6.25329 10.1677 6.25329 10.1677C6.25329 10.1677 6.25329 10.1676 6.25329 10.1676C6.25329 10.1676 6.25329 10.1676 6.25329 10.1675C6.25329 10.1675 6.25329 10.1675 6.25329 10.1675C6.25329 10.1674 6.25329 10.1674 6.25329 10.1674C6.25329 10.1674 6.25329 10.1673 6.25329 10.1673C6.25329 10.1673 6.25329 10.1673 6.25329 10.1672C6.25329 10.1672 6.25329 10.1672 6.25329 10.1672C6.25329 10.1671 6.25329 10.1671 6.25329 10.1671C6.25329 10.1671 6.25329 10.167 6.25329 10.167C6.25329 10.167 6.25329 10.167 6.25329 10.1669C6.25329 10.1669 6.25329 10.1669 6.25329 10.1669C6.25329 10.1668 6.25329 10.1668 6.25329 10.1668C6.25329 10.1668 6.25329 10.1667 6.25329 10.1667C6.25329 10.1667 6.25329 10.1667 6.25329 10.1666C6.25329 10.1666 6.25329 10.1666 6.25329 10.1666C6.25329 10.1665 6.25329 10.1665 6.25329 10.1665C6.25329 10.1665 6.25329 10.1664 6.25329 10.1664C6.25329 10.1664 6.25329 10.1664 6.25329 10.1663C6.25329 10.1663 6.25329 10.1663 6.25329 10.1663C6.25329 10.1662 6.25329 10.1662 6.25329 10.1662C6.25329 10.1662 6.25329 10.1661 6.25329 10.1661C6.25329 10.1661 6.25329 10.1661 6.25329 10.166C6.25329 10.166 6.25329 10.166 6.25329 10.166C6.25329 10.1659 6.25329 10.1659 6.25329 10.1659C6.25329 10.1659 6.25329 10.1658 6.25329 10.1658C6.25329 10.1658 6.25329 10.1658 6.25329 10.1657C6.25329 10.1657 6.25329 10.1657 6.25329 10.1657C6.25329 10.1656 6.25329 10.1656 6.25329 10.1656C6.25329 10.1656 6.25329 10.1655 6.25329 10.1655C6.25329 10.1655 6.25329 10.1655 6.25329 10.1654C6.25329 10.1654 6.25329 10.1654 6.25329 10.1654C6.25329 10.1653 6.25329 10.1653 6.25329 10.1653C6.25329 10.1653 6.25329 10.1652 6.25329 10.1652C6.25329 10.1652 6.25329 10.1652 6.25329 10.1651C6.25329 10.1651 6.25329 10.1651 6.25329 10.1651C6.25329 10.165 6.25329 10.165 6.25329 10.165C6.25329 10.165 6.25329 10.1649 6.25329 10.1649C6.25329 10.1649 6.25329 10.1649 6.25329 10.1648C6.25329 10.1648 6.25329 10.1648 6.25329 10.1648C6.25329 10.1647 6.25329 10.1647 6.25329 10.1647C6.25329 10.1647 6.25329 10.1647 6.25329 10.1646C6.25329 10.1646 6.25329 10.1646 6.25329 10.1646C6.25329 10.1645 6.25329 10.1645 6.25329 10.1645C6.25329 10.1645 6.25329 10.1644 6.25329 10.1644C6.25329 10.1644 6.25329 10.1644 6.25329 10.1643C6.25329 10.1643 6.25329 10.1643 6.25329 10.1643C6.25329 10.1642 6.25329 10.1642 6.25329 10.1642C6.25329 10.1642 6.25329 10.1641 6.25329 10.1641C6.25329 10.1641 6.25329 10.1641 6.25329 10.164C6.25329 10.164 6.25329 10.164 6.25329 10.164C6.25329 10.1639 6.25329 10.1639 6.25329 10.1639C6.25329 10.1639 6.25329 10.1638 6.25329 10.1638C6.25329 10.1638 6.25329 10.1638 6.25329 10.1637C6.25329 10.1637 6.25329 10.1637 6.25329 10.1637C6.25329 10.1636 6.25329 10.1636 6.25329 10.1636C6.25329 10.1636 6.25329 10.1635 6.25329 10.1635C6.25329 10.1635 6.25329 10.1635 6.25329 10.1634C6.25329 10.1634 6.25329 10.1634 6.25329 10.1634C6.25329 10.1633 6.25329 10.1633 6.25329 10.1633C6.25329 10.1633 6.25329 10.1632 6.25329 10.1632C6.25329 10.1632 6.25329 10.1632 6.25329 10.1631C6.25329 10.1631 6.25329 10.1631 6.25329 10.1631C6.25329 10.163 6.25329 10.163 6.25329 10.163C6.25329 10.163 6.25329 10.1629 6.25329 10.1629C6.25329 10.1629 6.25329 10.1629 6.25329 10.1628C6.25329 10.1628 6.25329 10.1628 6.25329 10.1628C6.25329 10.1627 6.25329 10.1627 6.25329 10.1627C6.25329 10.1627 6.25329 10.1626 6.25329 10.1626C6.25329 10.1626 6.25329 10.1626 6.25329 10.1625C6.25329 10.1625 6.25329 10.1625 6.25329 10.1625C6.25329 10.1624 6.25329 10.1624 6.25329 10.1624C6.25329 10.1624 6.25329 10.1623 6.25329 10.1623C6.25329 10.1623 6.25329 10.1623 6.25329 10.1622C6.25329 10.1622 6.25329 10.1622 6.25329 10.1622C6.25329 10.1621 6.25329 10.1621 6.25329 10.1621C6.25329 10.1621 6.25329 10.162 6.25329 10.162C6.25329 10.162 6.25329 10.162 6.25329 10.1619C6.25329 10.1619 6.25329 10.1619 6.25329 10.1619C6.25329 10.1618 6.25329 10.1618 6.25329 10.1618C6.25329 10.1618 6.25329 10.1617 6.25329 10.1617C6.25329 10.1617 6.25329 10.1617 6.25329 10.1616C6.25329 10.1616 6.25329 10.1616 6.25329 10.1616C6.25329 10.1615 6.25329 10.1615 6.25329 10.1615C6.25329 10.1615 6.25329 10.1614 6.25329 10.1614C6.25329 10.1614 6.25329 10.1614 6.25329 10.1613C6.25329 10.1613 6.25329 10.1613 6.25329 10.1613C6.25329 10.1612 6.25329 10.1612 6.25329 10.1612C6.25329 10.1612 6.25329 10.1611 6.25329 10.1611C6.25329 10.1611 6.25329 10.1611 6.25329 10.161C6.25329 10.161 6.25329 10.161 6.25329 10.161C6.25329 10.1609 6.25329 10.1609 6.25329 10.1609C6.25329 10.1609 6.25329 10.1608 6.25329 10.1608C6.25329 10.1608 6.25329 10.1608 6.25329 10.1607C6.25329 10.1607 6.25329 10.1607 6.25329 10.1607C6.25329 10.1606 6.25329 10.1606 6.25329 10.1606C6.25329 10.1606 6.25329 10.1605 6.25329 10.1605C6.25329 10.1605 6.25329 10.1605 6.25329 10.1604C6.25329 10.1604 6.25329 10.1604 6.25329 10.1604C6.25329 10.1603 6.25329 10.1603 6.25329 10.1603C6.25329 10.1603 6.25329 10.1602 6.25329 10.1602C6.25329 10.1602 6.25329 10.1602 6.25329 10.1601C6.25329 10.1601 6.25329 10.1601 6.25329 10.1601C6.25329 10.16 6.25329 10.16 6.25329 10.16C6.25329 10.16 6.25329 10.1599 6.25329 10.1599C6.25329 10.1599 6.25329 10.1599 6.25329 10.1598C6.25329 10.1598 6.25329 10.1598 6.25329 10.1598C6.25329 10.1597 6.25329 10.1597 6.25329 10.1597C6.25329 10.1597 6.25329 10.1596 6.25329 10.1596C6.25329 10.1596 6.25329 10.1596 6.25329 10.1595C6.25329 10.1595 6.25329 10.1595 6.25329 10.1595C6.25329 10.1594 6.25329 10.1594 6.25329 10.1594C6.25329 10.1594 6.25329 10.1593 6.25329 10.1593C6.25329 10.1593 6.25329 10.1593 6.25329 10.1592C6.25329 10.1592 6.25329 10.1592 6.25329 10.1592C6.25329 10.1591 6.25329 10.1591 6.25329 10.1591C6.25329 10.1591 6.25329 10.159 6.25329 10.159C6.25329 10.159 6.25329 10.159 6.25329 10.1589C6.25329 10.1589 6.25329 10.1589 6.25329 10.1589C6.25329 10.1588 6.25329 10.1588 6.25329 10.1588C6.25329 10.1588 6.25329 10.1587 6.25329 10.1587C6.25329 10.1587 6.25329 10.1587 6.25329 10.1586C6.25329 10.1586 6.25329 10.1586 6.25329 10.1586C6.25329 10.1585 6.25329 10.1585 6.25329 10.1585C6.25329 10.1585 6.25329 10.1584 6.25329 10.1584C6.25329 10.1584 6.25329 10.1584 6.25329 10.1583C6.25329 10.1583 6.25329 10.1583 6.25329 10.1583C6.25329 10.1582 6.25329 10.1582 6.25329 10.1582C6.25329 10.1582 6.25329 10.1581 6.25329 10.1581C6.25329 10.1581 6.25329 10.1581 6.25329 10.158C6.25329 10.158 6.25329 10.158 6.25329 10.158C6.25329 10.1579 6.25329 10.1579 6.25329 10.1579C6.25329 10.1579 6.25329 10.1578 6.25329 10.1578C6.25329 10.1578 6.25329 10.1578 6.25329 10.1577C6.25329 10.1577 6.25329 10.1577 6.25329 10.1577C6.25329 10.1576 6.25329 10.1576 6.25329 10.1576C6.25329 10.1576 6.25329 10.1575 6.25329 10.1575C6.25329 10.1575 6.25329 10.1575 6.25329 10.1574C6.25329 10.1574 6.25329 10.1574 6.25329 10.1574C6.25329 10.1573 6.25329 10.1573 6.25329 10.1573C6.25329 10.1573 6.25329 10.1573 6.25329 10.1572C6.25329 10.1572 6.25329 10.1572 6.25329 10.1572C6.25329 10.1571 6.25329 10.1571 6.25329 10.1571C6.25329 10.1571 6.25329 10.157 6.25329 10.157C6.25329 10.157 6.25329 10.157 6.25329 10.1569C6.25329 10.1569 6.25329 10.1569 6.25329 10.1569C6.25329 10.1568 6.25329 10.1568 6.25329 10.1568C6.25329 10.1568 6.25329 10.1567 6.25329 10.1567C6.25329 10.1567 6.25329 10.1567 6.25329 10.1566C6.25329 10.1566 6.25329 10.1566 6.25329 10.1566C6.25329 10.1565 6.25329 10.1565 6.25329 10.1565C6.25329 10.1565 6.25329 10.1564 6.25329 10.1564C6.25329 10.1564 6.25329 10.1564 6.25329 10.1563C6.25329 10.1563 6.25329 10.1563 6.25329 10.1563C6.25329 10.1562 6.25329 10.1562 6.25329 10.1562C6.25329 10.1562 6.25329 10.1561 6.25329 10.1561C6.25329 10.1561 6.25329 10.1561 6.25329 10.156C6.25329 10.156 6.25329 10.156 6.25329 10.156C6.25329 10.1559 6.25329 10.1559 6.25329 10.1559C6.25329 10.1559 6.25329 10.1558 6.25329 10.1558C6.25329 10.1558 6.25329 10.1558 6.25329 10.1557C6.25329 10.1557 6.25329 10.1557 6.25329 10.1557C6.25329 10.1556 6.25329 10.1556 6.25329 10.1556C6.25329 10.1556 6.25329 10.1555 6.25329 10.1555C6.25329 10.1555 6.25329 10.1555 6.25329 10.1554C6.25329 10.1554 6.25329 10.1554 6.25329 10.1554C6.25329 10.1553 6.25329 10.1553 6.25329 10.1553C6.25329 10.1553 6.25329 10.1552 6.25329 10.1552C6.25329 10.1552 6.25329 10.1552 6.25329 10.1551C6.25329 10.1551 6.25329 10.1551 6.25329 10.1551C6.25329 10.155 6.25329 10.155 6.25329 10.155C6.25329 10.155 6.25329 10.1549 6.25329 10.1549C6.25329 10.1549 6.25329 10.1549 6.25329 10.1548C6.25329 10.1548 6.25329 10.1548 6.25329 10.1548C6.25329 10.1547 6.25329 10.1547 6.25329 10.1547H5.19017ZM5.19017 10.193V20.2777H6.25329V10.193H5.19017ZM5.72173 19.7462H5.53037V20.8093H5.72173V19.7462ZM6.06193 20.2777V10.1547H4.9988V20.2777H6.06193ZM6.06193 10.1547C6.06193 10.1749 6.05854 10.2177 6.03525 10.2701C6.01059 10.3256 5.97172 10.3733 5.92585 10.4077L5.28797 9.55721C5.07562 9.71648 4.9988 9.94844 4.9988 10.1547H6.06193ZM5.92585 10.4077C5.90822 10.4209 5.8501 10.4566 5.76 10.4566V9.39349C5.56784 9.39349 5.40766 9.46744 5.28797 9.55721L5.92585 10.4077ZM5.76 10.4566C5.71801 10.4566 5.65756 10.4446 5.59909 10.4056L6.18881 9.52104C6.0538 9.43103 5.90405 9.39349 5.76 9.39349V10.4566ZM5.5991 10.4056C5.59223 10.401 5.59548 10.4025 5.6109 10.416C5.62519 10.4285 5.64509 10.4471 5.67117 10.4731L6.42291 9.7214C6.35318 9.65167 6.27216 9.5766 6.18881 9.52103L5.5991 10.4056ZM7.0804 22.5316C7.37351 22.5316 7.7217 22.474 7.97295 22.2228L7.22121 21.471C7.24633 21.4459 7.26198 21.4457 7.24035 21.4521C7.21697 21.459 7.16706 21.4684 7.0804 21.4684V22.5316ZM7.97295 22.2228C8.22735 21.9684 8.30086 21.6257 8.30086 21.3111H7.23774C7.23774 21.4813 7.19644 21.4958 7.22121 21.471L7.97295 22.2228ZM8.30086 21.3111V14.9961H7.23774V21.3111H8.30086ZM7.35949 15.3347L10.6318 19.2959L11.4514 18.6188L8.17912 14.6576L7.35949 15.3347ZM10.51 18.9573V21.3111H11.5732V18.9573H10.51ZM10.51 21.3111C10.51 21.6121 10.5708 21.9452 10.7974 22.2001L11.592 21.4938C11.6039 21.5071 11.5991 21.5092 11.591 21.4808C11.5824 21.4509 11.5732 21.397 11.5732 21.3111H10.51ZM10.8415 22.2442C11.0964 22.4707 11.4295 22.5316 11.7305 22.5316V21.4684C11.6446 21.4684 11.5907 21.4592 11.5608 21.4506C11.5324 21.4425 11.5344 21.4377 11.5478 21.4496L10.8415 22.2442ZM11.7305 22.5316H14.6009V21.4684H11.7305V22.5316ZM14.6009 22.5316C14.894 22.5316 15.2422 22.474 15.4935 22.2228L14.7417 21.471C14.7669 21.4459 14.7825 21.4457 14.7609 21.4521C14.7375 21.459 14.6876 21.4684 14.6009 21.4684V22.5316ZM15.4935 22.2228C15.7479 21.9684 15.8214 21.6257 15.8214 21.3111H14.7583C14.7583 21.4813 14.717 21.4958 14.7417 21.471L15.4935 22.2228ZM15.8214 21.3111V8.91083H14.7583V21.3111H15.8214ZM15.8214 8.91083C15.8214 8.60312 15.7507 8.24571 15.4708 7.99686L14.7645 8.79145C14.7406 8.77023 14.7378 8.75402 14.7425 8.76796C14.7482 8.78515 14.7583 8.82885 14.7583 8.91083H15.8214ZM15.5149 8.041C15.2661 7.76104 14.9086 7.69036 14.6009 7.69036V8.75349C14.6829 8.75349 14.7266 8.76354 14.7438 8.76927C14.7577 8.77391 14.7415 8.77117 14.7203 8.7473L15.5149 8.041ZM14.6009 7.69036H11.7305V8.75349H14.6009V7.69036ZM11.7305 7.69036C11.4159 7.69036 11.0732 7.76388 10.8188 8.01828L11.5706 8.77002C11.5458 8.79479 11.5603 8.75349 11.7305 8.75349V7.69036ZM10.8188 8.01828C10.5676 8.26953 10.51 8.61772 10.51 8.91083H11.5732C11.5732 8.82417 11.5826 8.77426 11.5895 8.75088C11.5959 8.72925 11.5957 8.7449 11.5706 8.77002L10.8188 8.01828ZM10.51 8.91083V12.9868H11.5732V8.91083H10.51ZM11.4419 12.6371L7.72943 8.38882L6.92891 9.08838L10.6413 13.3366L11.4419 12.6371ZM7.73086 8.39047C7.52771 8.15606 7.29327 7.96447 7.02189 7.84816L6.6031 8.82532C6.68892 8.86211 6.79893 8.93842 6.92748 9.08674L7.73086 8.39047ZM7.03525 7.85411C6.78066 7.73661 6.49548 7.69036 6.20013 7.69036V8.75349C6.38957 8.75349 6.51263 8.78379 6.58974 8.81938L7.03525 7.85411ZM6.20013 7.69036H4.20997V8.75349H6.20013V7.69036ZM4.20997 7.69036C3.89538 7.69036 3.55269 7.76388 3.29828 8.01828L4.05002 8.77002C4.02525 8.79479 4.03977 8.75349 4.20997 8.75349V7.69036ZM3.29828 8.01828C3.04704 8.26953 2.9895 8.61772 2.9895 8.91083H4.05263C4.05263 8.82417 4.06207 8.77426 4.069 8.75088C4.0754 8.72925 4.07515 8.7449 4.05002 8.77002L3.29828 8.01828ZM2.9895 8.91083V21.3111H4.05263V8.91083H2.9895ZM2.9895 21.3111C2.9895 21.6121 3.05032 21.9452 3.27686 22.2001L4.07145 21.4938C4.08335 21.5071 4.07856 21.5092 4.07045 21.4808C4.0619 21.4509 4.05263 21.397 4.05263 21.3111H2.9895ZM3.321 22.2442C3.57586 22.4707 3.90898 22.5316 4.20997 22.5316V21.4684C4.12403 21.4684 4.07016 21.4592 4.04025 21.4506C4.01185 21.4425 4.01392 21.4377 4.0273 21.4496L3.321 22.2442ZM4.20997 22.5316H7.0804V21.4684H4.20997V22.5316ZM7.35308 21.6103L4.86537 23.677L5.54473 24.4947L8.03244 22.428L7.35308 21.6103ZM4.82918 23.71C4.83977 23.6994 4.848 23.6931 4.85183 23.6904C4.85568 23.6876 4.85634 23.6876 4.85257 23.6896C4.84431 23.694 4.82435 23.7035 4.78818 23.7155L5.12437 24.7241C5.2711 24.6752 5.44473 24.5979 5.58092 24.4617L4.82918 23.71ZM4.76964 23.7221C4.73648 23.7345 4.68632 23.7456 4.61183 23.7456V24.8088C4.79249 24.8088 4.97196 24.7816 5.14292 24.7175L4.76964 23.7221ZM4.61183 23.7456H1.7414V24.8088H4.61183V23.7456ZM1.7414 23.7456C1.62669 23.7456 1.55067 23.7322 1.5037 23.7175C1.48099 23.7103 1.46681 23.7034 1.45876 23.6988C1.45099 23.6943 1.44803 23.6914 1.4475 23.6908L0.695757 24.4426C0.978463 24.7253 1.369 24.8088 1.7414 24.8088V23.7456ZM1.4475 23.6908C1.44697 23.6903 1.44406 23.6873 1.43956 23.6796C1.4349 23.6715 1.428 23.6574 1.42086 23.6346C1.4061 23.5877 1.39269 23.5116 1.39269 23.3969H0.329568C0.329568 23.7693 0.413051 24.1599 0.695757 24.4426L1.4475 23.6908ZM1.39269 23.3969V10.9967H0.329568V23.3969H1.39269ZM1.39269 10.9967C1.39269 10.8683 1.40792 10.7885 1.42282 10.7438L0.414255 10.4076C0.35261 10.5925 0.329568 10.7933 0.329568 10.9967H1.39269ZM1.40429 10.7916C1.42547 10.7439 1.44968 10.7139 1.47497 10.6922L0.7831 9.88505C0.629786 10.0165 0.513666 10.1778 0.432791 10.3598L1.40429 10.7916ZM1.47211 10.6947L3.94068 8.60882L3.25453 7.79676L0.785961 9.88261L1.47211 10.6947ZM3.92967 8.61787C3.9192 8.62625 3.92687 8.61577 3.9753 8.60366L3.71745 7.57228C3.56177 7.6112 3.40359 7.67727 3.26554 7.78771L3.92967 8.61787ZM4.01447 8.59226C4.07222 8.57301 4.13642 8.56213 4.20997 8.56213V7.499C4.02837 7.499 3.85018 7.52639 3.67829 7.58369L4.01447 8.59226ZM4.20997 8.56213H6.20013V7.499H4.20997V8.56213ZM6.20013 8.56213C6.42748 8.56213 6.58156 8.59869 6.68338 8.64621L7.13296 7.68282C6.85206 7.55174 6.53412 7.499 6.20013 7.499V8.56213ZM6.68338 8.64621C6.79699 8.69923 6.93519 8.79831 7.09447 8.96821L7.87005 8.24109C7.64661 8.00275 7.40208 7.80841 7.13296 7.68283L6.68338 8.64621ZM7.07974 8.95183L8.40013 10.4827L9.20518 9.78837L7.88478 8.25747L7.07974 8.95183ZM9.14329 10.5436L11.4588 8.61087L10.7775 7.79471L8.46203 9.72747L9.14329 10.5436ZM11.4502 8.61787C11.4397 8.62625 11.4474 8.61577 11.4958 8.60366L11.238 7.57228C11.0823 7.6112 10.9241 7.67727 10.7861 7.78771L11.4502 8.61787ZM11.535 8.59226C11.5927 8.57301 11.6569 8.56213 11.7305 8.56213V7.499C11.5489 7.499 11.3707 7.52639 11.1988 7.58369L11.535 8.59226ZM11.7305 8.56213H14.6009V7.499H11.7305V8.56213ZM14.6009 8.56213C14.7156 8.56213 14.7917 8.57553 14.8386 8.59029C14.8613 8.59743 14.8755 8.60433 14.8836 8.609C14.8913 8.61349 14.8943 8.6164 14.8948 8.61693L15.6466 7.86519C15.3639 7.58248 14.9733 7.499 14.6009 7.499V8.56213ZM14.8948 8.61693C14.8954 8.61746 14.8983 8.62042 14.9028 8.62819C14.9074 8.63624 14.9143 8.65042 14.9215 8.67313C14.9362 8.7201 14.9496 8.79613 14.9496 8.91083H16.0128C16.0128 8.53843 15.9293 8.1479 15.6466 7.86519L14.8948 8.61693ZM14.9496 8.91083V21.3111H16.0128V8.91083H14.9496ZM14.9496 21.3111C14.9496 21.4252 14.9317 21.4874 14.9189 21.5162L15.8904 21.948C15.9797 21.7472 16.0128 21.5287 16.0128 21.3111H14.9496ZM14.9004 21.564C14.8916 21.5902 14.8813 21.6036 14.8674 21.6155L15.5592 22.4227C15.7239 22.2816 15.8411 22.1036 15.9089 21.9002L14.9004 21.564ZM14.8736 21.6103L12.3859 23.677L13.0653 24.4947L15.553 22.428L14.8736 21.6103ZM12.3497 23.71C12.3603 23.6994 12.3685 23.6931 12.3724 23.6904C12.3762 23.6876 12.3769 23.6876 12.3731 23.6896C12.3648 23.694 12.3449 23.7035 12.3087 23.7155L12.6449 24.7241C12.7916 24.6752 12.9653 24.5979 13.1015 24.4617L12.3497 23.71ZM12.2902 23.7221C12.257 23.7345 12.2069 23.7456 12.1324 23.7456V24.8088C12.313 24.8088 12.4925 24.7816 12.6635 24.7175L12.2902 23.7221ZM12.1324 23.7456H9.26193V24.8088H12.1324V23.7456ZM9.26193 23.7456C9.14722 23.7456 9.0712 23.7322 9.02423 23.7175C9.00152 23.7103 8.98734 23.7034 8.97929 23.6988C8.97152 23.6943 8.96856 23.6914 8.96803 23.6908L8.21629 24.4426C8.499 24.7253 8.88953 24.8088 9.26193 24.8088V23.7456ZM8.96803 23.6908C8.9675 23.6903 8.96459 23.6873 8.96009 23.6796C8.95543 23.6715 8.94853 23.6574 8.94139 23.6346C8.92663 23.5877 8.91322 23.5116 8.91322 23.3969H7.8501C7.8501 23.7693 7.93358 24.1599 8.21629 24.4426L8.96803 23.6908ZM8.91322 23.3969V21.1197H7.8501V23.3969H8.91322ZM8.79375 20.784L8.37275 20.2673L7.54858 20.9388L7.96958 21.4555L8.79375 20.784ZM7.4291 20.6031V21.3111H8.49223V20.6031H7.4291ZM7.4291 21.3111C7.4291 21.4252 7.41118 21.4874 7.39837 21.5162L8.36987 21.948C8.45912 21.7472 8.49223 21.5287 8.49223 21.3111H7.4291ZM7.37984 21.564C7.3711 21.5902 7.36078 21.6036 7.34682 21.6155L8.03869 22.4227C8.20334 22.2816 8.32059 22.1036 8.3884 21.9002L7.37984 21.564ZM18.1514 22.9759L17.7586 23.3341L17.7615 23.3372L18.1514 22.9759ZM17.2712 12.3936L16.7776 12.1962L17.2712 12.3936ZM18.1706 11.1115L17.8275 10.7054L17.8215 10.7107L18.1706 11.1115ZM20.6392 9.02565L20.2976 8.61837L20.2961 8.61962L20.6392 9.02565ZM22.1509 8.27933L22.0146 7.76554L22.012 7.76626L22.1509 8.27933ZM29.7863 8.24106L30.1621 7.86519L30.1621 7.86519L29.7863 8.24106ZM29.9202 11.6473L29.4345 11.4314L29.424 11.4549L29.4159 11.4792L29.9202 11.6473ZM29.7289 11.9344L30.0686 12.3433L30.0748 12.3379L29.7289 11.9344ZM27.2411 14.0011L26.9015 13.5922L26.8826 13.6079L26.8653 13.6252L27.2411 14.0011ZM26.9924 14.135L26.8243 13.6307L26.8149 13.6338L26.8057 13.6373L26.9924 14.135ZM24.1602 14.1924V13.6609H23.6287V14.1924H24.1602ZM24.1602 16.948H23.6287L24.6357 17.1858L24.1602 16.948ZM24.2176 16.8715L24.5935 17.2474L24.5935 17.2474L24.2176 16.8715ZM24.3133 16.7758L23.9702 16.3698L23.9532 16.3842L23.9374 16.3999L24.3133 16.7758ZM26.7819 14.69L26.4498 14.2749L26.4442 14.2793L26.4388 14.2839L26.7819 14.69ZM27.0306 14.5751L27.1596 15.0908L27.1794 15.0859L27.1987 15.0794L27.0306 14.5751ZM31.0301 14.7282L31.406 14.3524L31.406 14.3524L31.0301 14.7282ZM31.1641 21.7321L30.6783 21.5162L30.6679 21.5397L30.6598 21.564L31.1641 21.7321ZM30.9727 22.0191L31.3124 22.4281L31.3186 22.4227L30.9727 22.0191ZM28.485 24.0858L28.1453 23.677L28.1265 23.6926L28.1091 23.71L28.485 24.0858ZM28.2362 24.2198L28.0681 23.7155L28.0588 23.7186L28.0496 23.7221L28.2362 24.2198ZM30.877 21.8469L31.2529 22.2228L31.2529 22.2228L30.877 21.8469ZM30.877 14.8813L30.4797 15.2345L30.5005 15.2578L30.5239 15.2786L30.877 14.8813ZM26.8584 14.8813L26.4826 14.5055L26.4826 14.5055L26.8584 14.8813ZM26.7053 18.3833V18.9148H27.2369V18.3833H26.7053ZM24.1794 18.1536L23.7875 18.5128L23.7953 18.5213L23.8035 18.5295L24.1794 18.1536ZM24.2559 12.164L24.588 12.5791L24.5961 12.5725L24.604 12.5657L24.2559 12.164ZM29.6332 8.39415L29.2359 8.7473L29.2567 8.77067L29.28 8.79145L29.6332 8.39415ZM20.7731 9.17874L20.4361 8.76762L20.4328 8.77038L20.7731 9.17874ZM20.7731 21.0432L20.4328 21.4516L20.4361 21.4543L20.7731 21.0432ZM22.3805 19.7228L22.0485 20.1379L22.055 20.1431L22.0616 20.148L22.3805 19.7228ZM21.8447 18.9573L21.3329 19.1007L21.3364 19.1131L21.3405 19.1254L21.8447 18.9573ZM22.3231 10.5183L22.6867 10.9061L22.6867 10.9061L22.3231 10.5183ZM28.0831 9.94418H28.6147V9.41262H28.0831V9.94418ZM28.0831 10.1355V10.6671H28.6147V10.1355H28.0831ZM22.4954 10.6714L22.8445 11.0723L22.8517 11.0658L22.4954 10.6714ZM22.5528 19.5697L22.2222 19.986L22.2281 19.9906L22.5528 19.5697ZM28.772 20.0864V20.6179H29.3036V20.0864H28.772ZM28.772 16.4314V15.8998H28.2405V16.4314H28.772ZM28.9634 16.4314H29.495V15.8998H28.9634V16.4314ZM28.9634 20.2777V20.8093H29.495V20.2777H28.9634ZM27.8918 23.7456H21.8639V24.8088H27.8918V23.7456ZM21.8639 23.7456C20.2781 23.7456 19.2087 23.3349 18.5414 22.6147L17.7615 23.3372C18.7017 24.352 20.1072 24.8088 21.8639 24.8088V23.7456ZM18.5442 22.6178C17.8578 21.8649 17.4966 20.8777 17.4966 19.608H16.4334C16.4334 21.0938 16.8632 22.352 17.7586 23.3341L18.5442 22.6178ZM17.4966 19.608V14.2116H16.4334V19.608H17.4966ZM17.4966 14.2116C17.4966 13.5596 17.5916 13.0238 17.7647 12.591L16.7776 12.1962C16.5425 12.784 16.4334 13.4602 16.4334 14.2116H17.4966ZM17.7647 12.591C17.9391 12.1552 18.1909 11.7987 18.5197 11.5123L17.8215 10.7107C17.3593 11.1132 17.0115 11.6115 16.7776 12.1962L17.7647 12.591ZM18.5137 11.5175L20.9822 9.43167L20.2961 8.61962L17.8275 10.7055L18.5137 11.5175ZM20.9807 9.43292C21.3052 9.16078 21.7353 8.94262 22.2899 8.79241L22.012 7.76626C21.3418 7.94775 20.7641 8.22712 20.2976 8.61837L20.9807 9.43292ZM22.2872 8.79312C22.8574 8.64185 23.537 8.56213 24.3324 8.56213V7.499C23.4694 7.499 22.6946 7.58513 22.0146 7.76555L22.2872 8.79312ZM24.3324 8.56213H29.1165V7.499H24.3324V8.56213ZM29.1165 8.56213C29.2312 8.56213 29.3072 8.57553 29.3542 8.59029C29.3769 8.59743 29.3911 8.60433 29.3991 8.609C29.4069 8.61349 29.4099 8.6164 29.4104 8.61693L30.1621 7.86519C29.8794 7.58249 29.4889 7.499 29.1165 7.499V8.56213ZM29.4104 8.61693C29.4109 8.61746 29.4138 8.62042 29.4183 8.62819C29.423 8.63624 29.4299 8.65042 29.437 8.67313C29.4518 8.7201 29.4652 8.79613 29.4652 8.91083H30.5283C30.5283 8.53843 30.4448 8.1479 30.1621 7.86519L29.4104 8.61693ZM29.4652 8.91083V11.2263H30.5283V8.91083H29.4652ZM29.4652 11.2263C29.4652 11.3404 29.4473 11.4026 29.4345 11.4314L30.406 11.8632C30.4952 11.6624 30.5283 11.4439 30.5283 11.2263H29.4652ZM29.4159 11.4792C29.4072 11.5054 29.3969 11.5188 29.3829 11.5308L30.0748 12.3379C30.2394 12.1968 30.3567 12.0188 30.4245 11.8154L29.4159 11.4792ZM29.3892 11.5255L26.9015 13.5922L27.5808 14.4099L30.0685 12.3432L29.3892 11.5255ZM26.8653 13.6252C26.8759 13.6146 26.8841 13.6083 26.8879 13.6056C26.8918 13.6028 26.8924 13.6028 26.8887 13.6048C26.8804 13.6092 26.8604 13.6187 26.8243 13.6307L27.1605 14.6393C27.3072 14.5904 27.4808 14.5131 27.617 14.3769L26.8653 13.6252ZM26.8057 13.6373C26.7726 13.6497 26.7224 13.6609 26.6479 13.6609V14.724C26.8286 14.724 27.0081 14.6968 27.179 14.6327L26.8057 13.6373ZM26.6479 13.6609H24.1602V14.724H26.6479V13.6609ZM23.6287 14.1924V16.948H24.6918V14.1924H23.6287ZM24.6357 17.1858C24.6171 17.2228 24.5982 17.2427 24.5935 17.2474L23.8418 16.4956C23.786 16.5513 23.7288 16.6222 23.6848 16.7103L24.6357 17.1858ZM24.5935 17.2474C24.6318 17.2091 24.6637 17.1772 24.6892 17.1517L23.9374 16.3999C23.9119 16.4255 23.88 16.4574 23.8418 16.4956L24.5935 17.2474ZM24.6564 17.1818L27.125 15.096L26.4388 14.2839L23.9702 16.3698L24.6564 17.1818ZM27.1139 15.105C27.1035 15.1134 27.1111 15.1029 27.1596 15.0908L26.9017 14.0595C26.746 14.0984 26.5879 14.1644 26.4498 14.2749L27.1139 15.105ZM27.1987 15.0794C27.2565 15.0602 27.3207 15.0493 27.3942 15.0493V13.9862C27.2126 13.9862 27.0344 14.0136 26.8626 14.0709L27.1987 15.0794ZM27.3942 15.0493H30.3604V13.9862H27.3942V15.0493ZM30.3604 15.0493C30.4751 15.0493 30.5511 15.0627 30.5981 15.0775C30.6208 15.0846 30.6349 15.0915 30.643 15.0962C30.6508 15.1007 30.6537 15.1036 30.6542 15.1041L31.406 14.3524C31.1233 14.0697 30.7327 13.9862 30.3604 13.9862V15.0493ZM30.6542 15.1041C30.6548 15.1046 30.6577 15.1076 30.6622 15.1154C30.6668 15.1234 30.6737 15.1376 30.6809 15.1603C30.6956 15.2073 30.7091 15.2833 30.7091 15.398H31.7722C31.7722 15.0256 31.6887 14.6351 31.406 14.3524L30.6542 15.1041ZM30.7091 15.398V21.3111H31.7722V15.398H30.7091ZM30.7091 21.3111C30.7091 21.4252 30.6911 21.4874 30.6783 21.5162L31.6498 21.948C31.7391 21.7472 31.7722 21.5287 31.7722 21.3111H30.7091ZM30.6598 21.564C30.6511 21.5902 30.6407 21.6036 30.6268 21.6155L31.3186 22.4227C31.4833 22.2816 31.6005 22.1036 31.6684 21.9002L30.6598 21.564ZM30.633 21.6103L28.1453 23.677L28.8247 24.4947L31.3124 22.428L30.633 21.6103ZM28.1091 23.71C28.1197 23.6994 28.128 23.6931 28.1318 23.6904C28.1356 23.6876 28.1363 23.6876 28.1325 23.6896C28.1243 23.694 28.1043 23.7035 28.0681 23.7155L28.4043 24.7241C28.5511 24.6752 28.7247 24.5979 28.8609 24.4617L28.1091 23.71ZM28.0496 23.7221C28.0164 23.7345 27.9663 23.7456 27.8918 23.7456V24.8088C28.0724 24.8088 28.2519 24.7816 28.4229 24.7175L28.0496 23.7221ZM30.3604 22.5316C30.6535 22.5316 31.0017 22.474 31.2529 22.2228L30.5012 21.471C30.5263 21.4459 30.5419 21.4457 30.5203 21.4521C30.4969 21.459 30.447 21.4684 30.3604 21.4684V22.5316ZM31.2529 22.2228C31.5073 21.9684 31.5808 21.6257 31.5808 21.3111H30.5177C30.5177 21.4813 30.4764 21.4958 30.5012 21.471L31.2529 22.2228ZM31.5808 21.3111V15.398H30.5177V21.3111H31.5808ZM31.5808 15.398C31.5808 15.0903 31.5101 14.7329 31.2302 14.484L30.5239 15.2786C30.5 15.2574 30.4973 15.2412 30.5019 15.2551C30.5076 15.2723 30.5177 15.316 30.5177 15.398H31.5808ZM31.2743 14.5282C31.0255 14.2482 30.6681 14.1775 30.3604 14.1775V15.2407C30.4423 15.2407 30.486 15.2507 30.5032 15.2564C30.5172 15.2611 30.501 15.2583 30.4797 15.2345L31.2743 14.5282ZM30.3604 14.1775H27.3942V15.2407H30.3604V14.1775ZM27.3942 14.1775C27.0797 14.1775 26.737 14.2511 26.4826 14.5055L27.2343 15.2572C27.2095 15.282 27.224 15.2407 27.3942 15.2407V14.1775ZM26.4826 14.5055C26.2313 14.7567 26.1738 15.1049 26.1738 15.398H27.2369C27.2369 15.3113 27.2463 15.2614 27.2533 15.2381C27.2597 15.2164 27.2594 15.2321 27.2343 15.2572L26.4826 14.5055ZM26.1738 15.398V18.3833H27.2369V15.398H26.1738ZM26.7053 17.8517H24.8491V18.9148H26.7053V17.8517ZM24.8491 17.8517C24.6452 17.8517 24.5773 17.7999 24.5552 17.7778L23.8035 18.5295C24.0875 18.8135 24.4662 18.9148 24.8491 18.9148V17.8517ZM24.5712 17.7944C24.5584 17.7805 24.5004 17.7004 24.5004 17.4456H23.4373C23.4373 17.8287 23.5197 18.2206 23.7875 18.5128L24.5712 17.7944ZM24.5004 17.4456V12.872H23.4373V17.4456H24.5004ZM24.5004 12.872C24.5004 12.6619 24.5587 12.6024 24.588 12.5791L23.9238 11.7489C23.5703 12.0317 23.4373 12.4442 23.4373 12.872H24.5004ZM24.604 12.5657C24.6572 12.5196 24.8001 12.4468 25.1362 12.4468V11.3837C24.6812 11.3837 24.2373 11.4767 23.9078 11.7623L24.604 12.5657ZM25.1362 12.4468H29.1165V11.3837H25.1362V12.4468ZM29.1165 12.4468C29.4096 12.4468 29.7578 12.3892 30.009 12.138L29.2573 11.3863C29.2824 11.3611 29.2981 11.3609 29.2764 11.3673C29.2531 11.3742 29.2032 11.3837 29.1165 11.3837V12.4468ZM30.009 12.138C30.2635 11.8836 30.337 11.5409 30.337 11.2263H29.2738C29.2738 11.3965 29.2325 11.411 29.2573 11.3863L30.009 12.138ZM30.337 11.2263V8.91083H29.2738V11.2263H30.337ZM30.337 8.91083C30.337 8.60312 30.2663 8.24571 29.9863 7.99686L29.28 8.79145C29.2562 8.77023 29.2534 8.75402 29.2581 8.76796C29.2638 8.78515 29.2738 8.82885 29.2738 8.91083H30.337ZM30.0305 8.041C29.7816 7.76104 29.4242 7.69036 29.1165 7.69036V8.75349C29.1985 8.75349 29.2422 8.76354 29.2594 8.76927C29.2733 8.77391 29.2571 8.77117 29.2359 8.7473L30.0305 8.041ZM29.1165 7.69036H24.3324V8.75349H29.1165V7.69036ZM24.3324 7.69036C22.6824 7.69036 21.351 8.01775 20.4361 8.76763L21.1101 9.58984C21.7516 9.06398 22.7931 8.75349 24.3324 8.75349V7.69036ZM20.4328 8.77038C19.509 9.54018 19.0934 10.6969 19.0934 12.1257H20.1565C20.1565 10.901 20.5063 10.093 21.1134 9.58709L20.4328 8.77038ZM19.0934 12.1257V18.0962H20.1565V12.1257H19.0934ZM19.0934 18.0962C19.0934 19.525 19.509 20.6817 20.4328 21.4515L21.1134 20.6348C20.5063 20.1289 20.1565 19.3209 20.1565 18.0962H19.0934ZM20.4361 21.4543C21.351 22.2042 22.6824 22.5316 24.3324 22.5316V21.4684C22.7931 21.4684 21.7516 21.1579 21.1101 20.6321L20.4361 21.4543ZM24.3324 22.5316H30.3604V21.4684H24.3324V22.5316ZM25.1553 19.7462C24.472 19.7462 23.9363 19.7024 23.5373 19.6225L23.3288 20.665C23.8228 20.7638 24.4352 20.8093 25.1553 20.8093V19.7462ZM23.5373 19.6225C23.1376 19.5426 22.87 19.4254 22.6995 19.2975L22.0616 20.148C22.4014 20.4029 22.8354 20.5663 23.3288 20.665L23.5373 19.6225ZM22.7126 19.3077C22.5364 19.1668 22.4183 18.9969 22.349 18.7892L21.3405 19.1254C21.4753 19.5301 21.7144 19.8706 22.0485 20.1379L22.7126 19.3077ZM22.3566 18.814C22.284 18.5547 22.2423 18.2229 22.2423 17.8092H21.1792C21.1792 18.2885 21.2269 18.7221 21.3329 19.1007L22.3566 18.814ZM22.2423 17.8092V12.451H21.1792V17.8092H22.2423ZM22.2423 12.451C22.2423 11.6043 22.4363 11.1408 22.6867 10.9061L21.9596 10.1305C21.3935 10.6611 21.1792 11.4862 21.1792 12.451H22.2423ZM22.6867 10.9061C22.7971 10.8025 23.0036 10.6895 23.363 10.6052C23.7178 10.5221 24.1842 10.4757 24.7726 10.4757V9.41262C24.1363 9.41262 23.582 9.46198 23.1204 9.57017C22.6633 9.6773 22.2574 9.85129 21.9596 10.1305L22.6867 10.9061ZM24.7726 10.4757H28.0831V9.41262H24.7726V10.4757ZM27.5516 9.94418V10.1355H28.6147V9.94418H27.5516ZM28.0831 9.60399H24.7726V10.6671H28.0831V9.60399ZM24.7726 9.60399C24.1865 9.60399 23.6722 9.65027 23.2395 9.75207C22.8103 9.85306 22.4271 10.0167 22.1391 10.2769L22.8517 11.0658C22.9591 10.9688 23.1531 10.8646 23.483 10.7869C23.8094 10.7101 24.236 10.6671 24.7726 10.6671V9.60399ZM22.1462 10.2705C21.5803 10.7635 21.3706 11.5467 21.3706 12.451H22.4337C22.4337 11.6713 22.6195 11.2681 22.8445 11.0722L22.1462 10.2705ZM21.3706 12.451V17.8092H22.4337V12.451H21.3706ZM21.3706 17.8092C21.3706 18.7178 21.6084 19.4985 22.2222 19.986L22.8833 19.1534C22.6297 18.952 22.4337 18.559 22.4337 17.8092H21.3706ZM22.2281 19.9906C22.5429 20.2334 22.9617 20.3847 23.4348 20.4786C23.9142 20.5738 24.4905 20.6179 25.1553 20.6179V19.5548C24.5316 19.5548 24.0299 19.5129 23.6418 19.4358C23.2474 19.3575 23.0091 19.2504 22.8775 19.1488L22.2281 19.9906ZM25.1553 20.6179H28.772V19.5548H25.1553V20.6179ZM29.3036 20.0864V16.4314H28.2405V20.0864H29.3036ZM28.772 16.9629H28.9634V15.8998H28.772V16.9629ZM28.4318 16.4314V20.2777H29.495V16.4314H28.4318ZM28.9634 19.7462H25.1553V20.8093H28.9634V19.7462Z" fill="#84755F" mask="url(#path-1-outside-1_320_22)"/>
</svg>
