<svg width="60" height="43" viewBox="0 0 60 43" fill="none" xmlns="http://www.w3.org/2000/svg">
<mask id="path-1-outside-1_296_238" maskUnits="userSpaceOnUse" x="0" y="6" width="60" height="34" fill="black">
<rect fill="white" y="6" width="60" height="34"/>
<path d="M11.376 11.608L24.624 26.512V11.32H24.984V30.76H24.624V27.052L11.016 11.788C10.992 11.764 10.956 11.74 10.908 11.716C10.884 11.692 10.86 11.68 10.836 11.68C10.812 11.68 10.788 11.692 10.764 11.716C10.764 11.74 10.764 11.764 10.764 11.788V30.76H10.404V11.716C10.404 11.572 10.452 11.464 10.548 11.392C10.644 11.32 10.74 11.284 10.836 11.284C10.932 11.284 11.016 11.308 11.088 11.356C11.16 11.404 11.256 11.488 11.376 11.608ZM13.32 34C13.776 34 14.1 33.904 14.292 33.712C14.508 33.496 14.616 33.16 14.616 32.704V20.824L20.772 28.276V32.704C20.772 33.16 20.868 33.496 21.06 33.712C21.276 33.904 21.612 34 22.068 34H27.468C27.924 34 28.248 33.904 28.44 33.712C28.656 33.496 28.764 33.16 28.764 32.704V9.376C28.764 8.92 28.656 8.596 28.44 8.404C28.248 8.188 27.924 8.08 27.468 8.08H22.068C21.612 8.08 21.276 8.188 21.06 8.404C20.868 8.596 20.772 8.92 20.772 9.376V17.044L13.788 9.052C13.476 8.692 13.152 8.44 12.816 8.296C12.504 8.152 12.12 8.08 11.664 8.08H7.92C7.464 8.08 7.128 8.188 6.912 8.404C6.72 8.596 6.624 8.92 6.624 9.376V32.704C6.624 33.16 6.72 33.496 6.912 33.712C7.128 33.904 7.464 34 7.92 34H13.32ZM14.472 34.036L9.792 37.924C9.696 38.02 9.54 38.104 9.324 38.176C9.132 38.248 8.916 38.284 8.676 38.284H3.276C2.7 38.284 2.28 38.152 2.016 37.888C1.752 37.624 1.62 37.204 1.62 36.628V13.3C1.62 12.988 1.656 12.724 1.728 12.508C1.824 12.292 1.956 12.112 2.124 11.968L6.768 8.044C6.888 7.948 7.044 7.876 7.236 7.828C7.452 7.756 7.68 7.72 7.92 7.72H11.664C12.192 7.72 12.636 7.804 12.996 7.972C13.356 8.14 13.716 8.416 14.076 8.8L16.56 11.68L20.916 8.044C21.036 7.948 21.192 7.876 21.384 7.828C21.6 7.756 21.828 7.72 22.068 7.72H27.468C28.044 7.72 28.464 7.852 28.728 8.116C28.992 8.38 29.124 8.8 29.124 9.376V32.704C29.124 33.016 29.076 33.28 28.98 33.496C28.908 33.712 28.788 33.892 28.62 34.036L23.94 37.924C23.844 38.02 23.688 38.104 23.472 38.176C23.28 38.248 23.064 38.284 22.824 38.284H17.424C16.848 38.284 16.428 38.152 16.164 37.888C15.9 37.624 15.768 37.204 15.768 36.628V32.344L14.976 31.372V32.704C14.976 33.016 14.928 33.28 14.832 33.496C14.76 33.712 14.64 33.892 14.472 34.036ZM52.4714 38.284H41.1314C37.9874 38.284 35.6594 37.468 34.1474 35.836C32.6594 34.204 31.9154 32.092 31.9154 29.5V19.348C31.9154 18.028 32.1074 16.888 32.4914 15.928C32.8754 14.968 33.4394 14.164 34.1834 13.516L38.8274 9.592C39.5714 8.968 40.5194 8.5 41.6714 8.188C42.8474 7.876 44.2154 7.72 45.7754 7.72H54.7754C55.3514 7.72 55.7714 7.852 56.0354 8.116C56.2994 8.38 56.4314 8.8 56.4314 9.376V13.732C56.4314 14.044 56.3834 14.308 56.2874 14.524C56.2154 14.74 56.0954 14.92 55.9274 15.064L51.2474 18.952C51.1514 19.048 50.9954 19.132 50.7794 19.204C50.5874 19.276 50.3714 19.312 50.1314 19.312H45.4514V24.496C45.4754 24.448 45.5114 24.4 45.5594 24.352C45.6314 24.28 45.6914 24.22 45.7394 24.172L50.3834 20.248C50.5034 20.152 50.6594 20.08 50.8514 20.032C51.0674 19.96 51.2954 19.924 51.5354 19.924H57.1154C57.6914 19.924 58.1114 20.056 58.3754 20.32C58.6394 20.584 58.7714 21.004 58.7714 21.58V32.704C58.7714 33.016 58.7234 33.28 58.6274 33.496C58.5554 33.712 58.4354 33.892 58.2674 34.036L53.5874 37.924C53.4914 38.02 53.3354 38.104 53.1194 38.176C52.9274 38.248 52.7114 38.284 52.4714 38.284ZM57.1154 34C57.5714 34 57.8954 33.904 58.0874 33.712C58.3034 33.496 58.4114 33.16 58.4114 32.704V21.58C58.4114 21.124 58.3034 20.8 58.0874 20.608C57.8954 20.392 57.5714 20.284 57.1154 20.284H51.5354C51.0794 20.284 50.7434 20.392 50.5274 20.608C50.3354 20.8 50.2394 21.124 50.2394 21.58V27.196H46.7474C46.1954 27.196 45.7754 27.052 45.4874 26.764C45.2234 26.476 45.0914 26.032 45.0914 25.432V16.828C45.0914 16.228 45.2714 15.784 45.6314 15.496C45.9914 15.184 46.5434 15.028 47.2874 15.028H54.7754C55.2314 15.028 55.5554 14.932 55.7474 14.74C55.9634 14.524 56.0714 14.188 56.0714 13.732V9.376C56.0714 8.92 55.9634 8.596 55.7474 8.404C55.5554 8.188 55.2314 8.08 54.7754 8.08H45.7754C42.7754 8.08 40.5434 8.68 39.0794 9.88C37.6394 11.08 36.9194 12.928 36.9194 15.424V26.656C36.9194 29.152 37.6394 31 39.0794 32.2C40.5434 33.4 42.7754 34 45.7754 34H57.1154ZM47.3234 30.76C46.0034 30.76 44.9234 30.676 44.0834 30.508C43.2434 30.34 42.5834 30.076 42.1034 29.716C41.6234 29.332 41.2874 28.852 41.0954 28.276C40.9274 27.676 40.8434 26.956 40.8434 26.116V16.036C40.8434 14.332 41.2274 13.12 41.9954 12.4C42.7634 11.68 44.2994 11.32 46.6034 11.32H52.8314V11.68H46.6034C44.4914 11.68 43.0634 12.016 42.3194 12.688C41.5754 13.336 41.2034 14.452 41.2034 16.036V26.116C41.2034 27.676 41.6114 28.78 42.4274 29.428C43.2674 30.076 44.8994 30.4 47.3234 30.4H54.1274V23.524H54.4874V30.76H47.3234Z"/>
</mask>
<path d="M11.376 11.608L24.624 26.512V11.32H24.984V30.76H24.624V27.052L11.016 11.788C10.992 11.764 10.956 11.74 10.908 11.716C10.884 11.692 10.86 11.68 10.836 11.68C10.812 11.68 10.788 11.692 10.764 11.716C10.764 11.74 10.764 11.764 10.764 11.788V30.76H10.404V11.716C10.404 11.572 10.452 11.464 10.548 11.392C10.644 11.32 10.74 11.284 10.836 11.284C10.932 11.284 11.016 11.308 11.088 11.356C11.16 11.404 11.256 11.488 11.376 11.608ZM13.32 34C13.776 34 14.1 33.904 14.292 33.712C14.508 33.496 14.616 33.16 14.616 32.704V20.824L20.772 28.276V32.704C20.772 33.16 20.868 33.496 21.06 33.712C21.276 33.904 21.612 34 22.068 34H27.468C27.924 34 28.248 33.904 28.44 33.712C28.656 33.496 28.764 33.16 28.764 32.704V9.376C28.764 8.92 28.656 8.596 28.44 8.404C28.248 8.188 27.924 8.08 27.468 8.08H22.068C21.612 8.08 21.276 8.188 21.06 8.404C20.868 8.596 20.772 8.92 20.772 9.376V17.044L13.788 9.052C13.476 8.692 13.152 8.44 12.816 8.296C12.504 8.152 12.12 8.08 11.664 8.08H7.92C7.464 8.08 7.128 8.188 6.912 8.404C6.72 8.596 6.624 8.92 6.624 9.376V32.704C6.624 33.16 6.72 33.496 6.912 33.712C7.128 33.904 7.464 34 7.92 34H13.32ZM14.472 34.036L9.792 37.924C9.696 38.02 9.54 38.104 9.324 38.176C9.132 38.248 8.916 38.284 8.676 38.284H3.276C2.7 38.284 2.28 38.152 2.016 37.888C1.752 37.624 1.62 37.204 1.62 36.628V13.3C1.62 12.988 1.656 12.724 1.728 12.508C1.824 12.292 1.956 12.112 2.124 11.968L6.768 8.044C6.888 7.948 7.044 7.876 7.236 7.828C7.452 7.756 7.68 7.72 7.92 7.72H11.664C12.192 7.72 12.636 7.804 12.996 7.972C13.356 8.14 13.716 8.416 14.076 8.8L16.56 11.68L20.916 8.044C21.036 7.948 21.192 7.876 21.384 7.828C21.6 7.756 21.828 7.72 22.068 7.72H27.468C28.044 7.72 28.464 7.852 28.728 8.116C28.992 8.38 29.124 8.8 29.124 9.376V32.704C29.124 33.016 29.076 33.28 28.98 33.496C28.908 33.712 28.788 33.892 28.62 34.036L23.94 37.924C23.844 38.02 23.688 38.104 23.472 38.176C23.28 38.248 23.064 38.284 22.824 38.284H17.424C16.848 38.284 16.428 38.152 16.164 37.888C15.9 37.624 15.768 37.204 15.768 36.628V32.344L14.976 31.372V32.704C14.976 33.016 14.928 33.28 14.832 33.496C14.76 33.712 14.64 33.892 14.472 34.036ZM52.4714 38.284H41.1314C37.9874 38.284 35.6594 37.468 34.1474 35.836C32.6594 34.204 31.9154 32.092 31.9154 29.5V19.348C31.9154 18.028 32.1074 16.888 32.4914 15.928C32.8754 14.968 33.4394 14.164 34.1834 13.516L38.8274 9.592C39.5714 8.968 40.5194 8.5 41.6714 8.188C42.8474 7.876 44.2154 7.72 45.7754 7.72H54.7754C55.3514 7.72 55.7714 7.852 56.0354 8.116C56.2994 8.38 56.4314 8.8 56.4314 9.376V13.732C56.4314 14.044 56.3834 14.308 56.2874 14.524C56.2154 14.74 56.0954 14.92 55.9274 15.064L51.2474 18.952C51.1514 19.048 50.9954 19.132 50.7794 19.204C50.5874 19.276 50.3714 19.312 50.1314 19.312H45.4514V24.496C45.4754 24.448 45.5114 24.4 45.5594 24.352C45.6314 24.28 45.6914 24.22 45.7394 24.172L50.3834 20.248C50.5034 20.152 50.6594 20.08 50.8514 20.032C51.0674 19.96 51.2954 19.924 51.5354 19.924H57.1154C57.6914 19.924 58.1114 20.056 58.3754 20.32C58.6394 20.584 58.7714 21.004 58.7714 21.58V32.704C58.7714 33.016 58.7234 33.28 58.6274 33.496C58.5554 33.712 58.4354 33.892 58.2674 34.036L53.5874 37.924C53.4914 38.02 53.3354 38.104 53.1194 38.176C52.9274 38.248 52.7114 38.284 52.4714 38.284ZM57.1154 34C57.5714 34 57.8954 33.904 58.0874 33.712C58.3034 33.496 58.4114 33.16 58.4114 32.704V21.58C58.4114 21.124 58.3034 20.8 58.0874 20.608C57.8954 20.392 57.5714 20.284 57.1154 20.284H51.5354C51.0794 20.284 50.7434 20.392 50.5274 20.608C50.3354 20.8 50.2394 21.124 50.2394 21.58V27.196H46.7474C46.1954 27.196 45.7754 27.052 45.4874 26.764C45.2234 26.476 45.0914 26.032 45.0914 25.432V16.828C45.0914 16.228 45.2714 15.784 45.6314 15.496C45.9914 15.184 46.5434 15.028 47.2874 15.028H54.7754C55.2314 15.028 55.5554 14.932 55.7474 14.74C55.9634 14.524 56.0714 14.188 56.0714 13.732V9.376C56.0714 8.92 55.9634 8.596 55.7474 8.404C55.5554 8.188 55.2314 8.08 54.7754 8.08H45.7754C42.7754 8.08 40.5434 8.68 39.0794 9.88C37.6394 11.08 36.9194 12.928 36.9194 15.424V26.656C36.9194 29.152 37.6394 31 39.0794 32.2C40.5434 33.4 42.7754 34 45.7754 34H57.1154ZM47.3234 30.76C46.0034 30.76 44.9234 30.676 44.0834 30.508C43.2434 30.34 42.5834 30.076 42.1034 29.716C41.6234 29.332 41.2874 28.852 41.0954 28.276C40.9274 27.676 40.8434 26.956 40.8434 26.116V16.036C40.8434 14.332 41.2274 13.12 41.9954 12.4C42.7634 11.68 44.2994 11.32 46.6034 11.32H52.8314V11.68H46.6034C44.4914 11.68 43.0634 12.016 42.3194 12.688C41.5754 13.336 41.2034 14.452 41.2034 16.036V26.116C41.2034 27.676 41.6114 28.78 42.4274 29.428C43.2674 30.076 44.8994 30.4 47.3234 30.4H54.1274V23.524H54.4874V30.76H47.3234Z" fill="black"/>
<path d="M11.376 11.608L12.1234 10.9436L12.1039 10.9217L12.0831 10.9009L11.376 11.608ZM24.624 26.512L23.8766 27.1764L25.624 29.1422V26.512H24.624ZM24.624 11.32V10.32H23.624V11.32H24.624ZM24.984 11.32H25.984V10.32H24.984V11.32ZM24.984 30.76V31.76H25.984V30.76H24.984ZM24.624 30.76H23.624V31.76H24.624V30.76ZM24.624 27.052H25.624V26.671L25.3704 26.3865L24.624 27.052ZM11.016 11.788L11.7624 11.1225L11.7434 11.1011L11.7231 11.0809L11.016 11.788ZM10.908 11.716L10.2009 12.4231L10.3156 12.5379L10.4608 12.6104L10.908 11.716ZM10.764 11.716L10.0569 11.0089L9.764 11.3018V11.716H10.764ZM10.764 30.76V31.76H11.764V30.76H10.764ZM10.404 30.76H9.404V31.76H10.404V30.76ZM11.088 11.356L10.5333 12.188L10.5333 12.1881L11.088 11.356ZM14.292 33.712L13.5849 33.0049L13.5849 33.0049L14.292 33.712ZM14.616 20.824L15.387 20.1871L13.616 18.0433V20.824H14.616ZM20.772 28.276H21.772V27.9164L21.543 27.6391L20.772 28.276ZM21.06 33.712L20.3126 34.3764L20.3517 34.4203L20.3956 34.4594L21.06 33.712ZM28.44 33.712L27.7329 33.0049L27.7329 33.0049L28.44 33.712ZM28.44 8.404L27.6926 9.06836L27.7317 9.11233L27.7756 9.15141L28.44 8.404ZM20.772 17.044L20.019 17.702L21.772 19.708V17.044H20.772ZM13.788 9.052L13.0323 9.70694L13.035 9.71002L13.788 9.052ZM12.816 8.296L12.3969 9.20396L12.4094 9.20972L12.4221 9.21514L12.816 8.296ZM6.912 8.404L6.20489 7.69689L6.20489 7.69689L6.912 8.404ZM6.912 33.712L6.16459 34.3764L6.20367 34.4203L6.24764 34.4594L6.912 33.712ZM14.472 34.036L15.111 34.8052L15.1169 34.8003L15.1228 34.7953L14.472 34.036ZM9.792 37.924L9.15298 37.1548L9.11751 37.1843L9.08489 37.2169L9.792 37.924ZM9.324 38.176L9.00777 37.2273L8.99021 37.2332L8.97288 37.2397L9.324 38.176ZM1.728 12.508L0.814188 12.1019L0.794582 12.146L0.779317 12.1918L1.728 12.508ZM2.124 11.968L1.47857 11.2041L1.47321 11.2087L2.124 11.968ZM6.768 8.044L6.1433 7.26313L6.13283 7.27151L6.12259 7.28016L6.768 8.044ZM7.236 7.828L7.47854 8.79814L7.51579 8.78883L7.55222 8.77668L7.236 7.828ZM12.996 7.972L13.4189 7.06582L13.4189 7.06581L12.996 7.972ZM14.076 8.8L14.8332 8.14687L14.8197 8.13118L14.8055 8.11606L14.076 8.8ZM16.56 11.68L15.8028 12.3331L16.4454 13.0782L17.2008 12.4477L16.56 11.68ZM20.916 8.044L20.2913 7.26313L20.2832 7.26963L20.2752 7.2763L20.916 8.044ZM21.384 7.828L21.6265 8.79814L21.6638 8.78883L21.7002 8.77668L21.384 7.828ZM28.728 8.116L29.4351 7.40889L29.4351 7.40889L28.728 8.116ZM28.98 33.496L28.0662 33.0899L28.0466 33.134L28.0313 33.1798L28.98 33.496ZM28.62 34.036L29.259 34.8052L29.2649 34.8003L29.2708 34.7953L28.62 34.036ZM23.94 37.924L23.301 37.1548L23.2655 37.1843L23.2329 37.2169L23.94 37.924ZM23.472 38.176L23.1558 37.2273L23.1382 37.2332L23.1209 37.2397L23.472 38.176ZM16.164 37.888L16.8711 37.1809L16.8711 37.1809L16.164 37.888ZM15.768 32.344H16.768V31.9882L16.5432 31.7123L15.768 32.344ZM14.976 31.372L15.7512 30.7403L13.976 28.5616V31.372H14.976ZM14.832 33.496L13.9182 33.0899L13.8986 33.134L13.8833 33.1798L14.832 33.496ZM10.6286 12.2724L23.8766 27.1764L25.3714 25.8476L12.1234 10.9436L10.6286 12.2724ZM25.624 26.512V11.32H23.624V26.512H25.624ZM24.624 12.32H24.984V10.32H24.624V12.32ZM23.984 11.32V30.76H25.984V11.32H23.984ZM24.984 29.76H24.624V31.76H24.984V29.76ZM25.624 30.76V27.052H23.624V30.76H25.624ZM25.3704 26.3865L11.7624 11.1225L10.2696 12.4535L23.8776 27.7175L25.3704 26.3865ZM11.7231 11.0809C11.5921 10.9499 11.4503 10.8691 11.3552 10.8216L10.4608 12.6104C10.4561 12.6081 10.4398 12.5997 10.4163 12.5841C10.3937 12.569 10.3541 12.5403 10.3089 12.4951L11.7231 11.0809ZM11.6151 11.0089C11.4821 10.8759 11.2188 10.68 10.836 10.68V12.68C10.5012 12.68 10.2859 12.5081 10.2009 12.4231L11.6151 11.0089ZM10.836 10.68C10.4533 10.68 10.1899 10.8759 10.0569 11.0089L11.4711 12.4231C11.3861 12.5081 11.1708 12.68 10.836 12.68V10.68ZM9.764 11.716C9.764 11.716 9.764 11.7161 9.764 11.7161C9.764 11.7162 9.764 11.7162 9.764 11.7163C9.764 11.7163 9.764 11.7164 9.764 11.7164C9.764 11.7165 9.764 11.7165 9.764 11.7166C9.764 11.7166 9.764 11.7167 9.764 11.7167C9.764 11.7167 9.764 11.7168 9.764 11.7168C9.764 11.7169 9.764 11.7169 9.764 11.717C9.764 11.717 9.764 11.7171 9.764 11.7171C9.764 11.7172 9.764 11.7172 9.764 11.7173C9.764 11.7173 9.764 11.7174 9.764 11.7174C9.764 11.7175 9.764 11.7175 9.764 11.7175C9.764 11.7176 9.764 11.7176 9.764 11.7177C9.764 11.7177 9.764 11.7178 9.764 11.7178C9.764 11.7179 9.764 11.7179 9.764 11.718C9.764 11.718 9.764 11.7181 9.764 11.7181C9.764 11.7182 9.764 11.7182 9.764 11.7182C9.764 11.7183 9.764 11.7183 9.764 11.7184C9.764 11.7184 9.764 11.7185 9.764 11.7185C9.764 11.7186 9.764 11.7186 9.764 11.7187C9.764 11.7187 9.764 11.7188 9.764 11.7188C9.764 11.7189 9.764 11.7189 9.764 11.719C9.764 11.719 9.764 11.719 9.764 11.7191C9.764 11.7191 9.764 11.7192 9.764 11.7192C9.764 11.7193 9.764 11.7193 9.764 11.7194C9.764 11.7194 9.764 11.7195 9.764 11.7195C9.764 11.7196 9.764 11.7196 9.764 11.7197C9.764 11.7197 9.764 11.7197 9.764 11.7198C9.764 11.7198 9.764 11.7199 9.764 11.7199C9.764 11.72 9.764 11.72 9.764 11.7201C9.764 11.7201 9.764 11.7202 9.764 11.7202C9.764 11.7203 9.764 11.7203 9.764 11.7204C9.764 11.7204 9.764 11.7205 9.764 11.7205C9.764 11.7205 9.764 11.7206 9.764 11.7206C9.764 11.7207 9.764 11.7207 9.764 11.7208C9.764 11.7208 9.764 11.7209 9.764 11.7209C9.764 11.721 9.764 11.721 9.764 11.7211C9.764 11.7211 9.764 11.7212 9.764 11.7212C9.764 11.7212 9.764 11.7213 9.764 11.7213C9.764 11.7214 9.764 11.7214 9.764 11.7215C9.764 11.7215 9.764 11.7216 9.764 11.7216C9.764 11.7217 9.764 11.7217 9.764 11.7218C9.764 11.7218 9.764 11.7219 9.764 11.7219C9.764 11.722 9.764 11.722 9.764 11.722C9.764 11.7221 9.764 11.7221 9.764 11.7222C9.764 11.7222 9.764 11.7223 9.764 11.7223C9.764 11.7224 9.764 11.7224 9.764 11.7225C9.764 11.7225 9.764 11.7226 9.764 11.7226C9.764 11.7227 9.764 11.7227 9.764 11.7227C9.764 11.7228 9.764 11.7228 9.764 11.7229C9.764 11.7229 9.764 11.723 9.764 11.723C9.764 11.7231 9.764 11.7231 9.764 11.7232C9.764 11.7232 9.764 11.7233 9.764 11.7233C9.764 11.7234 9.764 11.7234 9.764 11.7235C9.764 11.7235 9.764 11.7235 9.764 11.7236C9.764 11.7236 9.764 11.7237 9.764 11.7237C9.764 11.7238 9.764 11.7238 9.764 11.7239C9.764 11.7239 9.764 11.724 9.764 11.724C9.764 11.7241 9.764 11.7241 9.764 11.7242C9.764 11.7242 9.764 11.7242 9.764 11.7243C9.764 11.7243 9.764 11.7244 9.764 11.7244C9.764 11.7245 9.764 11.7245 9.764 11.7246C9.764 11.7246 9.764 11.7247 9.764 11.7247C9.764 11.7248 9.764 11.7248 9.764 11.7249C9.764 11.7249 9.764 11.725 9.764 11.725C9.764 11.725 9.764 11.7251 9.764 11.7251C9.764 11.7252 9.764 11.7252 9.764 11.7253C9.764 11.7253 9.764 11.7254 9.764 11.7254C9.764 11.7255 9.764 11.7255 9.764 11.7256C9.764 11.7256 9.764 11.7257 9.764 11.7257C9.764 11.7257 9.764 11.7258 9.764 11.7258C9.764 11.7259 9.764 11.7259 9.764 11.726C9.764 11.726 9.764 11.7261 9.764 11.7261C9.764 11.7262 9.764 11.7262 9.764 11.7263C9.764 11.7263 9.764 11.7264 9.764 11.7264C9.764 11.7265 9.764 11.7265 9.764 11.7265C9.764 11.7266 9.764 11.7266 9.764 11.7267C9.764 11.7267 9.764 11.7268 9.764 11.7268C9.764 11.7269 9.764 11.7269 9.764 11.727C9.764 11.727 9.764 11.7271 9.764 11.7271C9.764 11.7272 9.764 11.7272 9.764 11.7272C9.764 11.7273 9.764 11.7273 9.764 11.7274C9.764 11.7274 9.764 11.7275 9.764 11.7275C9.764 11.7276 9.764 11.7276 9.764 11.7277C9.764 11.7277 9.764 11.7278 9.764 11.7278C9.764 11.7279 9.764 11.7279 9.764 11.728C9.764 11.728 9.764 11.728 9.764 11.7281C9.764 11.7281 9.764 11.7282 9.764 11.7282C9.764 11.7283 9.764 11.7283 9.764 11.7284C9.764 11.7284 9.764 11.7285 9.764 11.7285C9.764 11.7286 9.764 11.7286 9.764 11.7287C9.764 11.7287 9.764 11.7287 9.764 11.7288C9.764 11.7288 9.764 11.7289 9.764 11.7289C9.764 11.729 9.764 11.729 9.764 11.7291C9.764 11.7291 9.764 11.7292 9.764 11.7292C9.764 11.7293 9.764 11.7293 9.764 11.7294C9.764 11.7294 9.764 11.7295 9.764 11.7295C9.764 11.7295 9.764 11.7296 9.764 11.7296C9.764 11.7297 9.764 11.7297 9.764 11.7298C9.764 11.7298 9.764 11.7299 9.764 11.7299C9.764 11.73 9.764 11.73 9.764 11.7301C9.764 11.7301 9.764 11.7302 9.764 11.7302C9.764 11.7302 9.764 11.7303 9.764 11.7303C9.764 11.7304 9.764 11.7304 9.764 11.7305C9.764 11.7305 9.764 11.7306 9.764 11.7306C9.764 11.7307 9.764 11.7307 9.764 11.7308C9.764 11.7308 9.764 11.7309 9.764 11.7309C9.764 11.731 9.764 11.731 9.764 11.731C9.764 11.7311 9.764 11.7311 9.764 11.7312C9.764 11.7312 9.764 11.7313 9.764 11.7313C9.764 11.7314 9.764 11.7314 9.764 11.7315C9.764 11.7315 9.764 11.7316 9.764 11.7316C9.764 11.7317 9.764 11.7317 9.764 11.7317C9.764 11.7318 9.764 11.7318 9.764 11.7319C9.764 11.7319 9.764 11.732 9.764 11.732C9.764 11.7321 9.764 11.7321 9.764 11.7322C9.764 11.7322 9.764 11.7323 9.764 11.7323C9.764 11.7324 9.764 11.7324 9.764 11.7325C9.764 11.7325 9.764 11.7325 9.764 11.7326C9.764 11.7326 9.764 11.7327 9.764 11.7327C9.764 11.7328 9.764 11.7328 9.764 11.7329C9.764 11.7329 9.764 11.733 9.764 11.733C9.764 11.7331 9.764 11.7331 9.764 11.7332C9.764 11.7332 9.764 11.7332 9.764 11.7333C9.764 11.7333 9.764 11.7334 9.764 11.7334C9.764 11.7335 9.764 11.7335 9.764 11.7336C9.764 11.7336 9.764 11.7337 9.764 11.7337C9.764 11.7338 9.764 11.7338 9.764 11.7339C9.764 11.7339 9.764 11.734 9.764 11.734C9.764 11.734 9.764 11.7341 9.764 11.7341C9.764 11.7342 9.764 11.7342 9.764 11.7343C9.764 11.7343 9.764 11.7344 9.764 11.7344C9.764 11.7345 9.764 11.7345 9.764 11.7346C9.764 11.7346 9.764 11.7347 9.764 11.7347C9.764 11.7347 9.764 11.7348 9.764 11.7348C9.764 11.7349 9.764 11.7349 9.764 11.735C9.764 11.735 9.764 11.7351 9.764 11.7351C9.764 11.7352 9.764 11.7352 9.764 11.7353C9.764 11.7353 9.764 11.7354 9.764 11.7354C9.764 11.7355 9.764 11.7355 9.764 11.7355C9.764 11.7356 9.764 11.7356 9.764 11.7357C9.764 11.7357 9.764 11.7358 9.764 11.7358C9.764 11.7359 9.764 11.7359 9.764 11.736C9.764 11.736 9.764 11.7361 9.764 11.7361C9.764 11.7362 9.764 11.7362 9.764 11.7362C9.764 11.7363 9.764 11.7363 9.764 11.7364C9.764 11.7364 9.764 11.7365 9.764 11.7365C9.764 11.7366 9.764 11.7366 9.764 11.7367C9.764 11.7367 9.764 11.7368 9.764 11.7368C9.764 11.7369 9.764 11.7369 9.764 11.737C9.764 11.737 9.764 11.737 9.764 11.7371C9.764 11.7371 9.764 11.7372 9.764 11.7372C9.764 11.7373 9.764 11.7373 9.764 11.7374C9.764 11.7374 9.764 11.7375 9.764 11.7375C9.764 11.7376 9.764 11.7376 9.764 11.7377C9.764 11.7377 9.764 11.7377 9.764 11.7378C9.764 11.7378 9.764 11.7379 9.764 11.7379C9.764 11.738 9.764 11.738 9.764 11.7381C9.764 11.7381 9.764 11.7382 9.764 11.7382C9.764 11.7383 9.764 11.7383 9.764 11.7384C9.764 11.7384 9.764 11.7385 9.764 11.7385C9.764 11.7385 9.764 11.7386 9.764 11.7386C9.764 11.7387 9.764 11.7387 9.764 11.7388C9.764 11.7388 9.764 11.7389 9.764 11.7389C9.764 11.739 9.764 11.739 9.764 11.7391C9.764 11.7391 9.764 11.7392 9.764 11.7392C9.764 11.7392 9.764 11.7393 9.764 11.7393C9.764 11.7394 9.764 11.7394 9.764 11.7395C9.764 11.7395 9.764 11.7396 9.764 11.7396C9.764 11.7397 9.764 11.7397 9.764 11.7398C9.764 11.7398 9.764 11.7399 9.764 11.7399C9.764 11.74 9.764 11.74 9.764 11.74C9.764 11.7401 9.764 11.7401 9.764 11.7402C9.764 11.7402 9.764 11.7403 9.764 11.7403C9.764 11.7404 9.764 11.7404 9.764 11.7405C9.764 11.7405 9.764 11.7406 9.764 11.7406C9.764 11.7407 9.764 11.7407 9.764 11.7407C9.764 11.7408 9.764 11.7408 9.764 11.7409C9.764 11.7409 9.764 11.741 9.764 11.741C9.764 11.7411 9.764 11.7411 9.764 11.7412C9.764 11.7412 9.764 11.7413 9.764 11.7413C9.764 11.7414 9.764 11.7414 9.764 11.7415C9.764 11.7415 9.764 11.7415 9.764 11.7416C9.764 11.7416 9.764 11.7417 9.764 11.7417C9.764 11.7418 9.764 11.7418 9.764 11.7419C9.764 11.7419 9.764 11.742 9.764 11.742C9.764 11.7421 9.764 11.7421 9.764 11.7422C9.764 11.7422 9.764 11.7422 9.764 11.7423C9.764 11.7423 9.764 11.7424 9.764 11.7424C9.764 11.7425 9.764 11.7425 9.764 11.7426C9.764 11.7426 9.764 11.7427 9.764 11.7427C9.764 11.7428 9.764 11.7428 9.764 11.7429C9.764 11.7429 9.764 11.743 9.764 11.743C9.764 11.743 9.764 11.7431 9.764 11.7431C9.764 11.7432 9.764 11.7432 9.764 11.7433C9.764 11.7433 9.764 11.7434 9.764 11.7434C9.764 11.7435 9.764 11.7435 9.764 11.7436C9.764 11.7436 9.764 11.7437 9.764 11.7437C9.764 11.7437 9.764 11.7438 9.764 11.7438C9.764 11.7439 9.764 11.7439 9.764 11.744C9.764 11.744 9.764 11.7441 9.764 11.7441C9.764 11.7442 9.764 11.7442 9.764 11.7443C9.764 11.7443 9.764 11.7444 9.764 11.7444C9.764 11.7445 9.764 11.7445 9.764 11.7445C9.764 11.7446 9.764 11.7446 9.764 11.7447C9.764 11.7447 9.764 11.7448 9.764 11.7448C9.764 11.7449 9.764 11.7449 9.764 11.745C9.764 11.745 9.764 11.7451 9.764 11.7451C9.764 11.7452 9.764 11.7452 9.764 11.7452C9.764 11.7453 9.764 11.7453 9.764 11.7454C9.764 11.7454 9.764 11.7455 9.764 11.7455C9.764 11.7456 9.764 11.7456 9.764 11.7457C9.764 11.7457 9.764 11.7458 9.764 11.7458C9.764 11.7459 9.764 11.7459 9.764 11.746C9.764 11.746 9.764 11.746 9.764 11.7461C9.764 11.7461 9.764 11.7462 9.764 11.7462C9.764 11.7463 9.764 11.7463 9.764 11.7464C9.764 11.7464 9.764 11.7465 9.764 11.7465C9.764 11.7466 9.764 11.7466 9.764 11.7467C9.764 11.7467 9.764 11.7467 9.764 11.7468C9.764 11.7468 9.764 11.7469 9.764 11.7469C9.764 11.747 9.764 11.747 9.764 11.7471C9.764 11.7471 9.764 11.7472 9.764 11.7472C9.764 11.7473 9.764 11.7473 9.764 11.7474C9.764 11.7474 9.764 11.7475 9.764 11.7475C9.764 11.7475 9.764 11.7476 9.764 11.7476C9.764 11.7477 9.764 11.7477 9.764 11.7478C9.764 11.7478 9.764 11.7479 9.764 11.7479C9.764 11.748 9.764 11.748 9.764 11.7481C9.764 11.7481 9.764 11.7482 9.764 11.7482C9.764 11.7482 9.764 11.7483 9.764 11.7483C9.764 11.7484 9.764 11.7484 9.764 11.7485C9.764 11.7485 9.764 11.7486 9.764 11.7486C9.764 11.7487 9.764 11.7487 9.764 11.7488C9.764 11.7488 9.764 11.7489 9.764 11.7489C9.764 11.749 9.764 11.749 9.764 11.749C9.764 11.7491 9.764 11.7491 9.764 11.7492C9.764 11.7492 9.764 11.7493 9.764 11.7493C9.764 11.7494 9.764 11.7494 9.764 11.7495C9.764 11.7495 9.764 11.7496 9.764 11.7496C9.764 11.7497 9.764 11.7497 9.764 11.7497C9.764 11.7498 9.764 11.7498 9.764 11.7499C9.764 11.7499 9.764 11.75 9.764 11.75C9.764 11.7501 9.764 11.7501 9.764 11.7502C9.764 11.7502 9.764 11.7503 9.764 11.7503C9.764 11.7504 9.764 11.7504 9.764 11.7505C9.764 11.7505 9.764 11.7505 9.764 11.7506C9.764 11.7506 9.764 11.7507 9.764 11.7507C9.764 11.7508 9.764 11.7508 9.764 11.7509C9.764 11.7509 9.764 11.751 9.764 11.751C9.764 11.7511 9.764 11.7511 9.764 11.7512C9.764 11.7512 9.764 11.7512 9.764 11.7513C9.764 11.7513 9.764 11.7514 9.764 11.7514C9.764 11.7515 9.764 11.7515 9.764 11.7516C9.764 11.7516 9.764 11.7517 9.764 11.7517C9.764 11.7518 9.764 11.7518 9.764 11.7519C9.764 11.7519 9.764 11.752 9.764 11.752C9.764 11.752 9.764 11.7521 9.764 11.7521C9.764 11.7522 9.764 11.7522 9.764 11.7523C9.764 11.7523 9.764 11.7524 9.764 11.7524C9.764 11.7525 9.764 11.7525 9.764 11.7526C9.764 11.7526 9.764 11.7527 9.764 11.7527C9.764 11.7527 9.764 11.7528 9.764 11.7528C9.764 11.7529 9.764 11.7529 9.764 11.753C9.764 11.753 9.764 11.7531 9.764 11.7531C9.764 11.7532 9.764 11.7532 9.764 11.7533C9.764 11.7533 9.764 11.7534 9.764 11.7534C9.764 11.7535 9.764 11.7535 9.764 11.7535C9.764 11.7536 9.764 11.7536 9.764 11.7537C9.764 11.7537 9.764 11.7538 9.764 11.7538C9.764 11.7539 9.764 11.7539 9.764 11.754C9.764 11.754 9.764 11.7541 9.764 11.7541C9.764 11.7542 9.764 11.7542 9.764 11.7542C9.764 11.7543 9.764 11.7543 9.764 11.7544C9.764 11.7544 9.764 11.7545 9.764 11.7545C9.764 11.7546 9.764 11.7546 9.764 11.7547C9.764 11.7547 9.764 11.7548 9.764 11.7548C9.764 11.7549 9.764 11.7549 9.764 11.755C9.764 11.755 9.764 11.755 9.764 11.7551C9.764 11.7551 9.764 11.7552 9.764 11.7552C9.764 11.7553 9.764 11.7553 9.764 11.7554C9.764 11.7554 9.764 11.7555 9.764 11.7555C9.764 11.7556 9.764 11.7556 9.764 11.7557C9.764 11.7557 9.764 11.7557 9.764 11.7558C9.764 11.7558 9.764 11.7559 9.764 11.7559C9.764 11.756 9.764 11.756 9.764 11.7561C9.764 11.7561 9.764 11.7562 9.764 11.7562C9.764 11.7563 9.764 11.7563 9.764 11.7564C9.764 11.7564 9.764 11.7565 9.764 11.7565C9.764 11.7565 9.764 11.7566 9.764 11.7566C9.764 11.7567 9.764 11.7567 9.764 11.7568C9.764 11.7568 9.764 11.7569 9.764 11.7569C9.764 11.757 9.764 11.757 9.764 11.7571C9.764 11.7571 9.764 11.7572 9.764 11.7572C9.764 11.7572 9.764 11.7573 9.764 11.7573C9.764 11.7574 9.764 11.7574 9.764 11.7575C9.764 11.7575 9.764 11.7576 9.764 11.7576C9.764 11.7577 9.764 11.7577 9.764 11.7578C9.764 11.7578 9.764 11.7579 9.764 11.7579C9.764 11.758 9.764 11.758 9.764 11.758C9.764 11.7581 9.764 11.7581 9.764 11.7582C9.764 11.7582 9.764 11.7583 9.764 11.7583C9.764 11.7584 9.764 11.7584 9.764 11.7585C9.764 11.7585 9.764 11.7586 9.764 11.7586C9.764 11.7587 9.764 11.7587 9.764 11.7587C9.764 11.7588 9.764 11.7588 9.764 11.7589C9.764 11.7589 9.764 11.759 9.764 11.759C9.764 11.7591 9.764 11.7591 9.764 11.7592C9.764 11.7592 9.764 11.7593 9.764 11.7593C9.764 11.7594 9.764 11.7594 9.764 11.7595C9.764 11.7595 9.764 11.7595 9.764 11.7596C9.764 11.7596 9.764 11.7597 9.764 11.7597C9.764 11.7598 9.764 11.7598 9.764 11.7599C9.764 11.7599 9.764 11.76 9.764 11.76C9.764 11.7601 9.764 11.7601 9.764 11.7602C9.764 11.7602 9.764 11.7602 9.764 11.7603C9.764 11.7603 9.764 11.7604 9.764 11.7604C9.764 11.7605 9.764 11.7605 9.764 11.7606C9.764 11.7606 9.764 11.7607 9.764 11.7607C9.764 11.7608 9.764 11.7608 9.764 11.7609C9.764 11.7609 9.764 11.761 9.764 11.761C9.764 11.761 9.764 11.7611 9.764 11.7611C9.764 11.7612 9.764 11.7612 9.764 11.7613C9.764 11.7613 9.764 11.7614 9.764 11.7614C9.764 11.7615 9.764 11.7615 9.764 11.7616C9.764 11.7616 9.764 11.7617 9.764 11.7617C9.764 11.7617 9.764 11.7618 9.764 11.7618C9.764 11.7619 9.764 11.7619 9.764 11.762C9.764 11.762 9.764 11.7621 9.764 11.7621C9.764 11.7622 9.764 11.7622 9.764 11.7623C9.764 11.7623 9.764 11.7624 9.764 11.7624C9.764 11.7625 9.764 11.7625 9.764 11.7625C9.764 11.7626 9.764 11.7626 9.764 11.7627C9.764 11.7627 9.764 11.7628 9.764 11.7628C9.764 11.7629 9.764 11.7629 9.764 11.763C9.764 11.763 9.764 11.7631 9.764 11.7631C9.764 11.7632 9.764 11.7632 9.764 11.7632C9.764 11.7633 9.764 11.7633 9.764 11.7634C9.764 11.7634 9.764 11.7635 9.764 11.7635C9.764 11.7636 9.764 11.7636 9.764 11.7637C9.764 11.7637 9.764 11.7638 9.764 11.7638C9.764 11.7639 9.764 11.7639 9.764 11.764C9.764 11.764 9.764 11.764 9.764 11.7641C9.764 11.7641 9.764 11.7642 9.764 11.7642C9.764 11.7643 9.764 11.7643 9.764 11.7644C9.764 11.7644 9.764 11.7645 9.764 11.7645C9.764 11.7646 9.764 11.7646 9.764 11.7647C9.764 11.7647 9.764 11.7647 9.764 11.7648C9.764 11.7648 9.764 11.7649 9.764 11.7649C9.764 11.765 9.764 11.765 9.764 11.7651C9.764 11.7651 9.764 11.7652 9.764 11.7652C9.764 11.7653 9.764 11.7653 9.764 11.7654C9.764 11.7654 9.764 11.7655 9.764 11.7655C9.764 11.7655 9.764 11.7656 9.764 11.7656C9.764 11.7657 9.764 11.7657 9.764 11.7658C9.764 11.7658 9.764 11.7659 9.764 11.7659C9.764 11.766 9.764 11.766 9.764 11.7661C9.764 11.7661 9.764 11.7662 9.764 11.7662C9.764 11.7662 9.764 11.7663 9.764 11.7663C9.764 11.7664 9.764 11.7664 9.764 11.7665C9.764 11.7665 9.764 11.7666 9.764 11.7666C9.764 11.7667 9.764 11.7667 9.764 11.7668C9.764 11.7668 9.764 11.7669 9.764 11.7669C9.764 11.767 9.764 11.767 9.764 11.767C9.764 11.7671 9.764 11.7671 9.764 11.7672C9.764 11.7672 9.764 11.7673 9.764 11.7673C9.764 11.7674 9.764 11.7674 9.764 11.7675C9.764 11.7675 9.764 11.7676 9.764 11.7676C9.764 11.7677 9.764 11.7677 9.764 11.7677C9.764 11.7678 9.764 11.7678 9.764 11.7679C9.764 11.7679 9.764 11.768 9.764 11.768C9.764 11.7681 9.764 11.7681 9.764 11.7682C9.764 11.7682 9.764 11.7683 9.764 11.7683C9.764 11.7684 9.764 11.7684 9.764 11.7685C9.764 11.7685 9.764 11.7685 9.764 11.7686C9.764 11.7686 9.764 11.7687 9.764 11.7687C9.764 11.7688 9.764 11.7688 9.764 11.7689C9.764 11.7689 9.764 11.769 9.764 11.769C9.764 11.7691 9.764 11.7691 9.764 11.7692C9.764 11.7692 9.764 11.7692 9.764 11.7693C9.764 11.7693 9.764 11.7694 9.764 11.7694C9.764 11.7695 9.764 11.7695 9.764 11.7696C9.764 11.7696 9.764 11.7697 9.764 11.7697C9.764 11.7698 9.764 11.7698 9.764 11.7699C9.764 11.7699 9.764 11.77 9.764 11.77C9.764 11.77 9.764 11.7701 9.764 11.7701C9.764 11.7702 9.764 11.7702 9.764 11.7703C9.764 11.7703 9.764 11.7704 9.764 11.7704C9.764 11.7705 9.764 11.7705 9.764 11.7706C9.764 11.7706 9.764 11.7707 9.764 11.7707C9.764 11.7707 9.764 11.7708 9.764 11.7708C9.764 11.7709 9.764 11.7709 9.764 11.771C9.764 11.771 9.764 11.7711 9.764 11.7711C9.764 11.7712 9.764 11.7712 9.764 11.7713C9.764 11.7713 9.764 11.7714 9.764 11.7714C9.764 11.7715 9.764 11.7715 9.764 11.7715C9.764 11.7716 9.764 11.7716 9.764 11.7717C9.764 11.7717 9.764 11.7718 9.764 11.7718C9.764 11.7719 9.764 11.7719 9.764 11.772C9.764 11.772 9.764 11.7721 9.764 11.7721C9.764 11.7722 9.764 11.7722 9.764 11.7722C9.764 11.7723 9.764 11.7723 9.764 11.7724C9.764 11.7724 9.764 11.7725 9.764 11.7725C9.764 11.7726 9.764 11.7726 9.764 11.7727C9.764 11.7727 9.764 11.7728 9.764 11.7728C9.764 11.7729 9.764 11.7729 9.764 11.773C9.764 11.773 9.764 11.773 9.764 11.7731C9.764 11.7731 9.764 11.7732 9.764 11.7732C9.764 11.7733 9.764 11.7733 9.764 11.7734C9.764 11.7734 9.764 11.7735 9.764 11.7735C9.764 11.7736 9.764 11.7736 9.764 11.7737C9.764 11.7737 9.764 11.7737 9.764 11.7738C9.764 11.7738 9.764 11.7739 9.764 11.7739C9.764 11.774 9.764 11.774 9.764 11.7741C9.764 11.7741 9.764 11.7742 9.764 11.7742C9.764 11.7743 9.764 11.7743 9.764 11.7744C9.764 11.7744 9.764 11.7745 9.764 11.7745C9.764 11.7745 9.764 11.7746 9.764 11.7746C9.764 11.7747 9.764 11.7747 9.764 11.7748C9.764 11.7748 9.764 11.7749 9.764 11.7749C9.764 11.775 9.764 11.775 9.764 11.7751C9.764 11.7751 9.764 11.7752 9.764 11.7752C9.764 11.7752 9.764 11.7753 9.764 11.7753C9.764 11.7754 9.764 11.7754 9.764 11.7755C9.764 11.7755 9.764 11.7756 9.764 11.7756C9.764 11.7757 9.764 11.7757 9.764 11.7758C9.764 11.7758 9.764 11.7759 9.764 11.7759C9.764 11.776 9.764 11.776 9.764 11.776C9.764 11.7761 9.764 11.7761 9.764 11.7762C9.764 11.7762 9.764 11.7763 9.764 11.7763C9.764 11.7764 9.764 11.7764 9.764 11.7765C9.764 11.7765 9.764 11.7766 9.764 11.7766C9.764 11.7767 9.764 11.7767 9.764 11.7767C9.764 11.7768 9.764 11.7768 9.764 11.7769C9.764 11.7769 9.764 11.777 9.764 11.777C9.764 11.7771 9.764 11.7771 9.764 11.7772C9.764 11.7772 9.764 11.7773 9.764 11.7773C9.764 11.7774 9.764 11.7774 9.764 11.7775C9.764 11.7775 9.764 11.7775 9.764 11.7776C9.764 11.7776 9.764 11.7777 9.764 11.7777C9.764 11.7778 9.764 11.7778 9.764 11.7779C9.764 11.7779 9.764 11.778 9.764 11.778C9.764 11.7781 9.764 11.7781 9.764 11.7782C9.764 11.7782 9.764 11.7782 9.764 11.7783C9.764 11.7783 9.764 11.7784 9.764 11.7784C9.764 11.7785 9.764 11.7785 9.764 11.7786C9.764 11.7786 9.764 11.7787 9.764 11.7787C9.764 11.7788 9.764 11.7788 9.764 11.7789C9.764 11.7789 9.764 11.779 9.764 11.779C9.764 11.779 9.764 11.7791 9.764 11.7791C9.764 11.7792 9.764 11.7792 9.764 11.7793C9.764 11.7793 9.764 11.7794 9.764 11.7794C9.764 11.7795 9.764 11.7795 9.764 11.7796C9.764 11.7796 9.764 11.7797 9.764 11.7797C9.764 11.7797 9.764 11.7798 9.764 11.7798C9.764 11.7799 9.764 11.7799 9.764 11.78C9.764 11.78 9.764 11.7801 9.764 11.7801C9.764 11.7802 9.764 11.7802 9.764 11.7803C9.764 11.7803 9.764 11.7804 9.764 11.7804C9.764 11.7805 9.764 11.7805 9.764 11.7805C9.764 11.7806 9.764 11.7806 9.764 11.7807C9.764 11.7807 9.764 11.7808 9.764 11.7808C9.764 11.7809 9.764 11.7809 9.764 11.781C9.764 11.781 9.764 11.7811 9.764 11.7811C9.764 11.7812 9.764 11.7812 9.764 11.7812C9.764 11.7813 9.764 11.7813 9.764 11.7814C9.764 11.7814 9.764 11.7815 9.764 11.7815C9.764 11.7816 9.764 11.7816 9.764 11.7817C9.764 11.7817 9.764 11.7818 9.764 11.7818C9.764 11.7819 9.764 11.7819 9.764 11.782C9.764 11.782 9.764 11.782 9.764 11.7821C9.764 11.7821 9.764 11.7822 9.764 11.7822C9.764 11.7823 9.764 11.7823 9.764 11.7824C9.764 11.7824 9.764 11.7825 9.764 11.7825C9.764 11.7826 9.764 11.7826 9.764 11.7827C9.764 11.7827 9.764 11.7827 9.764 11.7828C9.764 11.7828 9.764 11.7829 9.764 11.7829C9.764 11.783 9.764 11.783 9.764 11.7831C9.764 11.7831 9.764 11.7832 9.764 11.7832C9.764 11.7833 9.764 11.7833 9.764 11.7834C9.764 11.7834 9.764 11.7835 9.764 11.7835C9.764 11.7835 9.764 11.7836 9.764 11.7836C9.764 11.7837 9.764 11.7837 9.764 11.7838C9.764 11.7838 9.764 11.7839 9.764 11.7839C9.764 11.784 9.764 11.784 9.764 11.7841C9.764 11.7841 9.764 11.7842 9.764 11.7842C9.764 11.7842 9.764 11.7843 9.764 11.7843C9.764 11.7844 9.764 11.7844 9.764 11.7845C9.764 11.7845 9.764 11.7846 9.764 11.7846C9.764 11.7847 9.764 11.7847 9.764 11.7848C9.764 11.7848 9.764 11.7849 9.764 11.7849C9.764 11.785 9.764 11.785 9.764 11.785C9.764 11.7851 9.764 11.7851 9.764 11.7852C9.764 11.7852 9.764 11.7853 9.764 11.7853C9.764 11.7854 9.764 11.7854 9.764 11.7855C9.764 11.7855 9.764 11.7856 9.764 11.7856C9.764 11.7857 9.764 11.7857 9.764 11.7857C9.764 11.7858 9.764 11.7858 9.764 11.7859C9.764 11.7859 9.764 11.786 9.764 11.786C9.764 11.7861 9.764 11.7861 9.764 11.7862C9.764 11.7862 9.764 11.7863 9.764 11.7863C9.764 11.7864 9.764 11.7864 9.764 11.7865C9.764 11.7865 9.764 11.7865 9.764 11.7866C9.764 11.7866 9.764 11.7867 9.764 11.7867C9.764 11.7868 9.764 11.7868 9.764 11.7869C9.764 11.7869 9.764 11.787 9.764 11.787C9.764 11.7871 9.764 11.7871 9.764 11.7872C9.764 11.7872 9.764 11.7872 9.764 11.7873C9.764 11.7873 9.764 11.7874 9.764 11.7874C9.764 11.7875 9.764 11.7875 9.764 11.7876C9.764 11.7876 9.764 11.7877 9.764 11.7877C9.764 11.7878 9.764 11.7878 9.764 11.7879C9.764 11.7879 9.764 11.788 9.764 11.788H11.764C11.764 11.788 11.764 11.7879 11.764 11.7879C11.764 11.7878 11.764 11.7878 11.764 11.7877C11.764 11.7877 11.764 11.7876 11.764 11.7876C11.764 11.7875 11.764 11.7875 11.764 11.7874C11.764 11.7874 11.764 11.7873 11.764 11.7873C11.764 11.7872 11.764 11.7872 11.764 11.7872C11.764 11.7871 11.764 11.7871 11.764 11.787C11.764 11.787 11.764 11.7869 11.764 11.7869C11.764 11.7868 11.764 11.7868 11.764 11.7867C11.764 11.7867 11.764 11.7866 11.764 11.7866C11.764 11.7865 11.764 11.7865 11.764 11.7865C11.764 11.7864 11.764 11.7864 11.764 11.7863C11.764 11.7863 11.764 11.7862 11.764 11.7862C11.764 11.7861 11.764 11.7861 11.764 11.786C11.764 11.786 11.764 11.7859 11.764 11.7859C11.764 11.7858 11.764 11.7858 11.764 11.7857C11.764 11.7857 11.764 11.7857 11.764 11.7856C11.764 11.7856 11.764 11.7855 11.764 11.7855C11.764 11.7854 11.764 11.7854 11.764 11.7853C11.764 11.7853 11.764 11.7852 11.764 11.7852C11.764 11.7851 11.764 11.7851 11.764 11.785C11.764 11.785 11.764 11.785 11.764 11.7849C11.764 11.7849 11.764 11.7848 11.764 11.7848C11.764 11.7847 11.764 11.7847 11.764 11.7846C11.764 11.7846 11.764 11.7845 11.764 11.7845C11.764 11.7844 11.764 11.7844 11.764 11.7843C11.764 11.7843 11.764 11.7842 11.764 11.7842C11.764 11.7842 11.764 11.7841 11.764 11.7841C11.764 11.784 11.764 11.784 11.764 11.7839C11.764 11.7839 11.764 11.7838 11.764 11.7838C11.764 11.7837 11.764 11.7837 11.764 11.7836C11.764 11.7836 11.764 11.7835 11.764 11.7835C11.764 11.7835 11.764 11.7834 11.764 11.7834C11.764 11.7833 11.764 11.7833 11.764 11.7832C11.764 11.7832 11.764 11.7831 11.764 11.7831C11.764 11.783 11.764 11.783 11.764 11.7829C11.764 11.7829 11.764 11.7828 11.764 11.7828C11.764 11.7827 11.764 11.7827 11.764 11.7827C11.764 11.7826 11.764 11.7826 11.764 11.7825C11.764 11.7825 11.764 11.7824 11.764 11.7824C11.764 11.7823 11.764 11.7823 11.764 11.7822C11.764 11.7822 11.764 11.7821 11.764 11.7821C11.764 11.782 11.764 11.782 11.764 11.782C11.764 11.7819 11.764 11.7819 11.764 11.7818C11.764 11.7818 11.764 11.7817 11.764 11.7817C11.764 11.7816 11.764 11.7816 11.764 11.7815C11.764 11.7815 11.764 11.7814 11.764 11.7814C11.764 11.7813 11.764 11.7813 11.764 11.7812C11.764 11.7812 11.764 11.7812 11.764 11.7811C11.764 11.7811 11.764 11.781 11.764 11.781C11.764 11.7809 11.764 11.7809 11.764 11.7808C11.764 11.7808 11.764 11.7807 11.764 11.7807C11.764 11.7806 11.764 11.7806 11.764 11.7805C11.764 11.7805 11.764 11.7805 11.764 11.7804C11.764 11.7804 11.764 11.7803 11.764 11.7803C11.764 11.7802 11.764 11.7802 11.764 11.7801C11.764 11.7801 11.764 11.78 11.764 11.78C11.764 11.7799 11.764 11.7799 11.764 11.7798C11.764 11.7798 11.764 11.7797 11.764 11.7797C11.764 11.7797 11.764 11.7796 11.764 11.7796C11.764 11.7795 11.764 11.7795 11.764 11.7794C11.764 11.7794 11.764 11.7793 11.764 11.7793C11.764 11.7792 11.764 11.7792 11.764 11.7791C11.764 11.7791 11.764 11.779 11.764 11.779C11.764 11.779 11.764 11.7789 11.764 11.7789C11.764 11.7788 11.764 11.7788 11.764 11.7787C11.764 11.7787 11.764 11.7786 11.764 11.7786C11.764 11.7785 11.764 11.7785 11.764 11.7784C11.764 11.7784 11.764 11.7783 11.764 11.7783C11.764 11.7782 11.764 11.7782 11.764 11.7782C11.764 11.7781 11.764 11.7781 11.764 11.778C11.764 11.778 11.764 11.7779 11.764 11.7779C11.764 11.7778 11.764 11.7778 11.764 11.7777C11.764 11.7777 11.764 11.7776 11.764 11.7776C11.764 11.7775 11.764 11.7775 11.764 11.7775C11.764 11.7774 11.764 11.7774 11.764 11.7773C11.764 11.7773 11.764 11.7772 11.764 11.7772C11.764 11.7771 11.764 11.7771 11.764 11.777C11.764 11.777 11.764 11.7769 11.764 11.7769C11.764 11.7768 11.764 11.7768 11.764 11.7767C11.764 11.7767 11.764 11.7767 11.764 11.7766C11.764 11.7766 11.764 11.7765 11.764 11.7765C11.764 11.7764 11.764 11.7764 11.764 11.7763C11.764 11.7763 11.764 11.7762 11.764 11.7762C11.764 11.7761 11.764 11.7761 11.764 11.776C11.764 11.776 11.764 11.776 11.764 11.7759C11.764 11.7759 11.764 11.7758 11.764 11.7758C11.764 11.7757 11.764 11.7757 11.764 11.7756C11.764 11.7756 11.764 11.7755 11.764 11.7755C11.764 11.7754 11.764 11.7754 11.764 11.7753C11.764 11.7753 11.764 11.7752 11.764 11.7752C11.764 11.7752 11.764 11.7751 11.764 11.7751C11.764 11.775 11.764 11.775 11.764 11.7749C11.764 11.7749 11.764 11.7748 11.764 11.7748C11.764 11.7747 11.764 11.7747 11.764 11.7746C11.764 11.7746 11.764 11.7745 11.764 11.7745C11.764 11.7745 11.764 11.7744 11.764 11.7744C11.764 11.7743 11.764 11.7743 11.764 11.7742C11.764 11.7742 11.764 11.7741 11.764 11.7741C11.764 11.774 11.764 11.774 11.764 11.7739C11.764 11.7739 11.764 11.7738 11.764 11.7738C11.764 11.7737 11.764 11.7737 11.764 11.7737C11.764 11.7736 11.764 11.7736 11.764 11.7735C11.764 11.7735 11.764 11.7734 11.764 11.7734C11.764 11.7733 11.764 11.7733 11.764 11.7732C11.764 11.7732 11.764 11.7731 11.764 11.7731C11.764 11.773 11.764 11.773 11.764 11.773C11.764 11.7729 11.764 11.7729 11.764 11.7728C11.764 11.7728 11.764 11.7727 11.764 11.7727C11.764 11.7726 11.764 11.7726 11.764 11.7725C11.764 11.7725 11.764 11.7724 11.764 11.7724C11.764 11.7723 11.764 11.7723 11.764 11.7722C11.764 11.7722 11.764 11.7722 11.764 11.7721C11.764 11.7721 11.764 11.772 11.764 11.772C11.764 11.7719 11.764 11.7719 11.764 11.7718C11.764 11.7718 11.764 11.7717 11.764 11.7717C11.764 11.7716 11.764 11.7716 11.764 11.7715C11.764 11.7715 11.764 11.7715 11.764 11.7714C11.764 11.7714 11.764 11.7713 11.764 11.7713C11.764 11.7712 11.764 11.7712 11.764 11.7711C11.764 11.7711 11.764 11.771 11.764 11.771C11.764 11.7709 11.764 11.7709 11.764 11.7708C11.764 11.7708 11.764 11.7707 11.764 11.7707C11.764 11.7707 11.764 11.7706 11.764 11.7706C11.764 11.7705 11.764 11.7705 11.764 11.7704C11.764 11.7704 11.764 11.7703 11.764 11.7703C11.764 11.7702 11.764 11.7702 11.764 11.7701C11.764 11.7701 11.764 11.77 11.764 11.77C11.764 11.77 11.764 11.7699 11.764 11.7699C11.764 11.7698 11.764 11.7698 11.764 11.7697C11.764 11.7697 11.764 11.7696 11.764 11.7696C11.764 11.7695 11.764 11.7695 11.764 11.7694C11.764 11.7694 11.764 11.7693 11.764 11.7693C11.764 11.7692 11.764 11.7692 11.764 11.7692C11.764 11.7691 11.764 11.7691 11.764 11.769C11.764 11.769 11.764 11.7689 11.764 11.7689C11.764 11.7688 11.764 11.7688 11.764 11.7687C11.764 11.7687 11.764 11.7686 11.764 11.7686C11.764 11.7685 11.764 11.7685 11.764 11.7685C11.764 11.7684 11.764 11.7684 11.764 11.7683C11.764 11.7683 11.764 11.7682 11.764 11.7682C11.764 11.7681 11.764 11.7681 11.764 11.768C11.764 11.768 11.764 11.7679 11.764 11.7679C11.764 11.7678 11.764 11.7678 11.764 11.7677C11.764 11.7677 11.764 11.7677 11.764 11.7676C11.764 11.7676 11.764 11.7675 11.764 11.7675C11.764 11.7674 11.764 11.7674 11.764 11.7673C11.764 11.7673 11.764 11.7672 11.764 11.7672C11.764 11.7671 11.764 11.7671 11.764 11.767C11.764 11.767 11.764 11.767 11.764 11.7669C11.764 11.7669 11.764 11.7668 11.764 11.7668C11.764 11.7667 11.764 11.7667 11.764 11.7666C11.764 11.7666 11.764 11.7665 11.764 11.7665C11.764 11.7664 11.764 11.7664 11.764 11.7663C11.764 11.7663 11.764 11.7662 11.764 11.7662C11.764 11.7662 11.764 11.7661 11.764 11.7661C11.764 11.766 11.764 11.766 11.764 11.7659C11.764 11.7659 11.764 11.7658 11.764 11.7658C11.764 11.7657 11.764 11.7657 11.764 11.7656C11.764 11.7656 11.764 11.7655 11.764 11.7655C11.764 11.7655 11.764 11.7654 11.764 11.7654C11.764 11.7653 11.764 11.7653 11.764 11.7652C11.764 11.7652 11.764 11.7651 11.764 11.7651C11.764 11.765 11.764 11.765 11.764 11.7649C11.764 11.7649 11.764 11.7648 11.764 11.7648C11.764 11.7647 11.764 11.7647 11.764 11.7647C11.764 11.7646 11.764 11.7646 11.764 11.7645C11.764 11.7645 11.764 11.7644 11.764 11.7644C11.764 11.7643 11.764 11.7643 11.764 11.7642C11.764 11.7642 11.764 11.7641 11.764 11.7641C11.764 11.764 11.764 11.764 11.764 11.764C11.764 11.7639 11.764 11.7639 11.764 11.7638C11.764 11.7638 11.764 11.7637 11.764 11.7637C11.764 11.7636 11.764 11.7636 11.764 11.7635C11.764 11.7635 11.764 11.7634 11.764 11.7634C11.764 11.7633 11.764 11.7633 11.764 11.7632C11.764 11.7632 11.764 11.7632 11.764 11.7631C11.764 11.7631 11.764 11.763 11.764 11.763C11.764 11.7629 11.764 11.7629 11.764 11.7628C11.764 11.7628 11.764 11.7627 11.764 11.7627C11.764 11.7626 11.764 11.7626 11.764 11.7625C11.764 11.7625 11.764 11.7625 11.764 11.7624C11.764 11.7624 11.764 11.7623 11.764 11.7623C11.764 11.7622 11.764 11.7622 11.764 11.7621C11.764 11.7621 11.764 11.762 11.764 11.762C11.764 11.7619 11.764 11.7619 11.764 11.7618C11.764 11.7618 11.764 11.7617 11.764 11.7617C11.764 11.7617 11.764 11.7616 11.764 11.7616C11.764 11.7615 11.764 11.7615 11.764 11.7614C11.764 11.7614 11.764 11.7613 11.764 11.7613C11.764 11.7612 11.764 11.7612 11.764 11.7611C11.764 11.7611 11.764 11.761 11.764 11.761C11.764 11.761 11.764 11.7609 11.764 11.7609C11.764 11.7608 11.764 11.7608 11.764 11.7607C11.764 11.7607 11.764 11.7606 11.764 11.7606C11.764 11.7605 11.764 11.7605 11.764 11.7604C11.764 11.7604 11.764 11.7603 11.764 11.7603C11.764 11.7602 11.764 11.7602 11.764 11.7602C11.764 11.7601 11.764 11.7601 11.764 11.76C11.764 11.76 11.764 11.7599 11.764 11.7599C11.764 11.7598 11.764 11.7598 11.764 11.7597C11.764 11.7597 11.764 11.7596 11.764 11.7596C11.764 11.7595 11.764 11.7595 11.764 11.7595C11.764 11.7594 11.764 11.7594 11.764 11.7593C11.764 11.7593 11.764 11.7592 11.764 11.7592C11.764 11.7591 11.764 11.7591 11.764 11.759C11.764 11.759 11.764 11.7589 11.764 11.7589C11.764 11.7588 11.764 11.7588 11.764 11.7587C11.764 11.7587 11.764 11.7587 11.764 11.7586C11.764 11.7586 11.764 11.7585 11.764 11.7585C11.764 11.7584 11.764 11.7584 11.764 11.7583C11.764 11.7583 11.764 11.7582 11.764 11.7582C11.764 11.7581 11.764 11.7581 11.764 11.758C11.764 11.758 11.764 11.758 11.764 11.7579C11.764 11.7579 11.764 11.7578 11.764 11.7578C11.764 11.7577 11.764 11.7577 11.764 11.7576C11.764 11.7576 11.764 11.7575 11.764 11.7575C11.764 11.7574 11.764 11.7574 11.764 11.7573C11.764 11.7573 11.764 11.7572 11.764 11.7572C11.764 11.7572 11.764 11.7571 11.764 11.7571C11.764 11.757 11.764 11.757 11.764 11.7569C11.764 11.7569 11.764 11.7568 11.764 11.7568C11.764 11.7567 11.764 11.7567 11.764 11.7566C11.764 11.7566 11.764 11.7565 11.764 11.7565C11.764 11.7565 11.764 11.7564 11.764 11.7564C11.764 11.7563 11.764 11.7563 11.764 11.7562C11.764 11.7562 11.764 11.7561 11.764 11.7561C11.764 11.756 11.764 11.756 11.764 11.7559C11.764 11.7559 11.764 11.7558 11.764 11.7558C11.764 11.7557 11.764 11.7557 11.764 11.7557C11.764 11.7556 11.764 11.7556 11.764 11.7555C11.764 11.7555 11.764 11.7554 11.764 11.7554C11.764 11.7553 11.764 11.7553 11.764 11.7552C11.764 11.7552 11.764 11.7551 11.764 11.7551C11.764 11.755 11.764 11.755 11.764 11.755C11.764 11.7549 11.764 11.7549 11.764 11.7548C11.764 11.7548 11.764 11.7547 11.764 11.7547C11.764 11.7546 11.764 11.7546 11.764 11.7545C11.764 11.7545 11.764 11.7544 11.764 11.7544C11.764 11.7543 11.764 11.7543 11.764 11.7542C11.764 11.7542 11.764 11.7542 11.764 11.7541C11.764 11.7541 11.764 11.754 11.764 11.754C11.764 11.7539 11.764 11.7539 11.764 11.7538C11.764 11.7538 11.764 11.7537 11.764 11.7537C11.764 11.7536 11.764 11.7536 11.764 11.7535C11.764 11.7535 11.764 11.7535 11.764 11.7534C11.764 11.7534 11.764 11.7533 11.764 11.7533C11.764 11.7532 11.764 11.7532 11.764 11.7531C11.764 11.7531 11.764 11.753 11.764 11.753C11.764 11.7529 11.764 11.7529 11.764 11.7528C11.764 11.7528 11.764 11.7527 11.764 11.7527C11.764 11.7527 11.764 11.7526 11.764 11.7526C11.764 11.7525 11.764 11.7525 11.764 11.7524C11.764 11.7524 11.764 11.7523 11.764 11.7523C11.764 11.7522 11.764 11.7522 11.764 11.7521C11.764 11.7521 11.764 11.752 11.764 11.752C11.764 11.752 11.764 11.7519 11.764 11.7519C11.764 11.7518 11.764 11.7518 11.764 11.7517C11.764 11.7517 11.764 11.7516 11.764 11.7516C11.764 11.7515 11.764 11.7515 11.764 11.7514C11.764 11.7514 11.764 11.7513 11.764 11.7513C11.764 11.7512 11.764 11.7512 11.764 11.7512C11.764 11.7511 11.764 11.7511 11.764 11.751C11.764 11.751 11.764 11.7509 11.764 11.7509C11.764 11.7508 11.764 11.7508 11.764 11.7507C11.764 11.7507 11.764 11.7506 11.764 11.7506C11.764 11.7505 11.764 11.7505 11.764 11.7505C11.764 11.7504 11.764 11.7504 11.764 11.7503C11.764 11.7503 11.764 11.7502 11.764 11.7502C11.764 11.7501 11.764 11.7501 11.764 11.75C11.764 11.75 11.764 11.7499 11.764 11.7499C11.764 11.7498 11.764 11.7498 11.764 11.7497C11.764 11.7497 11.764 11.7497 11.764 11.7496C11.764 11.7496 11.764 11.7495 11.764 11.7495C11.764 11.7494 11.764 11.7494 11.764 11.7493C11.764 11.7493 11.764 11.7492 11.764 11.7492C11.764 11.7491 11.764 11.7491 11.764 11.749C11.764 11.749 11.764 11.749 11.764 11.7489C11.764 11.7489 11.764 11.7488 11.764 11.7488C11.764 11.7487 11.764 11.7487 11.764 11.7486C11.764 11.7486 11.764 11.7485 11.764 11.7485C11.764 11.7484 11.764 11.7484 11.764 11.7483C11.764 11.7483 11.764 11.7482 11.764 11.7482C11.764 11.7482 11.764 11.7481 11.764 11.7481C11.764 11.748 11.764 11.748 11.764 11.7479C11.764 11.7479 11.764 11.7478 11.764 11.7478C11.764 11.7477 11.764 11.7477 11.764 11.7476C11.764 11.7476 11.764 11.7475 11.764 11.7475C11.764 11.7475 11.764 11.7474 11.764 11.7474C11.764 11.7473 11.764 11.7473 11.764 11.7472C11.764 11.7472 11.764 11.7471 11.764 11.7471C11.764 11.747 11.764 11.747 11.764 11.7469C11.764 11.7469 11.764 11.7468 11.764 11.7468C11.764 11.7467 11.764 11.7467 11.764 11.7467C11.764 11.7466 11.764 11.7466 11.764 11.7465C11.764 11.7465 11.764 11.7464 11.764 11.7464C11.764 11.7463 11.764 11.7463 11.764 11.7462C11.764 11.7462 11.764 11.7461 11.764 11.7461C11.764 11.746 11.764 11.746 11.764 11.746C11.764 11.7459 11.764 11.7459 11.764 11.7458C11.764 11.7458 11.764 11.7457 11.764 11.7457C11.764 11.7456 11.764 11.7456 11.764 11.7455C11.764 11.7455 11.764 11.7454 11.764 11.7454C11.764 11.7453 11.764 11.7453 11.764 11.7452C11.764 11.7452 11.764 11.7452 11.764 11.7451C11.764 11.7451 11.764 11.745 11.764 11.745C11.764 11.7449 11.764 11.7449 11.764 11.7448C11.764 11.7448 11.764 11.7447 11.764 11.7447C11.764 11.7446 11.764 11.7446 11.764 11.7445C11.764 11.7445 11.764 11.7445 11.764 11.7444C11.764 11.7444 11.764 11.7443 11.764 11.7443C11.764 11.7442 11.764 11.7442 11.764 11.7441C11.764 11.7441 11.764 11.744 11.764 11.744C11.764 11.7439 11.764 11.7439 11.764 11.7438C11.764 11.7438 11.764 11.7437 11.764 11.7437C11.764 11.7437 11.764 11.7436 11.764 11.7436C11.764 11.7435 11.764 11.7435 11.764 11.7434C11.764 11.7434 11.764 11.7433 11.764 11.7433C11.764 11.7432 11.764 11.7432 11.764 11.7431C11.764 11.7431 11.764 11.743 11.764 11.743C11.764 11.743 11.764 11.7429 11.764 11.7429C11.764 11.7428 11.764 11.7428 11.764 11.7427C11.764 11.7427 11.764 11.7426 11.764 11.7426C11.764 11.7425 11.764 11.7425 11.764 11.7424C11.764 11.7424 11.764 11.7423 11.764 11.7423C11.764 11.7422 11.764 11.7422 11.764 11.7422C11.764 11.7421 11.764 11.7421 11.764 11.742C11.764 11.742 11.764 11.7419 11.764 11.7419C11.764 11.7418 11.764 11.7418 11.764 11.7417C11.764 11.7417 11.764 11.7416 11.764 11.7416C11.764 11.7415 11.764 11.7415 11.764 11.7415C11.764 11.7414 11.764 11.7414 11.764 11.7413C11.764 11.7413 11.764 11.7412 11.764 11.7412C11.764 11.7411 11.764 11.7411 11.764 11.741C11.764 11.741 11.764 11.7409 11.764 11.7409C11.764 11.7408 11.764 11.7408 11.764 11.7407C11.764 11.7407 11.764 11.7407 11.764 11.7406C11.764 11.7406 11.764 11.7405 11.764 11.7405C11.764 11.7404 11.764 11.7404 11.764 11.7403C11.764 11.7403 11.764 11.7402 11.764 11.7402C11.764 11.7401 11.764 11.7401 11.764 11.74C11.764 11.74 11.764 11.74 11.764 11.7399C11.764 11.7399 11.764 11.7398 11.764 11.7398C11.764 11.7397 11.764 11.7397 11.764 11.7396C11.764 11.7396 11.764 11.7395 11.764 11.7395C11.764 11.7394 11.764 11.7394 11.764 11.7393C11.764 11.7393 11.764 11.7392 11.764 11.7392C11.764 11.7392 11.764 11.7391 11.764 11.7391C11.764 11.739 11.764 11.739 11.764 11.7389C11.764 11.7389 11.764 11.7388 11.764 11.7388C11.764 11.7387 11.764 11.7387 11.764 11.7386C11.764 11.7386 11.764 11.7385 11.764 11.7385C11.764 11.7385 11.764 11.7384 11.764 11.7384C11.764 11.7383 11.764 11.7383 11.764 11.7382C11.764 11.7382 11.764 11.7381 11.764 11.7381C11.764 11.738 11.764 11.738 11.764 11.7379C11.764 11.7379 11.764 11.7378 11.764 11.7378C11.764 11.7377 11.764 11.7377 11.764 11.7377C11.764 11.7376 11.764 11.7376 11.764 11.7375C11.764 11.7375 11.764 11.7374 11.764 11.7374C11.764 11.7373 11.764 11.7373 11.764 11.7372C11.764 11.7372 11.764 11.7371 11.764 11.7371C11.764 11.737 11.764 11.737 11.764 11.737C11.764 11.7369 11.764 11.7369 11.764 11.7368C11.764 11.7368 11.764 11.7367 11.764 11.7367C11.764 11.7366 11.764 11.7366 11.764 11.7365C11.764 11.7365 11.764 11.7364 11.764 11.7364C11.764 11.7363 11.764 11.7363 11.764 11.7362C11.764 11.7362 11.764 11.7362 11.764 11.7361C11.764 11.7361 11.764 11.736 11.764 11.736C11.764 11.7359 11.764 11.7359 11.764 11.7358C11.764 11.7358 11.764 11.7357 11.764 11.7357C11.764 11.7356 11.764 11.7356 11.764 11.7355C11.764 11.7355 11.764 11.7355 11.764 11.7354C11.764 11.7354 11.764 11.7353 11.764 11.7353C11.764 11.7352 11.764 11.7352 11.764 11.7351C11.764 11.7351 11.764 11.735 11.764 11.735C11.764 11.7349 11.764 11.7349 11.764 11.7348C11.764 11.7348 11.764 11.7347 11.764 11.7347C11.764 11.7347 11.764 11.7346 11.764 11.7346C11.764 11.7345 11.764 11.7345 11.764 11.7344C11.764 11.7344 11.764 11.7343 11.764 11.7343C11.764 11.7342 11.764 11.7342 11.764 11.7341C11.764 11.7341 11.764 11.734 11.764 11.734C11.764 11.734 11.764 11.7339 11.764 11.7339C11.764 11.7338 11.764 11.7338 11.764 11.7337C11.764 11.7337 11.764 11.7336 11.764 11.7336C11.764 11.7335 11.764 11.7335 11.764 11.7334C11.764 11.7334 11.764 11.7333 11.764 11.7333C11.764 11.7332 11.764 11.7332 11.764 11.7332C11.764 11.7331 11.764 11.7331 11.764 11.733C11.764 11.733 11.764 11.7329 11.764 11.7329C11.764 11.7328 11.764 11.7328 11.764 11.7327C11.764 11.7327 11.764 11.7326 11.764 11.7326C11.764 11.7325 11.764 11.7325 11.764 11.7325C11.764 11.7324 11.764 11.7324 11.764 11.7323C11.764 11.7323 11.764 11.7322 11.764 11.7322C11.764 11.7321 11.764 11.7321 11.764 11.732C11.764 11.732 11.764 11.7319 11.764 11.7319C11.764 11.7318 11.764 11.7318 11.764 11.7317C11.764 11.7317 11.764 11.7317 11.764 11.7316C11.764 11.7316 11.764 11.7315 11.764 11.7315C11.764 11.7314 11.764 11.7314 11.764 11.7313C11.764 11.7313 11.764 11.7312 11.764 11.7312C11.764 11.7311 11.764 11.7311 11.764 11.731C11.764 11.731 11.764 11.731 11.764 11.7309C11.764 11.7309 11.764 11.7308 11.764 11.7308C11.764 11.7307 11.764 11.7307 11.764 11.7306C11.764 11.7306 11.764 11.7305 11.764 11.7305C11.764 11.7304 11.764 11.7304 11.764 11.7303C11.764 11.7303 11.764 11.7302 11.764 11.7302C11.764 11.7302 11.764 11.7301 11.764 11.7301C11.764 11.73 11.764 11.73 11.764 11.7299C11.764 11.7299 11.764 11.7298 11.764 11.7298C11.764 11.7297 11.764 11.7297 11.764 11.7296C11.764 11.7296 11.764 11.7295 11.764 11.7295C11.764 11.7295 11.764 11.7294 11.764 11.7294C11.764 11.7293 11.764 11.7293 11.764 11.7292C11.764 11.7292 11.764 11.7291 11.764 11.7291C11.764 11.729 11.764 11.729 11.764 11.7289C11.764 11.7289 11.764 11.7288 11.764 11.7288C11.764 11.7287 11.764 11.7287 11.764 11.7287C11.764 11.7286 11.764 11.7286 11.764 11.7285C11.764 11.7285 11.764 11.7284 11.764 11.7284C11.764 11.7283 11.764 11.7283 11.764 11.7282C11.764 11.7282 11.764 11.7281 11.764 11.7281C11.764 11.728 11.764 11.728 11.764 11.728C11.764 11.7279 11.764 11.7279 11.764 11.7278C11.764 11.7278 11.764 11.7277 11.764 11.7277C11.764 11.7276 11.764 11.7276 11.764 11.7275C11.764 11.7275 11.764 11.7274 11.764 11.7274C11.764 11.7273 11.764 11.7273 11.764 11.7272C11.764 11.7272 11.764 11.7272 11.764 11.7271C11.764 11.7271 11.764 11.727 11.764 11.727C11.764 11.7269 11.764 11.7269 11.764 11.7268C11.764 11.7268 11.764 11.7267 11.764 11.7267C11.764 11.7266 11.764 11.7266 11.764 11.7265C11.764 11.7265 11.764 11.7265 11.764 11.7264C11.764 11.7264 11.764 11.7263 11.764 11.7263C11.764 11.7262 11.764 11.7262 11.764 11.7261C11.764 11.7261 11.764 11.726 11.764 11.726C11.764 11.7259 11.764 11.7259 11.764 11.7258C11.764 11.7258 11.764 11.7257 11.764 11.7257C11.764 11.7257 11.764 11.7256 11.764 11.7256C11.764 11.7255 11.764 11.7255 11.764 11.7254C11.764 11.7254 11.764 11.7253 11.764 11.7253C11.764 11.7252 11.764 11.7252 11.764 11.7251C11.764 11.7251 11.764 11.725 11.764 11.725C11.764 11.725 11.764 11.7249 11.764 11.7249C11.764 11.7248 11.764 11.7248 11.764 11.7247C11.764 11.7247 11.764 11.7246 11.764 11.7246C11.764 11.7245 11.764 11.7245 11.764 11.7244C11.764 11.7244 11.764 11.7243 11.764 11.7243C11.764 11.7242 11.764 11.7242 11.764 11.7242C11.764 11.7241 11.764 11.7241 11.764 11.724C11.764 11.724 11.764 11.7239 11.764 11.7239C11.764 11.7238 11.764 11.7238 11.764 11.7237C11.764 11.7237 11.764 11.7236 11.764 11.7236C11.764 11.7235 11.764 11.7235 11.764 11.7235C11.764 11.7234 11.764 11.7234 11.764 11.7233C11.764 11.7233 11.764 11.7232 11.764 11.7232C11.764 11.7231 11.764 11.7231 11.764 11.723C11.764 11.723 11.764 11.7229 11.764 11.7229C11.764 11.7228 11.764 11.7228 11.764 11.7227C11.764 11.7227 11.764 11.7227 11.764 11.7226C11.764 11.7226 11.764 11.7225 11.764 11.7225C11.764 11.7224 11.764 11.7224 11.764 11.7223C11.764 11.7223 11.764 11.7222 11.764 11.7222C11.764 11.7221 11.764 11.7221 11.764 11.722C11.764 11.722 11.764 11.722 11.764 11.7219C11.764 11.7219 11.764 11.7218 11.764 11.7218C11.764 11.7217 11.764 11.7217 11.764 11.7216C11.764 11.7216 11.764 11.7215 11.764 11.7215C11.764 11.7214 11.764 11.7214 11.764 11.7213C11.764 11.7213 11.764 11.7212 11.764 11.7212C11.764 11.7212 11.764 11.7211 11.764 11.7211C11.764 11.721 11.764 11.721 11.764 11.7209C11.764 11.7209 11.764 11.7208 11.764 11.7208C11.764 11.7207 11.764 11.7207 11.764 11.7206C11.764 11.7206 11.764 11.7205 11.764 11.7205C11.764 11.7205 11.764 11.7204 11.764 11.7204C11.764 11.7203 11.764 11.7203 11.764 11.7202C11.764 11.7202 11.764 11.7201 11.764 11.7201C11.764 11.72 11.764 11.72 11.764 11.7199C11.764 11.7199 11.764 11.7198 11.764 11.7198C11.764 11.7197 11.764 11.7197 11.764 11.7197C11.764 11.7196 11.764 11.7196 11.764 11.7195C11.764 11.7195 11.764 11.7194 11.764 11.7194C11.764 11.7193 11.764 11.7193 11.764 11.7192C11.764 11.7192 11.764 11.7191 11.764 11.7191C11.764 11.719 11.764 11.719 11.764 11.719C11.764 11.7189 11.764 11.7189 11.764 11.7188C11.764 11.7188 11.764 11.7187 11.764 11.7187C11.764 11.7186 11.764 11.7186 11.764 11.7185C11.764 11.7185 11.764 11.7184 11.764 11.7184C11.764 11.7183 11.764 11.7183 11.764 11.7182C11.764 11.7182 11.764 11.7182 11.764 11.7181C11.764 11.7181 11.764 11.718 11.764 11.718C11.764 11.7179 11.764 11.7179 11.764 11.7178C11.764 11.7178 11.764 11.7177 11.764 11.7177C11.764 11.7176 11.764 11.7176 11.764 11.7175C11.764 11.7175 11.764 11.7175 11.764 11.7174C11.764 11.7174 11.764 11.7173 11.764 11.7173C11.764 11.7172 11.764 11.7172 11.764 11.7171C11.764 11.7171 11.764 11.717 11.764 11.717C11.764 11.7169 11.764 11.7169 11.764 11.7168C11.764 11.7168 11.764 11.7167 11.764 11.7167C11.764 11.7167 11.764 11.7166 11.764 11.7166C11.764 11.7165 11.764 11.7165 11.764 11.7164C11.764 11.7164 11.764 11.7163 11.764 11.7163C11.764 11.7162 11.764 11.7162 11.764 11.7161C11.764 11.7161 11.764 11.716 11.764 11.716H9.764ZM9.764 11.788V30.76H11.764V11.788H9.764ZM10.764 29.76H10.404V31.76H10.764V29.76ZM11.404 30.76V11.716H9.404V30.76H11.404ZM11.404 11.716C11.404 11.754 11.3976 11.8345 11.3538 11.9331C11.3074 12.0375 11.2343 12.1273 11.148 12.192L9.948 10.592C9.5485 10.8916 9.404 11.328 9.404 11.716H11.404ZM11.148 12.192C11.1148 12.2169 11.0055 12.284 10.836 12.284V10.284C10.4745 10.284 10.1732 10.4231 9.948 10.592L11.148 12.192ZM10.836 12.284C10.757 12.284 10.6433 12.2614 10.5333 12.188L11.6427 10.524C11.3887 10.3546 11.107 10.284 10.836 10.284V12.284ZM10.5333 12.1881C10.5204 12.1794 10.5265 12.1822 10.5555 12.2076C10.5824 12.2311 10.6198 12.266 10.6689 12.3151L12.0831 10.9009C11.9519 10.7697 11.7995 10.6285 11.6427 10.5239L10.5333 12.1881ZM13.32 35C13.8714 35 14.5265 34.8918 14.9991 34.4191L13.5849 33.0049C13.6322 32.9576 13.6616 32.9571 13.6209 32.9692C13.5769 32.9822 13.483 33 13.32 33V35ZM14.9991 34.4191C15.4777 33.9405 15.616 33.2958 15.616 32.704H13.616C13.616 33.0242 13.5383 33.0515 13.5849 33.0049L14.9991 34.4191ZM15.616 32.704V20.824H13.616V32.704H15.616ZM13.845 21.4609L20.001 28.9129L21.543 27.6391L15.387 20.1871L13.845 21.4609ZM19.772 28.276V32.704H21.772V28.276H19.772ZM19.772 32.704C19.772 33.2702 19.8864 33.8969 20.3126 34.3764L21.8074 33.0476C21.8298 33.0728 21.8208 33.0767 21.8055 33.0233C21.7894 32.967 21.772 32.8657 21.772 32.704H19.772ZM20.3956 34.4594C20.8751 34.8856 21.5018 35 22.068 35V33C21.9063 33 21.805 32.9826 21.7487 32.9665C21.6953 32.9512 21.6992 32.9422 21.7244 32.9646L20.3956 34.4594ZM22.068 35H27.468V33H22.068V35ZM27.468 35C28.0194 35 28.6745 34.8918 29.1471 34.4191L27.7329 33.0049C27.7802 32.9576 27.8096 32.9571 27.7689 32.9692C27.7249 32.9822 27.631 33 27.468 33V35ZM29.1471 34.4191C29.6257 33.9405 29.764 33.2958 29.764 32.704H27.764C27.764 33.0242 27.6863 33.0515 27.7329 33.0049L29.1471 34.4191ZM29.764 32.704V9.376H27.764V32.704H29.764ZM29.764 9.376C29.764 8.79712 29.631 8.12474 29.1044 7.65659L27.7756 9.15141C27.7307 9.11149 27.7256 9.08101 27.7343 9.10723C27.7451 9.13956 27.764 9.22177 27.764 9.376H29.764ZM29.1874 7.73964C28.7193 7.21296 28.0469 7.08 27.468 7.08V9.08C27.6222 9.08 27.7044 9.0989 27.7368 9.10968C27.763 9.11842 27.7325 9.11327 27.6926 9.06836L29.1874 7.73964ZM27.468 7.08H22.068V9.08H27.468V7.08ZM22.068 7.08C21.4762 7.08 20.8315 7.21829 20.3529 7.69689L21.7671 9.11111C21.7205 9.15771 21.7478 9.08 22.068 9.08V7.08ZM20.3529 7.69689C19.8802 8.16954 19.772 8.82459 19.772 9.376H21.772C21.772 9.21297 21.7898 9.11908 21.8028 9.07509C21.8149 9.0344 21.8144 9.06384 21.7671 9.11111L20.3529 7.69689ZM19.772 9.376V17.044H21.772V9.376H19.772ZM21.525 16.386L14.541 8.39398L13.035 9.71002L20.019 17.702L21.525 16.386ZM14.5437 8.39707C14.1615 7.95609 13.7205 7.59566 13.2099 7.37685L12.4221 9.21514C12.5835 9.28434 12.7905 9.42791 13.0323 9.70693L14.5437 8.39707ZM13.2351 7.38804C12.7561 7.16699 12.2196 7.08 11.664 7.08V9.08C12.0204 9.08 12.2519 9.137 12.3969 9.20396L13.2351 7.38804ZM11.664 7.08H7.92V9.08H11.664V7.08ZM7.92 7.08C7.32818 7.08 6.68349 7.21829 6.20489 7.69689L7.61911 9.11111C7.57251 9.15771 7.59982 9.08 7.92 9.08V7.08ZM6.20489 7.69689C5.73224 8.16955 5.624 8.82459 5.624 9.376H7.624C7.624 9.21297 7.64176 9.11908 7.6548 9.07509C7.66685 9.0344 7.66637 9.06384 7.61911 9.1111L6.20489 7.69689ZM5.624 9.376V32.704H7.624V9.376H5.624ZM5.624 32.704C5.624 33.2702 5.73841 33.8969 6.16459 34.3764L7.65941 33.0476C7.6818 33.0728 7.67279 33.0767 7.65752 33.0233C7.64145 32.967 7.624 32.8657 7.624 32.704H5.624ZM6.24764 34.4594C6.72709 34.8856 7.35377 35 7.92 35V33C7.75833 33 7.65698 32.9826 7.60072 32.9665C7.5473 32.9512 7.55118 32.9422 7.57636 32.9646L6.24764 34.4594ZM7.92 35H13.32V33H7.92V35ZM13.833 33.2668L9.15298 37.1548L10.431 38.6932L15.111 34.8052L13.833 33.2668ZM9.08489 37.2169C9.10481 37.197 9.1203 37.1852 9.12751 37.18C9.13475 37.1748 9.13599 37.1747 9.1289 37.1785C9.11336 37.1869 9.07581 37.2046 9.00777 37.2273L9.64023 39.1247C9.91626 39.0327 10.2429 38.8873 10.4991 38.6311L9.08489 37.2169ZM8.97288 37.2397C8.91051 37.2631 8.81614 37.284 8.676 37.284V39.284C9.01586 39.284 9.35349 39.2329 9.67512 39.1123L8.97288 37.2397ZM8.676 37.284H3.276V39.284H8.676V37.284ZM3.276 37.284C3.06021 37.284 2.9172 37.2588 2.82883 37.231C2.78611 37.2176 2.75944 37.2046 2.74429 37.1958C2.72968 37.1874 2.72411 37.1819 2.72311 37.1809L1.30889 38.5951C1.84073 39.1269 2.57543 39.284 3.276 39.284V37.284ZM2.72311 37.1809C2.72211 37.1799 2.71663 37.1743 2.70818 37.1597C2.69941 37.1446 2.68642 37.1179 2.67299 37.0752C2.64522 36.9868 2.62 36.8438 2.62 36.628H0.62C0.62 37.3286 0.777052 38.0633 1.30889 38.5951L2.72311 37.1809ZM2.62 36.628V13.3H0.62V36.628H2.62ZM2.62 13.3C2.62 13.0586 2.64865 12.9083 2.67668 12.8242L0.779317 12.1918C0.663347 12.5397 0.62 12.9174 0.62 13.3H2.62ZM2.64181 12.9141C2.68167 12.8245 2.72721 12.768 2.77479 12.7273L1.47321 11.2087C1.18479 11.456 0.966334 11.7595 0.814188 12.1019L2.64181 12.9141ZM2.76941 12.7318L7.41341 8.80783L6.12259 7.28016L1.47859 11.2042L2.76941 12.7318ZM7.3927 8.82487C7.37299 8.84063 7.38743 8.82092 7.47854 8.79814L6.99346 6.85786C6.70057 6.93108 6.40301 7.05537 6.1433 7.26313L7.3927 8.82487ZM7.55222 8.77668C7.66085 8.74047 7.78163 8.72 7.92 8.72V6.72C7.57837 6.72 7.24315 6.77152 6.91978 6.87931L7.55222 8.77668ZM7.92 8.72H11.664V6.72H7.92V8.72ZM11.664 8.72C12.0917 8.72 12.3816 8.78879 12.5731 8.87818L13.4189 7.06581C12.8904 6.81921 12.2923 6.72 11.664 6.72V8.72ZM12.5731 8.87818C12.7868 8.97792 13.0468 9.16432 13.3465 9.48394L14.8055 8.11606C14.3852 7.66768 13.9252 7.30208 13.4189 7.06582L12.5731 8.87818ZM13.3188 9.45312L15.8028 12.3331L17.3172 11.0269L14.8332 8.14687L13.3188 9.45312ZM17.2008 12.4477L21.5568 8.8117L20.2752 7.2763L15.9192 10.9123L17.2008 12.4477ZM21.5407 8.82487C21.521 8.84063 21.5354 8.82092 21.6265 8.79814L21.1415 6.85786C20.8486 6.93108 20.551 7.05537 20.2913 7.26313L21.5407 8.82487ZM21.7002 8.77668C21.8089 8.74047 21.9296 8.72 22.068 8.72V6.72C21.7264 6.72 21.3911 6.77152 21.0678 6.87931L21.7002 8.77668ZM22.068 8.72H27.468V6.72H22.068V8.72ZM27.468 8.72C27.6838 8.72 27.8268 8.74522 27.9152 8.77299C27.9579 8.78642 27.9846 8.79941 27.9997 8.80818C28.0143 8.81663 28.0199 8.82211 28.0209 8.82311L29.4351 7.40889C28.9033 6.87705 28.1686 6.72 27.468 6.72V8.72ZM28.0209 8.8231C28.0219 8.8241 28.0274 8.82967 28.0358 8.84428C28.0446 8.85943 28.0576 8.8861 28.071 8.92883C28.0988 9.0172 28.124 9.16021 28.124 9.376H30.124C30.124 8.67543 29.9669 7.94073 29.4351 7.40889L28.0209 8.8231ZM28.124 9.376V32.704H30.124V9.376H28.124ZM28.124 32.704C28.124 32.9187 28.0903 33.0356 28.0662 33.0899L29.8938 33.9021C30.0617 33.5244 30.124 33.1133 30.124 32.704H28.124ZM28.0313 33.1798C28.0149 33.2291 27.9955 33.2542 27.9692 33.2767L29.2708 34.7953C29.5805 34.5298 29.8011 34.1949 29.9287 33.8122L28.0313 33.1798ZM27.981 33.2668L23.301 37.1548L24.579 38.6932L29.259 34.8052L27.981 33.2668ZM23.2329 37.2169C23.2528 37.197 23.2683 37.1852 23.2755 37.18C23.2828 37.1748 23.284 37.1747 23.2769 37.1785C23.2614 37.1869 23.2238 37.2046 23.1558 37.2273L23.7882 39.1247C24.0643 39.0327 24.3909 38.8873 24.6471 38.6311L23.2329 37.2169ZM23.1209 37.2397C23.0585 37.2631 22.9641 37.284 22.824 37.284V39.284C23.1639 39.284 23.5015 39.2329 23.8231 39.1123L23.1209 37.2397ZM22.824 37.284H17.424V39.284H22.824V37.284ZM17.424 37.284C17.2082 37.284 17.0652 37.2588 16.9768 37.231C16.9341 37.2176 16.9074 37.2046 16.8923 37.1958C16.8777 37.1874 16.8721 37.1819 16.8711 37.1809L15.4569 38.5951C15.9887 39.1269 16.7234 39.284 17.424 39.284V37.284ZM16.8711 37.1809C16.8701 37.1799 16.8646 37.1743 16.8562 37.1597C16.8474 37.1446 16.8344 37.1179 16.821 37.0752C16.7932 36.9868 16.768 36.8438 16.768 36.628H14.768C14.768 37.3286 14.9251 38.0633 15.4569 38.5951L16.8711 37.1809ZM16.768 36.628V32.344H14.768V36.628H16.768ZM16.5432 31.7123L15.7512 30.7403L14.2008 32.0037L14.9928 32.9757L16.5432 31.7123ZM13.976 31.372V32.704H15.976V31.372H13.976ZM13.976 32.704C13.976 32.9187 13.9423 33.0356 13.9182 33.0899L15.7458 33.9021C15.9137 33.5244 15.976 33.1133 15.976 32.704H13.976ZM13.8833 33.1798C13.8669 33.2291 13.8475 33.2542 13.8212 33.2767L15.1228 34.7953C15.4325 34.5298 15.6531 34.1949 15.7807 33.8122L13.8833 33.1798ZM34.1474 35.836L33.4084 36.5098L33.4138 36.5156L34.1474 35.836ZM34.1834 13.516L33.538 12.7522L33.5323 12.757L33.5266 12.7619L34.1834 13.516ZM38.8274 9.592L38.1848 8.8258L38.182 8.82816L38.8274 9.592ZM41.6714 8.188L41.415 7.22143L41.41 7.22277L41.6714 8.188ZM56.0354 8.116L56.7425 7.40889L56.7425 7.40889L56.0354 8.116ZM56.2874 14.524L55.3736 14.1179L55.354 14.162L55.3387 14.2078L56.2874 14.524ZM55.9274 15.064L56.5664 15.8332L56.5724 15.8283L56.5782 15.8233L55.9274 15.064ZM51.2474 18.952L50.6084 18.1828L50.5729 18.2123L50.5403 18.2449L51.2474 18.952ZM50.7794 19.204L50.4632 18.2553L50.4456 18.2612L50.4283 18.2677L50.7794 19.204ZM45.4514 19.312V18.312H44.4514V19.312H45.4514ZM45.4514 24.496H44.4514L46.3458 24.9432L45.4514 24.496ZM45.5594 24.352L46.2665 25.0591L46.2665 25.0591L45.5594 24.352ZM45.7394 24.172L45.094 23.4082L45.062 23.4352L45.0323 23.4649L45.7394 24.172ZM50.3834 20.248L49.7587 19.4671L49.7482 19.4755L49.738 19.4842L50.3834 20.248ZM50.8514 20.032L51.0939 21.0021L51.1312 20.9928L51.1676 20.9807L50.8514 20.032ZM58.3754 20.32L59.0825 19.6129L59.0825 19.6129L58.3754 20.32ZM58.6274 33.496L57.7136 33.0899L57.694 33.134L57.6787 33.1798L58.6274 33.496ZM58.2674 34.036L58.9064 34.8052L58.9124 34.8003L58.9182 34.7953L58.2674 34.036ZM53.5874 37.924L52.9484 37.1548L52.9129 37.1843L52.8803 37.2169L53.5874 37.924ZM53.1194 38.176L52.8032 37.2273L52.7856 37.2332L52.7683 37.2397L53.1194 38.176ZM58.0874 33.712L58.7945 34.4191L58.7945 34.4191L58.0874 33.712ZM58.0874 20.608L57.34 21.2724L57.3791 21.3163L57.423 21.3554L58.0874 20.608ZM50.5274 20.608L49.8203 19.9009L49.8203 19.9009L50.5274 20.608ZM50.2394 27.196V28.196H51.2394V27.196H50.2394ZM45.4874 26.764L44.7503 27.4397L44.7649 27.4557L44.7803 27.4711L45.4874 26.764ZM45.6314 15.496L46.2561 16.2769L46.2715 16.2646L46.2863 16.2517L45.6314 15.496ZM55.7474 8.404L55 9.06836L55.0391 9.11233L55.083 9.15141L55.7474 8.404ZM39.0794 9.88L38.4455 9.10658L38.4392 9.11178L39.0794 9.88ZM39.0794 32.2L38.4392 32.9682L38.4455 32.9734L39.0794 32.2ZM42.1034 29.716L41.4787 30.4969L41.4909 30.5066L41.5034 30.516L42.1034 29.716ZM41.0954 28.276L40.1324 28.5456L40.139 28.5691L40.1467 28.5922L41.0954 28.276ZM41.9954 12.4L42.6793 13.1295L42.6793 13.1295L41.9954 12.4ZM52.8314 11.32H53.8314V10.32H52.8314V11.32ZM52.8314 11.68V12.68H53.8314V11.68H52.8314ZM42.3194 12.688L42.9762 13.4421L42.983 13.4362L42.9897 13.4301L42.3194 12.688ZM42.4274 29.428L41.8055 30.2112L41.8166 30.2198L42.4274 29.428ZM54.1274 30.4V31.4H55.1274V30.4H54.1274ZM54.1274 23.524V22.524H53.1274V23.524H54.1274ZM54.4874 23.524H55.4874V22.524H54.4874V23.524ZM54.4874 30.76V31.76H55.4874V30.76H54.4874ZM52.4714 37.284H41.1314V39.284H52.4714V37.284ZM41.1314 37.284C38.1481 37.284 36.1363 36.5113 34.881 35.1564L33.4138 36.5156C35.1825 38.4247 37.8267 39.284 41.1314 39.284V37.284ZM34.8864 35.1622C33.5949 33.7458 32.9154 31.8887 32.9154 29.5H30.9154C30.9154 32.2953 31.7239 34.6622 33.4085 36.5098L34.8864 35.1622ZM32.9154 29.5V19.348H30.9154V29.5H32.9154ZM32.9154 19.348C32.9154 18.1215 33.0942 17.1136 33.4199 16.2994L31.5629 15.5566C31.1206 16.6624 30.9154 17.9345 30.9154 19.348H32.9154ZM33.4199 16.2994C33.7479 15.4794 34.2216 14.8088 34.8402 14.2701L33.5266 12.7619C32.6572 13.5192 32.0029 14.4566 31.5629 15.5566L33.4199 16.2994ZM34.8288 14.2798L39.4728 10.3558L38.182 8.82816L33.538 12.7522L34.8288 14.2798ZM39.47 10.3582C40.0804 9.84622 40.8895 9.4358 41.9328 9.15323L41.41 7.22277C40.1493 7.5642 39.0624 8.08977 38.1848 8.82581L39.47 10.3582ZM41.9278 9.15456C43.0005 8.86997 44.279 8.72 45.7754 8.72V6.72C44.1519 6.72 42.6943 6.88202 41.415 7.22144L41.9278 9.15456ZM45.7754 8.72H54.7754V6.72H45.7754V8.72ZM54.7754 8.72C54.9912 8.72 55.1342 8.74522 55.2226 8.77299C55.2653 8.78642 55.292 8.79941 55.3071 8.80818C55.3217 8.81663 55.3273 8.82211 55.3283 8.82311L56.7425 7.40889C56.2107 6.87705 55.476 6.72 54.7754 6.72V8.72ZM55.3283 8.8231C55.3293 8.8241 55.3348 8.82967 55.3432 8.84428C55.352 8.85943 55.365 8.8861 55.3784 8.92883C55.4062 9.0172 55.4314 9.16021 55.4314 9.376H57.4314C57.4314 8.67543 57.2744 7.94073 56.7425 7.40889L55.3283 8.8231ZM55.4314 9.376V13.732H57.4314V9.376H55.4314ZM55.4314 13.732C55.4314 13.9467 55.3977 14.0636 55.3736 14.1179L57.2012 14.9301C57.3691 14.5524 57.4314 14.1413 57.4314 13.732H55.4314ZM55.3387 14.2078C55.3223 14.2571 55.3029 14.2822 55.2766 14.3047L56.5782 15.8233C56.8879 15.5578 57.1085 15.2229 57.2361 14.8402L55.3387 14.2078ZM55.2884 14.2948L50.6084 18.1828L51.8864 19.7212L56.5664 15.8332L55.2884 14.2948ZM50.5403 18.2449C50.5602 18.225 50.5757 18.2132 50.5829 18.208C50.5902 18.2028 50.5914 18.2027 50.5843 18.2065C50.5688 18.2149 50.5312 18.2326 50.4632 18.2553L51.0956 20.1527C51.3717 20.0607 51.6983 19.9153 51.9545 19.6591L50.5403 18.2449ZM50.4283 18.2677C50.3659 18.2911 50.2715 18.312 50.1314 18.312V20.312C50.4713 20.312 50.8089 20.2609 51.1305 20.1403L50.4283 18.2677ZM50.1314 18.312H45.4514V20.312H50.1314V18.312ZM44.4514 19.312V24.496H46.4514V19.312H44.4514ZM46.3458 24.9432C46.311 25.0129 46.2753 25.0503 46.2665 25.0591L44.8523 23.6449C44.7475 23.7497 44.6398 23.8831 44.557 24.0488L46.3458 24.9432ZM46.2665 25.0591C46.3385 24.9871 46.3985 24.9271 46.4465 24.8791L45.0323 23.4649C44.9843 23.5129 44.9243 23.5729 44.8523 23.6449L46.2665 25.0591ZM46.3848 24.9358L51.0288 21.0118L49.738 19.4842L45.094 23.4082L46.3848 24.9358ZM51.0081 21.0289C50.9884 21.0446 51.0028 21.0249 51.0939 21.0021L50.6089 19.0619C50.316 19.1351 50.0184 19.2594 49.7587 19.4671L51.0081 21.0289ZM51.1676 20.9807C51.2763 20.9445 51.397 20.924 51.5354 20.924V18.924C51.1938 18.924 50.8585 18.9755 50.5352 19.0833L51.1676 20.9807ZM51.5354 20.924H57.1154V18.924H51.5354V20.924ZM57.1154 20.924C57.3312 20.924 57.4742 20.9492 57.5626 20.977C57.6053 20.9904 57.632 21.0034 57.6471 21.0122C57.6617 21.0206 57.6673 21.0261 57.6683 21.0271L59.0825 19.6129C58.5507 19.0811 57.816 18.924 57.1154 18.924V20.924ZM57.6683 21.0271C57.6693 21.0281 57.6748 21.0337 57.6832 21.0483C57.692 21.0634 57.705 21.0901 57.7184 21.1328C57.7462 21.2212 57.7714 21.3642 57.7714 21.58H59.7714C59.7714 20.8794 59.6144 20.1447 59.0825 19.6129L57.6683 21.0271ZM57.7714 21.58V32.704H59.7714V21.58H57.7714ZM57.7714 32.704C57.7714 32.9187 57.7377 33.0356 57.7136 33.0899L59.5412 33.9021C59.7091 33.5244 59.7714 33.1133 59.7714 32.704H57.7714ZM57.6787 33.1798C57.6623 33.2291 57.6429 33.2542 57.6166 33.2767L58.9182 34.7953C59.2279 34.5298 59.4485 34.1949 59.5761 33.8122L57.6787 33.1798ZM57.6284 33.2668L52.9484 37.1548L54.2264 38.6932L58.9064 34.8052L57.6284 33.2668ZM52.8803 37.2169C52.9002 37.197 52.9157 37.1852 52.9229 37.18C52.9302 37.1748 52.9314 37.1747 52.9243 37.1785C52.9088 37.1869 52.8712 37.2046 52.8032 37.2273L53.4356 39.1247C53.7117 39.0327 54.0383 38.8873 54.2945 38.6311L52.8803 37.2169ZM52.7683 37.2397C52.7059 37.2631 52.6115 37.284 52.4714 37.284V39.284C52.8113 39.284 53.1489 39.2329 53.4705 39.1123L52.7683 37.2397ZM57.1154 35C57.6668 35 58.3219 34.8918 58.7945 34.4191L57.3803 33.0049C57.4276 32.9576 57.457 32.9571 57.4163 32.9692C57.3723 32.9822 57.2784 33 57.1154 33V35ZM58.7945 34.4191C59.2731 33.9405 59.4114 33.2958 59.4114 32.704H57.4114C57.4114 33.0242 57.3337 33.0515 57.3803 33.0049L58.7945 34.4191ZM59.4114 32.704V21.58H57.4114V32.704H59.4114ZM59.4114 21.58C59.4114 21.0011 59.2784 20.3287 58.7518 19.8606L57.423 21.3554C57.3781 21.3155 57.373 21.285 57.3817 21.3112C57.3925 21.3436 57.4114 21.4258 57.4114 21.58H59.4114ZM58.8348 19.9436C58.3667 19.417 57.6943 19.284 57.1154 19.284V21.284C57.2696 21.284 57.3518 21.3029 57.3842 21.3137C57.4104 21.3224 57.3799 21.3173 57.34 21.2724L58.8348 19.9436ZM57.1154 19.284H51.5354V21.284H57.1154V19.284ZM51.5354 19.284C50.9436 19.284 50.2989 19.4223 49.8203 19.9009L51.2345 21.3151C51.1879 21.3617 51.2152 21.284 51.5354 21.284V19.284ZM49.8203 19.9009C49.3476 20.3735 49.2394 21.0286 49.2394 21.58H51.2394C51.2394 21.417 51.2572 21.3231 51.2702 21.2791C51.2823 21.2384 51.2818 21.2678 51.2345 21.3151L49.8203 19.9009ZM49.2394 21.58V27.196H51.2394V21.58H49.2394ZM50.2394 26.196H46.7474V28.196H50.2394V26.196ZM46.7474 26.196C46.3638 26.196 46.2361 26.0985 46.1945 26.0569L44.7803 27.4711C45.3147 28.0055 46.027 28.196 46.7474 28.196V26.196ZM46.2246 26.0883C46.2005 26.062 46.0914 25.9113 46.0914 25.432H44.0914C44.0914 26.1527 44.2464 26.89 44.7503 27.4397L46.2246 26.0883ZM46.0914 25.432V16.828H44.0914V25.432H46.0914ZM46.0914 16.828C46.0914 16.4328 46.2011 16.3208 46.2561 16.2769L45.0067 14.7151C44.3417 15.2472 44.0914 16.0232 44.0914 16.828H46.0914ZM46.2863 16.2517C46.3864 16.1649 46.6553 16.028 47.2874 16.028V14.028C46.4315 14.028 45.5964 14.2031 44.9765 14.7403L46.2863 16.2517ZM47.2874 16.028H54.7754V14.028H47.2874V16.028ZM54.7754 16.028C55.3268 16.028 55.9819 15.9198 56.4545 15.4471L55.0403 14.0329C55.0876 13.9856 55.117 13.9851 55.0763 13.9972C55.0323 14.0102 54.9384 14.028 54.7754 14.028V16.028ZM56.4545 15.4471C56.9331 14.9685 57.0714 14.3238 57.0714 13.732H55.0714C55.0714 14.0522 54.9937 14.0795 55.0403 14.0329L56.4545 15.4471ZM57.0714 13.732V9.376H55.0714V13.732H57.0714ZM57.0714 9.376C57.0714 8.79712 56.9384 8.12474 56.4118 7.65659L55.083 9.15141C55.0381 9.11149 55.033 9.08101 55.0417 9.10723C55.0525 9.13956 55.0714 9.22177 55.0714 9.376H57.0714ZM56.4948 7.73963C56.0267 7.21297 55.3543 7.08 54.7754 7.08V9.08C54.9296 9.08 55.0118 9.0989 55.0442 9.10968C55.0704 9.11842 55.0399 9.11327 55 9.06836L56.4948 7.73963ZM54.7754 7.08H45.7754V9.08H54.7754V7.08ZM45.7754 7.08C42.6713 7.08 40.1666 7.69589 38.4455 9.10661L39.7133 10.6534C40.9203 9.66411 42.8795 9.08 45.7754 9.08V7.08ZM38.4392 9.11178C36.7014 10.56 35.9194 12.736 35.9194 15.424H37.9194C37.9194 13.12 38.5774 11.6 39.7196 10.6482L38.4392 9.11178ZM35.9194 15.424V26.656H37.9194V15.424H35.9194ZM35.9194 26.656C35.9194 29.344 36.7014 31.52 38.4392 32.9682L39.7196 31.4318C38.5774 30.48 37.9194 28.96 37.9194 26.656H35.9194ZM38.4455 32.9734C40.1666 34.3841 42.6713 35 45.7754 35V33C42.8795 33 40.9203 32.4159 39.7133 31.4266L38.4455 32.9734ZM45.7754 35H57.1154V33H45.7754V35ZM47.3234 29.76C46.038 29.76 45.0302 29.6776 44.2795 29.5274L43.8873 31.4886C44.8166 31.6744 45.9688 31.76 47.3234 31.76V29.76ZM44.2795 29.5274C43.5277 29.3771 43.0241 29.1565 42.7034 28.916L41.5034 30.516C42.1427 30.9955 42.9591 31.3029 43.8873 31.4886L44.2795 29.5274ZM42.7281 28.9351C42.3966 28.67 42.1743 28.3505 42.0441 27.9598L40.1467 28.5922C40.4005 29.3535 40.8502 29.994 41.4787 30.4969L42.7281 28.9351ZM42.0584 28.0064C41.9218 27.5186 41.8434 26.8943 41.8434 26.116H39.8434C39.8434 27.0177 39.933 27.8334 40.1324 28.5456L42.0584 28.0064ZM41.8434 26.116V16.036H39.8434V26.116H41.8434ZM41.8434 16.036C41.8434 14.443 42.2082 13.5712 42.6793 13.1295L41.3115 11.6705C40.2466 12.6688 39.8434 14.221 39.8434 16.036H41.8434ZM42.6793 13.1295C42.8871 12.9348 43.2755 12.7221 43.9516 12.5636C44.6192 12.4072 45.4965 12.32 46.6034 12.32V10.32C45.4063 10.32 44.3636 10.4128 43.4952 10.6164C42.6353 10.8179 41.8717 11.1452 41.3115 11.6705L42.6793 13.1295ZM46.6034 12.32H52.8314V10.32H46.6034V12.32ZM51.8314 11.32V11.68H53.8314V11.32H51.8314ZM52.8314 10.68H46.6034V12.68H52.8314V10.68ZM46.6034 10.68C45.5009 10.68 44.5333 10.7671 43.7194 10.9586C42.912 11.1486 42.1911 11.4564 41.6491 11.9459L42.9897 13.4301C43.1918 13.2476 43.5569 13.0514 44.1774 12.9054C44.7915 12.7609 45.5939 12.68 46.6034 12.68V10.68ZM41.6626 11.9339C40.5978 12.8613 40.2034 14.3348 40.2034 16.036H42.2034C42.2034 14.5692 42.553 13.8107 42.9762 13.4421L41.6626 11.9339ZM40.2034 16.036V26.116H42.2034V16.036H40.2034ZM40.2034 26.116C40.2034 27.8253 40.6507 29.2941 41.8055 30.2111L43.0493 28.6449C42.5721 28.2659 42.2034 27.5267 42.2034 26.116H40.2034ZM41.8166 30.2198C42.4089 30.6767 43.1966 30.9612 44.0867 31.1379C44.9886 31.3169 46.0728 31.4 47.3234 31.4V29.4C46.15 29.4 45.2062 29.3211 44.4761 29.1761C43.7342 29.0288 43.2859 28.8273 43.0382 28.6362L41.8166 30.2198ZM47.3234 31.4H54.1274V29.4H47.3234V31.4ZM55.1274 30.4V23.524H53.1274V30.4H55.1274ZM54.1274 24.524H54.4874V22.524H54.1274V24.524ZM53.4874 23.524V30.76H55.4874V23.524H53.4874ZM54.4874 29.76H47.3234V31.76H54.4874V29.76Z" fill="black" mask="url(#path-1-outside-1_296_238)"/>
</svg>
