<svg width="32" height="32" viewBox="0 0 32 32" fill="none" xmlns="http://www.w3.org/2000/svg">
<g clip-path="url(#clip0_539_313)">
<circle cx="16" cy="16" r="16" fill="#F3E8D9"/>
<path d="M12.768 22H9.384L12.288 11.632C12.368 11.408 12.416 11.208 12.432 11.032C12.464 10.84 12.448 10.696 12.384 10.6C12.32 10.488 12.2 10.432 12.024 10.432C11.736 10.432 11.472 10.568 11.232 10.84C11.008 11.096 10.76 11.592 10.488 12.328L10.032 13.552H9.576L10.224 11.728C10.544 10.816 10.96 10.176 11.472 9.808C12 9.44 12.616 9.256 13.32 9.256C13.896 9.256 14.336 9.36 14.64 9.568C14.944 9.76 15.144 10.024 15.24 10.36C15.352 10.696 15.392 11.064 15.36 11.464C15.344 11.848 15.288 12.232 15.192 12.616L12.768 22ZM13.536 17.944C14.16 16.2 14.736 14.768 15.264 13.648C15.808 12.512 16.336 11.624 16.848 10.984C17.376 10.344 17.912 9.896 18.456 9.64C19 9.384 19.584 9.256 20.208 9.256C20.976 9.256 21.528 9.424 21.864 9.76C22.2 10.096 22.368 10.544 22.368 11.104C22.368 11.648 22.264 12.24 22.056 12.88L19.704 19.96C19.544 20.408 19.504 20.72 19.584 20.896C19.664 21.072 19.808 21.16 20.016 21.16C20.224 21.16 20.456 21.048 20.712 20.824C20.968 20.584 21.24 20.064 21.528 19.264L21.96 18.112H22.416L21.816 19.864C21.592 20.536 21.296 21.048 20.928 21.4C20.576 21.752 20.192 21.992 19.776 22.12C19.376 22.264 18.984 22.336 18.6 22.336C18.136 22.336 17.744 22.264 17.424 22.12C17.104 21.992 16.856 21.8 16.68 21.544C16.472 21.224 16.368 20.824 16.368 20.344C16.384 19.848 16.512 19.24 16.752 18.52L18.912 12.04C19.008 11.784 19.072 11.536 19.104 11.296C19.136 11.056 19.128 10.856 19.08 10.696C19.032 10.536 18.896 10.456 18.672 10.456C18.368 10.456 18.024 10.656 17.64 11.056C17.256 11.44 16.848 11.984 16.416 12.688C16 13.376 15.584 14.184 15.168 15.112C14.752 16.04 14.352 17.032 13.968 18.088C13.584 19.128 13.24 20.2 12.936 21.304L13.536 17.944Z" fill="black"/>
</g>
<defs>
<clipPath id="clip0_539_313">
<rect width="32" height="32" fill="white"/>
</clipPath>
</defs>
</svg>
